STARTFONT 2.1
FONT -ADECW-Hei-Medium-R-Normal--16-160-75-75-M-160-DEC.CNS11643.1986-2
SIZE 16 75 75
FONTBOUNDINGBOX 16 16 0 -4

STARTPROPERTIES 26
FONTNAME_REGISTRY ""
FAMILY_NAME "Hei"
FOUNDRY "ADECW"
WEIGHT_NAME "Medium"
SLANT "R"
SETWIDTH_NAME "Normal"
ADD_STYLE_NAME ""
PIXEL_SIZE 16
POINT_SIZE 160
RESOLUTION_X 75
RESOLUTION_Y 75
SPACING "M"
AVERAGE_WIDTH 160
CHARSET_REGISTRY "DEC.CNS11643.1986"
CHARSET_ENCODING "2"
DEVICE_FONT_NAME "Hei-DEC.CNS11643.1986-2"
CHARSET_COLLECTIONS "DEC.CNS11643.1986-2"
FULL_NAME "Hei DEC.CNS11643.1986 2"
COPYRIGHT "Copyright (c) 1988 Digital Equipment Corporation FE."
CAP_HEIGHT 13
X_HEIGHT 9
WEIGHT 10
QUAD_WIDTH 16
DEFAULT_CHAR 65021
FONT_DESCENT 4
FONT_ASCENT 12
ENDPROPERTIES

CHARS 13736

STARTCHAR A121
ENCODING 41249
SWIDTH 960 0
DWIDTH 16 0
BBX 16 16 0 -4
BITMAP
0000
0008
0808
0808
0410
0410
0220
0220
0140
0080
0140
0220
0410
180C
6003
0000
ENDCHAR

STARTCHAR A122
ENCODING 41250
SWIDTH 960 0
DWIDTH 16 0
BBX 16 16 0 -4
BITMAP
0000
0800
0800
0800
0800
083F
0FC1
7802
0804
0800
0800
0800
0801
0801
0801
07FF
ENDCHAR

STARTCHAR A123
ENCODING 41251
SWIDTH 960 0
DWIDTH 16 0
BBX 16 16 0 -4
BITMAP
0000
4002
4002
4002
4002
4002
4002
4002
4002
4002
4002
4002
4002
4002
7FFE
4002
ENDCHAR

STARTCHAR A124
ENCODING 41252
SWIDTH 960 0
DWIDTH 16 0
BBX 16 16 0 -4
BITMAP
0000
7FFF
4000
4000
4000
4000
4000
4000
4000
4000
4000
4000
4000
4000
7FFF
4000
ENDCHAR

STARTCHAR A125
ENCODING 41253
SWIDTH 960 0
DWIDTH 16 0
BBX 16 16 0 -4
BITMAP
0000
1FFF
1000
1000
1000
1000
1000
1000
1000
1000
1000
1000
2000
2000
4000
0000
ENDCHAR

STARTCHAR A126
ENCODING 41254
SWIDTH 960 0
DWIDTH 16 0
BBX 16 16 0 -4
BITMAP
0000
7FFF
0400
0400
0400
0400
07FC
0404
0404
0404
0404
0804
0804
1004
2008
4070
ENDCHAR

STARTCHAR A127
ENCODING 41255
SWIDTH 960 0
DWIDTH 16 0
BBX 16 16 0 -4
BITMAP
0000
7FFF
0408
0408
0408
0408
0408
0408
0408
0408
0408
0808
0808
0808
1008
6008
ENDCHAR

STARTCHAR A128
ENCODING 41256
SWIDTH 960 0
DWIDTH 16 0
BBX 16 16 0 -4
BITMAP
0000
00FC
7F80
0200
0200
0200
0200
0200
7FFF
0200
0200
0200
0200
0201
0201
01FF
ENDCHAR

STARTCHAR A129
ENCODING 41257
SWIDTH 960 0
DWIDTH 16 0
BBX 16 16 0 -4
BITMAP
0000
3FFE
0000
0000
0000
7FFF
0080
0080
0080
0080
0080
0080
0080
0080
0080
0780
ENDCHAR

STARTCHAR A12A
ENCODING 41258
SWIDTH 960 0
DWIDTH 16 0
BBX 16 16 0 -4
BITMAP
0000
3FFE
2002
2002
2002
2002
2002
2002
2002
2002
2002
2002
2002
2002
3FFE
2002
ENDCHAR

STARTCHAR A12B
ENCODING 41259
SWIDTH 960 0
DWIDTH 16 0
BBX 16 16 0 -4
BITMAP
0080
0080
2082
2082
2082
2082
2082
2082
3FFE
2082
0080
0080
0080
0080
0080
0080
ENDCHAR

STARTCHAR A12C
ENCODING 41260
SWIDTH 960 0
DWIDTH 16 0
BBX 16 16 0 -4
BITMAP
0088
0088
0110
0210
0420
1840
00C0
0140
0640
1840
0040
0040
0040
0040
0040
0040
ENDCHAR

STARTCHAR A12D
ENCODING 41261
SWIDTH 960 0
DWIDTH 16 0
BBX 16 16 0 -4
BITMAP
0000
7FFF
0080
0080
1080
10FE
1082
1082
1082
1FFE
1002
0002
0002
0002
0004
0038
ENDCHAR

STARTCHAR A12E
ENCODING 41262
SWIDTH 960 0
DWIDTH 16 0
BBX 16 16 0 -4
BITMAP
0100
0100
7FFF
0200
0400
07FC
0C04
1404
2404
4404
0404
0404
0804
0804
1004
2038
ENDCHAR

STARTCHAR A12F
ENCODING 41263
SWIDTH 960 0
DWIDTH 16 0
BBX 16 16 0 -4
BITMAP
0400
0400
07FE
0400
0400
0400
07FF
0001
0001
0001
3FF1
0001
0001
0001
0002
001C
ENDCHAR

STARTCHAR A130
ENCODING 41264
SWIDTH 960 0
DWIDTH 16 0
BBX 16 16 0 -4
BITMAP
0000
7FF0
0410
0410
0410
3F90
0410
0410
0410
3F90
0410
0410
0410
0411
0411
040F
ENDCHAR

STARTCHAR A131
ENCODING 41265
SWIDTH 960 0
DWIDTH 16 0
BBX 16 16 0 -4
BITMAP
0000
1FFC
0000
0000
0000
0000
7FFF
0410
0410
0410
0410
0410
0810
0810
1010
2010
ENDCHAR

STARTCHAR A132
ENCODING 41266
SWIDTH 960 0
DWIDTH 16 0
BBX 16 16 0 -4
BITMAP
0420
0820
0820
1020
13FF
3021
3021
5021
1021
1021
1041
1041
1081
1081
1102
121C
ENDCHAR

STARTCHAR A133
ENCODING 41267
SWIDTH 960 0
DWIDTH 16 0
BBX 16 16 0 -4
BITMAP
0400
08F8
0888
1088
1088
3088
3088
5088
1088
1088
1088
1088
1108
1109
1209
1407
ENDCHAR

STARTCHAR A134
ENCODING 41268
SWIDTH 960 0
DWIDTH 16 0
BBX 16 16 0 -4
BITMAP
0400
0810
0810
1010
1010
3090
3088
5088
1088
1088
1104
1104
1104
1202
1202
1401
ENDCHAR

STARTCHAR A135
ENCODING 41269
SWIDTH 960 0
DWIDTH 16 0
BBX 16 16 0 -4
BITMAP
0080
0080
0080
7FFF
4081
4082
00C0
00C0
0140
0140
0240
0240
0440
0841
1041
203F
ENDCHAR

STARTCHAR A136
ENCODING 41270
SWIDTH 960 0
DWIDTH 16 0
BBX 16 16 0 -4
BITMAP
0400
0400
0800
0FFF
1001
6101
0101
0FE1
0121
0121
0221
0225
0425
1839
0001
000E
ENDCHAR

STARTCHAR A137
ENCODING 41271
SWIDTH 960 0
DWIDTH 16 0
BBX 16 16 0 -4
BITMAP
0000
067E
3842
2042
2042
2042
2042
2042
2042
2042
2242
2C5C
3040
0040
0040
0040
ENDCHAR

STARTCHAR A138
ENCODING 41272
SWIDTH 960 0
DWIDTH 16 0
BBX 16 16 0 -4
BITMAP
0200
0200
7FF0
0210
0210
0410
0410
0811
1011
610F
0200
0408
0804
10FE
7F82
0002
ENDCHAR

STARTCHAR A139
ENCODING 41273
SWIDTH 960 0
DWIDTH 16 0
BBX 16 16 0 -4
BITMAP
0040
0840
0840
0840
0840
0840
3E40
0840
0840
0840
0840
0840
0841
0E41
7041
003F
ENDCHAR

STARTCHAR A13A
ENCODING 41274
SWIDTH 960 0
DWIDTH 16 0
BBX 16 16 0 -4
BITMAP
0000
7FFC
0804
0804
0808
0810
083F
0801
17F1
1411
1221
2141
2081
2362
4C1A
0004
ENDCHAR

STARTCHAR A13B
ENCODING 41275
SWIDTH 960 0
DWIDTH 16 0
BBX 16 16 0 -4
BITMAP
0080
0080
0080
1FFC
0084
0084
0084
0084
7FFF
0080
0120
0110
0208
0404
0802
3001
ENDCHAR

STARTCHAR A13C
ENCODING 41276
SWIDTH 960 0
DWIDTH 16 0
BBX 16 16 0 -4
BITMAP
0000
0080
0080
0490
0488
0888
0884
1084
1082
2081
5080
0880
0600
0180
007F
0000
ENDCHAR

STARTCHAR A13D
ENCODING 41277
SWIDTH 960 0
DWIDTH 16 0
BBX 16 16 0 -4
BITMAP
0080
0080
7FFF
0080
0080
0080
3FFE
2082
2082
2082
2082
2082
208E
0080
0080
0080
ENDCHAR

STARTCHAR A13E
ENCODING 41278
SWIDTH 960 0
DWIDTH 16 0
BBX 16 16 0 -4
BITMAP
0000
1FFC
1080
1080
1080
2080
2080
3FFE
0140
0140
0140
0240
0240
0441
0841
303F
ENDCHAR

STARTCHAR A13F
ENCODING 41279
SWIDTH 960 0
DWIDTH 16 0
BBX 16 16 0 -4
BITMAP
07F0
0410
0410
0410
0410
0810
100F
2000
0FF8
0408
0210
0120
00C0
0120
0618
3807
ENDCHAR

STARTCHAR A140
ENCODING 41280
SWIDTH 960 0
DWIDTH 16 0
BBX 16 16 0 -4
BITMAP
0000
0FFE
0842
0842
0842
0842
0842
7FFF
1084
1084
1084
1084
1084
1084
1FFC
0000
ENDCHAR

STARTCHAR A141
ENCODING 41281
SWIDTH 960 0
DWIDTH 16 0
BBX 16 16 0 -4
BITMAP
1000
1FFE
1000
2000
2FF8
4000
0000
3FF8
0008
0008
0008
0008
0005
0005
0003
0001
ENDCHAR

STARTCHAR A142
ENCODING 41282
SWIDTH 960 0
DWIDTH 16 0
BBX 16 16 0 -4
BITMAP
0004
1004
1004
1004
1004
1FFC
1004
0004
1FFC
1004
1004
1004
1004
2004
2004
4004
ENDCHAR

STARTCHAR A143
ENCODING 41283
SWIDTH 960 0
DWIDTH 16 0
BBX 16 16 0 -4
BITMAP
0220
0220
4221
4221
4221
4221
4221
4221
7E3F
0220
0220
0220
0420
0420
0820
3020
ENDCHAR

STARTCHAR A144
ENCODING 41284
SWIDTH 960 0
DWIDTH 16 0
BBX 16 16 0 -4
BITMAP
0410
0410
0410
0410
3FFE
0410
0510
0490
0410
7FFF
0410
0410
0810
0810
1010
2010
ENDCHAR

STARTCHAR A145
ENCODING 41285
SWIDTH 960 0
DWIDTH 16 0
BBX 16 16 0 -4
BITMAP
0400
0800
09FE
1000
1000
3000
3000
5000
10FC
1000
1000
1000
1000
1000
13FF
1000
ENDCHAR

STARTCHAR A146
ENCODING 41286
SWIDTH 960 0
DWIDTH 16 0
BBX 16 16 0 -4
BITMAP
0400
0800
0BFE
1020
1020
3020
3020
5020
1020
1020
1020
1020
1020
17FF
1000
1000
ENDCHAR

STARTCHAR A147
ENCODING 41287
SWIDTH 960 0
DWIDTH 16 0
BBX 16 16 0 -4
BITMAP
0400
0840
0840
1040
1040
3040
307C
5040
1040
1040
1040
1040
1040
1040
17FF
1000
ENDCHAR

STARTCHAR A148
ENCODING 41288
SWIDTH 960 0
DWIDTH 16 0
BBX 16 16 0 -4
BITMAP
0440
0840
0880
10FF
1100
3200
30FC
5008
1010
1020
1040
1080
1101
1101
1101
10FE
ENDCHAR

STARTCHAR A149
ENCODING 41289
SWIDTH 960 0
DWIDTH 16 0
BBX 16 16 0 -4
BITMAP
0080
0140
0220
0410
0808
1004
2002
4FF9
0080
0080
0080
0080
0080
0080
0080
3FFE
ENDCHAR

STARTCHAR A14A
ENCODING 41290
SWIDTH 960 0
DWIDTH 16 0
BBX 16 16 0 -4
BITMAP
0080
0080
0140
0220
0410
0808
1084
2082
4081
2082
2082
2082
2082
2082
3FFE
2002
ENDCHAR

STARTCHAR A14B
ENCODING 41291
SWIDTH 960 0
DWIDTH 16 0
BBX 16 16 0 -4
BITMAP
0101
0101
0109
0109
7FC9
0109
0109
2109
1109
0909
0909
0109
0109
0101
0101
0706
ENDCHAR

STARTCHAR A14C
ENCODING 41292
SWIDTH 960 0
DWIDTH 16 0
BBX 16 16 0 -4
BITMAP
1001
1001
2001
3FC9
4009
0009
3F89
0109
0209
0409
0809
1009
2041
4041
4041
3FC6
ENDCHAR

STARTCHAR A14D
ENCODING 41293
SWIDTH 960 0
DWIDTH 16 0
BBX 16 16 0 -4
BITMAP
0000
7FFF
4040
4440
4440
4440
447C
47C4
5C48
4440
4442
4402
47FE
4000
7FFF
0000
ENDCHAR

STARTCHAR A14E
ENCODING 41294
SWIDTH 960 0
DWIDTH 16 0
BBX 16 16 0 -4
BITMAP
0924
0924
0924
0924
0924
0924
0924
7FFF
0924
0924
0924
0924
1124
1124
2124
4004
ENDCHAR

STARTCHAR A14F
ENCODING 41295
SWIDTH 960 0
DWIDTH 16 0
BBX 16 16 0 -4
BITMAP
1000
1000
13FF
1010
1010
7C10
1010
1010
1010
1010
1010
1410
1810
6010
0010
0070
ENDCHAR

STARTCHAR A150
ENCODING 41296
SWIDTH 960 0
DWIDTH 16 0
BBX 16 16 0 -4
BITMAP
0000
1FFC
0808
0410
0360
00C0
0330
0C0C
7083
0080
3FFE
0080
0080
0080
7FFF
0000
ENDCHAR

STARTCHAR A151
ENCODING 41297
SWIDTH 960 0
DWIDTH 16 0
BBX 16 16 0 -4
BITMAP
0800
083E
1022
1FA2
10A2
20A2
3122
4922
052E
0620
0220
0420
0420
0820
1021
201F
ENDCHAR

STARTCHAR A152
ENCODING 41298
SWIDTH 960 0
DWIDTH 16 0
BBX 16 16 0 -4
BITMAP
0080
0080
7FFF
0140
0220
0410
180C
6103
0100
3FFE
0102
0102
0202
0202
0C04
3038
ENDCHAR

STARTCHAR A153
ENCODING 41299
SWIDTH 960 0
DWIDTH 16 0
BBX 16 16 0 -4
BITMAP
0100
0080
7FFF
4001
4002
0000
3FFE
0080
0080
0080
0080
0080
0080
0080
0080
0380
ENDCHAR

STARTCHAR A154
ENCODING 41300
SWIDTH 960 0
DWIDTH 16 0
BBX 16 16 0 -4
BITMAP
0100
0080
7FFF
4001
4002
0200
0200
3FF8
0208
0208
0208
0208
0408
0409
0809
300F
ENDCHAR

STARTCHAR A155
ENCODING 41301
SWIDTH 960 0
DWIDTH 16 0
BBX 16 16 0 -4
BITMAP
0080
0140
0220
0410
0808
1004
2082
4081
0890
0888
1084
1082
2082
4081
0080
0380
ENDCHAR

STARTCHAR A156
ENCODING 41302
SWIDTH 960 0
DWIDTH 16 0
BBX 16 16 0 -4
BITMAP
0000
3FFF
2001
2001
3FFF
2080
2080
2080
27F8
2088
2088
2088
2108
4108
4209
0C0F
ENDCHAR

STARTCHAR A157
ENCODING 41303
SWIDTH 960 0
DWIDTH 16 0
BBX 16 16 0 -4
BITMAP
0080
2082
2082
2082
3FFE
2002
0080
0080
3FFE
0082
0082
0102
0102
0202
0C04
3038
ENDCHAR

STARTCHAR A158
ENCODING 41304
SWIDTH 960 0
DWIDTH 16 0
BBX 16 16 0 -4
BITMAP
0300
0180
0240
0420
0810
1008
2004
4083
0080
0080
2082
2082
2082
2082
3FFE
2002
ENDCHAR

STARTCHAR A159
ENCODING 41305
SWIDTH 960 0
DWIDTH 16 0
BBX 16 16 0 -4
BITMAP
0800
0800
08FF
7F08
4908
4908
4908
4908
4908
4908
4B08
0808
0808
0808
0808
0838
ENDCHAR

STARTCHAR A15A
ENCODING 41306
SWIDTH 960 0
DWIDTH 16 0
BBX 16 16 0 -4
BITMAP
0080
0040
3FFF
2000
2400
2400
240C
2470
2780
2400
2400
2402
2402
4402
43FE
0000
ENDCHAR

STARTCHAR A15B
ENCODING 41307
SWIDTH 960 0
DWIDTH 16 0
BBX 16 16 0 -4
BITMAP
0080
0040
3FFF
2000
2040
2040
2040
2040
2040
20A0
20A0
2110
2208
4404
4802
1001
ENDCHAR

STARTCHAR A15C
ENCODING 41308
SWIDTH 960 0
DWIDTH 16 0
BBX 16 16 0 -4
BITMAP
1000
13FE
1042
1042
5842
5442
5442
5442
1042
1042
1082
1082
1102
1102
1204
1418
ENDCHAR

STARTCHAR A15D
ENCODING 41309
SWIDTH 960 0
DWIDTH 16 0
BBX 16 16 0 -4
BITMAP
0088
0084
0080
3FFF
2080
2080
2080
2040
2041
2042
2024
2018
2210
2428
28C5
3303
ENDCHAR

STARTCHAR A15E
ENCODING 41310
SWIDTH 960 0
DWIDTH 16 0
BBX 16 16 0 -4
BITMAP
1010
1010
1010
1010
7DFF
1011
1011
1011
1C11
7011
1021
1021
1041
1041
1082
330C
ENDCHAR

STARTCHAR A15F
ENCODING 41311
SWIDTH 960 0
DWIDTH 16 0
BBX 16 16 0 -4
BITMAP
0400
0FFE
0800
1FF8
2000
5FFC
0004
0004
0104
0104
0104
0104
0205
0405
0802
0002
ENDCHAR

STARTCHAR A160
ENCODING 41312
SWIDTH 960 0
DWIDTH 16 0
BBX 16 16 0 -4
BITMAP
0000
1FFC
0008
0010
0020
00C0
7E82
02C4
04A8
0490
0888
1084
6083
0080
0380
0000
ENDCHAR

STARTCHAR A161
ENCODING 41313
SWIDTH 960 0
DWIDTH 16 0
BBX 16 16 0 -4
BITMAP
0000
2020
1010
0010
0010
0090
4088
2088
0088
1088
1104
2104
2104
4202
4202
0401
ENDCHAR

STARTCHAR A162
ENCODING 41314
SWIDTH 960 0
DWIDTH 16 0
BBX 16 16 0 -4
BITMAP
0080
2080
1080
0080
07F8
0088
4088
2088
0088
1088
1088
2088
2108
4109
4209
040F
ENDCHAR

STARTCHAR A163
ENCODING 41315
SWIDTH 960 0
DWIDTH 16 0
BBX 16 16 0 -4
BITMAP
0040
2040
1040
0040
07FE
0042
4042
2042
0042
0042
1082
1082
2102
2102
4204
4438
ENDCHAR

STARTCHAR A164
ENCODING 41316
SWIDTH 960 0
DWIDTH 16 0
BBX 16 16 0 -4
BITMAP
0080
0090
0088
0084
0080
7FFF
0080
0180
0140
0220
0224
0414
0418
0808
1014
2023
ENDCHAR

STARTCHAR A165
ENCODING 41317
SWIDTH 960 0
DWIDTH 16 0
BBX 16 16 0 -4
BITMAP
0040
4440
2840
1040
2BF8
4848
0848
1448
1448
2448
4448
0488
0488
0489
0909
320F
ENDCHAR

STARTCHAR A166
ENCODING 41318
SWIDTH 960 0
DWIDTH 16 0
BBX 16 16 0 -4
BITMAP
0000
3FFE
0080
0090
0088
0088
0080
1FFC
0080
0080
0080
0080
0080
0080
3FFE
0000
ENDCHAR

STARTCHAR A167
ENCODING 41319
SWIDTH 960 0
DWIDTH 16 0
BBX 16 16 0 -4
BITMAP
0080
0080
2080
7FFE
2082
2082
20A2
2092
208A
20FA
2F8A
2002
2002
2002
2002
200E
ENDCHAR

STARTCHAR A168
ENCODING 41320
SWIDTH 960 0
DWIDTH 16 0
BBX 16 16 0 -4
BITMAP
0000
3C00
25FE
2402
2402
3404
2C08
2410
2C20
3440
2480
2500
2501
2501
44FF
4C00
ENDCHAR

STARTCHAR A169
ENCODING 41321
SWIDTH 960 0
DWIDTH 16 0
BBX 16 16 0 -4
BITMAP
0020
7C20
4420
4820
4BFF
5021
5021
4821
4421
4421
4441
4441
5881
4081
4102
421C
ENDCHAR

STARTCHAR A16A
ENCODING 41322
SWIDTH 960 0
DWIDTH 16 0
BBX 16 16 0 -4
BITMAP
0820
0820
1020
17FF
2020
3020
5020
17FE
1102
1104
1088
1050
1020
1050
118C
1603
ENDCHAR

STARTCHAR A16B
ENCODING 41323
SWIDTH 960 0
DWIDTH 16 0
BBX 16 16 0 -4
BITMAP
0820
0824
1022
1020
27FF
3020
5020
5050
1050
1050
1090
1090
1110
1111
1211
140F
ENDCHAR

STARTCHAR A16C
ENCODING 41324
SWIDTH 960 0
DWIDTH 16 0
BBX 16 16 0 -4
BITMAP
0800
08FE
1082
1082
2082
3082
50FE
5090
1090
1090
1088
1088
1104
1104
1202
1401
ENDCHAR

STARTCHAR A16D
ENCODING 41325
SWIDTH 960 0
DWIDTH 16 0
BBX 16 16 0 -4
BITMAP
0800
0900
1100
11FE
2220
3420
5020
5020
17FF
1020
1020
1020
1020
1020
1020
1020
ENDCHAR

STARTCHAR A16E
ENCODING 41326
SWIDTH 960 0
DWIDTH 16 0
BBX 16 16 0 -4
BITMAP
0800
0BFF
1201
1202
2088
3088
5088
5088
1088
1088
1088
1088
1109
1109
1209
1407
ENDCHAR

STARTCHAR A16F
ENCODING 41327
SWIDTH 960 0
DWIDTH 16 0
BBX 16 16 0 -4
BITMAP
0820
0850
1088
1104
2202
34F9
5000
5000
13FE
1002
1002
1004
1004
1008
1010
1020
ENDCHAR

STARTCHAR A170
ENCODING 41328
SWIDTH 960 0
DWIDTH 16 0
BBX 16 16 0 -4
BITMAP
0820
0810
1088
1084
2104
3102
5202
5441
1040
1088
1084
1102
1102
120F
13F1
1001
ENDCHAR

STARTCHAR A171
ENCODING 41329
SWIDTH 960 0
DWIDTH 16 0
BBX 16 16 0 -4
BITMAP
0820
0850
1088
1104
2202
3489
5088
5088
1088
1088
1088
1088
1108
1108
1208
1408
ENDCHAR

STARTCHAR A172
ENCODING 41330
SWIDTH 960 0
DWIDTH 16 0
BBX 16 16 0 -4
BITMAP
0860
0810
1008
1088
2080
3080
5080
5084
1282
1281
1281
1281
1480
1484
1084
107C
ENDCHAR

STARTCHAR A173
ENCODING 41331
SWIDTH 960 0
DWIDTH 16 0
BBX 16 16 0 -4
BITMAP
0800
09FC
1000
1000
2000
3000
57FF
5040
1040
1080
1080
1104
1202
141F
17E1
1001
ENDCHAR

STARTCHAR A174
ENCODING 41332
SWIDTH 960 0
DWIDTH 16 0
BBX 16 16 0 -4
BITMAP
0820
0820
1020
17FF
2020
3020
53FE
5222
1222
1222
1222
1222
1222
1226
1020
1020
ENDCHAR

STARTCHAR A175
ENCODING 41333
SWIDTH 960 0
DWIDTH 16 0
BBX 16 16 0 -4
BITMAP
0820
0820
1020
17FF
2020
3222
5222
5222
1222
1222
13FE
1020
1021
1021
1021
101F
ENDCHAR

STARTCHAR A176
ENCODING 41334
SWIDTH 960 0
DWIDTH 16 0
BBX 16 16 0 -4
BITMAP
0800
09FE
1108
1108
2208
3208
5208
53FF
1028
1028
1048
1048
1088
1108
1608
1038
ENDCHAR

STARTCHAR A177
ENCODING 41335
SWIDTH 960 0
DWIDTH 16 0
BBX 16 16 0 -4
BITMAP
0800
0BFF
1008
1010
2020
3060
50A4
5122
1221
1421
1020
1020
1020
1020
1020
1020
ENDCHAR

STARTCHAR A178
ENCODING 41336
SWIDTH 960 0
DWIDTH 16 0
BBX 16 16 0 -4
BITMAP
0800
0BFE
1022
1022
2022
31FE
5120
5220
13FF
1221
1021
1021
1021
102E
1020
1020
ENDCHAR

STARTCHAR A179
ENCODING 41337
SWIDTH 960 0
DWIDTH 16 0
BBX 16 16 0 -4
BITMAP
0800
09FE
1102
1102
2102
31FE
5102
5102
1102
11FE
1102
1102
1102
1202
1202
140E
ENDCHAR

STARTCHAR A17A
ENCODING 41338
SWIDTH 960 0
DWIDTH 16 0
BBX 16 16 0 -4
BITMAP
0806
09F8
1100
1100
2100
31FF
5108
5108
1108
1108
1108
1108
1108
1208
1208
1408
ENDCHAR

STARTCHAR A17B
ENCODING 41339
SWIDTH 960 0
DWIDTH 16 0
BBX 16 16 0 -4
BITMAP
0000
23FE
1080
0880
0080
00FC
0084
0084
1108
1108
21F8
2108
2008
4008
47FF
0000
ENDCHAR

STARTCHAR A17C
ENCODING 41340
SWIDTH 960 0
DWIDTH 16 0
BBX 16 16 0 -4
BITMAP
0001
3F81
0001
0009
0009
0009
7FC9
1209
1209
1209
1209
1209
2241
2281
4301
0006
ENDCHAR

STARTCHAR A17D
ENCODING 41341
SWIDTH 960 0
DWIDTH 16 0
BBX 16 16 0 -4
BITMAP
0001
3F81
2081
2889
2489
2289
2289
2089
7FE9
2089
2089
2089
2089
4081
4081
0186
ENDCHAR

STARTCHAR A17E
ENCODING 41342
SWIDTH 960 0
DWIDTH 16 0
BBX 16 16 0 -4
BITMAP
0100
0100
3FFC
0104
0204
0C08
3030
0808
0808
7F7F
0909
0909
0909
1111
1111
6666
ENDCHAR

STARTCHAR A1A1
ENCODING 41377
SWIDTH 960 0
DWIDTH 16 0
BBX 16 16 0 -4
BITMAP
0000
0000
0000
0000
0000
0000
0000
0000
0000
0000
0000
0000
0000
0000
0000
0000
ENDCHAR

STARTCHAR A1A2
ENCODING 41378
SWIDTH 960 0
DWIDTH 16 0
BBX 16 16 0 -4
BITMAP
0000
0000
0000
0000
0000
0000
0180
0180
0080
0080
0100
0000
0000
0000
0000
0000
ENDCHAR

STARTCHAR A1A3
ENCODING 41379
SWIDTH 960 0
DWIDTH 16 0
BBX 16 16 0 -4
BITMAP
0000
0000
0000
0000
0000
0000
0200
0180
00C0
00C0
0000
0000
0000
0000
0000
0000
ENDCHAR

STARTCHAR A1A4
ENCODING 41380
SWIDTH 960 0
DWIDTH 16 0
BBX 16 16 0 -4
BITMAP
0000
0000
0000
0000
0000
01C0
0220
0220
0220
01C0
0000
0000
0000
0000
0000
0000
ENDCHAR

STARTCHAR A1A5
ENCODING 41381
SWIDTH 960 0
DWIDTH 16 0
BBX 16 16 0 -4
BITMAP
0000
0000
0000
0000
0000
0000
0000
0180
0180
0000
0000
0000
0000
0000
0000
0000
ENDCHAR

STARTCHAR A1A6
ENCODING 41382
SWIDTH 960 0
DWIDTH 16 0
BBX 16 16 0 -4
BITMAP
0000
0000
0000
0000
0000
01C0
03E0
03E0
03E0
01C0
0000
0000
0000
0000
0000
0000
ENDCHAR

STARTCHAR A1A7
ENCODING 41383
SWIDTH 960 0
DWIDTH 16 0
BBX 16 16 0 -4
BITMAP
0000
0000
0000
0000
0180
0180
0000
0000
0000
0180
0180
0080
0080
0100
0000
0000
ENDCHAR

STARTCHAR A1A8
ENCODING 41384
SWIDTH 960 0
DWIDTH 16 0
BBX 16 16 0 -4
BITMAP
0000
0000
0000
0000
0180
0180
0000
0000
0000
0180
0180
0000
0000
0000
0000
0000
ENDCHAR

STARTCHAR A1A9
ENCODING 41385
SWIDTH 960 0
DWIDTH 16 0
BBX 16 16 0 -4
BITMAP
0000
07E0
0810
0810
0010
0020
00C0
0180
0180
0180
0000
0180
0180
0000
0000
0000
ENDCHAR

STARTCHAR A1AA
ENCODING 41386
SWIDTH 960 0
DWIDTH 16 0
BBX 16 16 0 -4
BITMAP
0000
0180
0180
0180
0180
0180
0180
0180
0180
0000
0000
0180
0180
0000
0000
0000
ENDCHAR

STARTCHAR A1AB
ENCODING 41387
SWIDTH 960 0
DWIDTH 16 0
BBX 16 16 0 -4
BITMAP
0000
0000
0000
0000
0180
0180
0000
0000
0000
0180
0180
0000
0000
0000
0000
0000
ENDCHAR

STARTCHAR A1AC
ENCODING 41388
SWIDTH 960 0
DWIDTH 16 0
BBX 16 16 0 -4
BITMAP
0000
0000
0000
0000
0000
0000
0000
18C6
18C6
0000
0000
0000
0000
0000
0000
0000
ENDCHAR

STARTCHAR A1AD
ENCODING 41389
SWIDTH 960 0
DWIDTH 16 0
BBX 16 16 0 -4
BITMAP
0000
0000
0000
0000
0000
0000
0000
0C18
0C18
0000
0000
0000
0000
0000
0000
0000
ENDCHAR

STARTCHAR A1AE
ENCODING 41390
SWIDTH 960 0
DWIDTH 16 0
BBX 16 16 0 -4
BITMAP
0000
0000
0000
0000
0000
0000
0000
0000
0080
0080
0080
0100
0000
0000
0000
0000
ENDCHAR

STARTCHAR A1AF
ENCODING 41391
SWIDTH 960 0
DWIDTH 16 0
BBX 16 16 0 -4
BITMAP
0000
0000
0000
0000
0000
0000
0000
0000
0000
0100
0080
0080
0000
0000
0000
0000
ENDCHAR

STARTCHAR A1B0
ENCODING 41392
SWIDTH 960 0
DWIDTH 16 0
BBX 16 16 0 -4
BITMAP
0000
0000
0000
0000
0000
0000
0000
0000
0000
0000
0080
0080
0000
0000
0000
0000
ENDCHAR

STARTCHAR A1B1
ENCODING 41393
SWIDTH 960 0
DWIDTH 16 0
BBX 16 16 0 -4
BITMAP
0000
0000
0000
0000
0000
0000
0000
0180
0180
0000
0000
0000
0000
0000
0000
0000
ENDCHAR

STARTCHAR A1B2
ENCODING 41394
SWIDTH 960 0
DWIDTH 16 0
BBX 16 16 0 -4
BITMAP
0000
0000
0000
0000
0080
0080
0000
0000
0000
0080
0080
0080
0100
0000
0000
0000
ENDCHAR

STARTCHAR A1B3
ENCODING 41395
SWIDTH 960 0
DWIDTH 16 0
BBX 16 16 0 -4
BITMAP
0000
0000
0000
0000
0080
0080
0000
0000
0000
0080
0080
0000
0000
0000
0000
0000
ENDCHAR

STARTCHAR A1B4
ENCODING 41396
SWIDTH 960 0
DWIDTH 16 0
BBX 16 16 0 -4
BITMAP
0000
0000
01C0
0220
0220
0020
0040
0080
0080
0080
0000
0080
0080
0000
0000
0000
ENDCHAR

STARTCHAR A1B5
ENCODING 41397
SWIDTH 960 0
DWIDTH 16 0
BBX 16 16 0 -4
BITMAP
0000
0000
0080
0080
0080
0080
0080
0080
0080
0080
0000
0080
0080
0000
0000
0000
ENDCHAR

STARTCHAR A1B6
ENCODING 41398
SWIDTH 960 0
DWIDTH 16 0
BBX 16 16 0 -4
BITMAP
0180
0180
0180
0180
0180
0180
0180
0180
0180
0180
0180
0180
0180
0180
0180
0180
ENDCHAR

STARTCHAR A1B7
ENCODING 41399
SWIDTH 960 0
DWIDTH 16 0
BBX 16 16 0 -4
BITMAP
0000
0000
0000
0000
0000
0000
0000
7FFF
7FFF
0000
0000
0000
0000
0000
0000
0000
ENDCHAR

STARTCHAR A1B8
ENCODING 41400
SWIDTH 960 0
DWIDTH 16 0
BBX 16 16 0 -4
BITMAP
0080
0080
0080
0080
0080
0080
0080
0080
0080
0080
0080
0080
0080
0080
0080
0080
ENDCHAR

STARTCHAR A1B9
ENCODING 41401
SWIDTH 960 0
DWIDTH 16 0
BBX 16 16 0 -4
BITMAP
0000
0000
0000
0000
0000
0000
0000
7FFF
0000
0000
0000
0000
0000
0000
0000
0000
ENDCHAR

STARTCHAR A1BA
ENCODING 41402
SWIDTH 960 0
DWIDTH 16 0
BBX 16 16 0 -4
BITMAP
6000
6000
6000
6000
6000
6000
6000
6000
6000
6000
6000
6000
6000
6000
6000
6000
ENDCHAR

STARTCHAR A1BB
ENCODING 41403
SWIDTH 960 0
DWIDTH 16 0
BBX 16 16 0 -4
BITMAP
0000
0000
0000
0000
0000
0000
0000
7E3F
0000
0000
0000
0000
0000
0000
0000
0000
ENDCHAR

STARTCHAR A1BC
ENCODING 41404
SWIDTH 960 0
DWIDTH 16 0
BBX 16 16 0 -4
BITMAP
4000
2000
1000
1000
2000
4000
2000
1000
1000
2000
4000
2000
1000
1000
2000
4000
ENDCHAR

STARTCHAR A1BD
ENCODING 41405
SWIDTH 960 0
DWIDTH 16 0
BBX 16 16 0 -4
BITMAP
0000
0000
0000
0000
0000
0000
1084
294A
4631
0000
0000
0000
0000
0000
0000
0000
ENDCHAR

STARTCHAR A1BE
ENCODING 41406
SWIDTH 960 0
DWIDTH 16 0
BBX 16 16 0 -4
BITMAP
0002
0004
0008
0010
0010
0020
0020
0020
0020
0020
0020
0010
0010
0008
0004
0002
ENDCHAR

STARTCHAR A1BF
ENCODING 41407
SWIDTH 960 0
DWIDTH 16 0
BBX 16 16 0 -4
BITMAP
4000
2000
1000
0800
0800
0400
0400
0400
0400
0400
0400
0800
0800
1000
2000
4000
ENDCHAR

STARTCHAR A1C0
ENCODING 41408
SWIDTH 960 0
DWIDTH 16 0
BBX 16 16 0 -4
BITMAP
0000
0000
0000
0000
0000
0000
0000
0000
0000
0000
03E0
0C18
1004
2002
4001
0000
ENDCHAR

STARTCHAR A1C1
ENCODING 41409
SWIDTH 960 0
DWIDTH 16 0
BBX 16 16 0 -4
BITMAP
0000
4001
2002
1004
0C18
03E0
0000
0000
0000
0000
0000
0000
0000
0000
0000
0000
ENDCHAR

STARTCHAR A1C2
ENCODING 41410
SWIDTH 960 0
DWIDTH 16 0
BBX 16 16 0 -4
BITMAP
0006
0008
0008
0008
0008
0008
0010
0020
0020
0010
0008
0008
0008
0008
0008
0006
ENDCHAR

STARTCHAR A1C3
ENCODING 41411
SWIDTH 960 0
DWIDTH 16 0
BBX 16 16 0 -4
BITMAP
6000
1000
1000
1000
1000
1000
0800
0400
0400
0800
1000
1000
1000
1000
1000
6000
ENDCHAR

STARTCHAR A1C4
ENCODING 41412
SWIDTH 960 0
DWIDTH 16 0
BBX 16 16 0 -4
BITMAP
0000
0000
0000
0000
0000
0000
0000
0000
0000
0000
0080
0140
3E3E
4001
4001
0000
ENDCHAR

STARTCHAR A1C5
ENCODING 41413
SWIDTH 960 0
DWIDTH 16 0
BBX 16 16 0 -4
BITMAP
0000
4001
4001
3E3E
0140
0080
0000
0000
0000
0000
0000
0000
0000
0000
0000
0000
ENDCHAR

STARTCHAR A1C6
ENCODING 41414
SWIDTH 960 0
DWIDTH 16 0
BBX 16 16 0 -4
BITMAP
0002
0004
0008
0008
0008
0008
0008
0008
0008
0008
0008
0008
0008
0008
0004
0002
ENDCHAR

STARTCHAR A1C7
ENCODING 41415
SWIDTH 960 0
DWIDTH 16 0
BBX 16 16 0 -4
BITMAP
4000
2000
1000
1000
1000
1000
1000
1000
1000
1000
1000
1000
1000
1000
2000
4000
ENDCHAR

STARTCHAR A1C8
ENCODING 41416
SWIDTH 960 0
DWIDTH 16 0
BBX 16 16 0 -4
BITMAP
0000
0000
0000
0000
0000
0000
0000
0000
0000
0000
0000
0000
1FFC
2002
4001
0000
ENDCHAR

STARTCHAR A1C9
ENCODING 41417
SWIDTH 960 0
DWIDTH 16 0
BBX 16 16 0 -4
BITMAP
0000
4001
2002
1FFC
0000
0000
0000
0000
0000
0000
0000
0000
0000
0000
0000
0000
ENDCHAR

STARTCHAR A1CA
ENCODING 41418
SWIDTH 960 0
DWIDTH 16 0
BBX 16 16 0 -4
BITMAP
001E
001C
0018
0018
0018
0018
0018
0018
0018
0018
0018
0018
0018
0018
001C
001E
ENDCHAR

STARTCHAR A1CB
ENCODING 41419
SWIDTH 960 0
DWIDTH 16 0
BBX 16 16 0 -4
BITMAP
7800
3800
1800
1800
1800
1800
1800
1800
1800
1800
1800
1800
1800
1800
3800
7800
ENDCHAR

STARTCHAR A1CC
ENCODING 41420
SWIDTH 960 0
DWIDTH 16 0
BBX 16 16 0 -4
BITMAP
0000
0000
0000
0000
0000
0000
0000
0000
0000
0000
0000
7FFF
7FFF
6003
4001
0000
ENDCHAR

STARTCHAR A1CD
ENCODING 41421
SWIDTH 960 0
DWIDTH 16 0
BBX 16 16 0 -4
BITMAP
0000
4001
6003
7FFF
7FFF
0000
0000
0000
0000
0000
0000
0000
0000
0000
0000
0000
ENDCHAR

STARTCHAR A1CE
ENCODING 41422
SWIDTH 960 0
DWIDTH 16 0
BBX 16 16 0 -4
BITMAP
0000
0011
0022
0044
0088
0110
0220
0440
0220
0110
0088
0044
0022
0011
0000
0000
ENDCHAR

STARTCHAR A1CF
ENCODING 41423
SWIDTH 960 0
DWIDTH 16 0
BBX 16 16 0 -4
BITMAP
0000
4400
2200
1100
0880
0440
0220
0110
0220
0440
0880
1100
2200
4400
0000
0000
ENDCHAR

STARTCHAR A1D0
ENCODING 41424
SWIDTH 960 0
DWIDTH 16 0
BBX 16 16 0 -4
BITMAP
0000
0000
0000
0000
0080
0140
0220
0410
0888
1144
2222
0410
0808
1004
2002
0000
ENDCHAR

STARTCHAR A1D1
ENCODING 41425
SWIDTH 960 0
DWIDTH 16 0
BBX 16 16 0 -4
BITMAP
0000
2002
1004
0808
0410
2222
1144
0888
0410
0220
0140
0080
0000
0000
0000
0000
ENDCHAR

STARTCHAR A1D2
ENCODING 41426
SWIDTH 960 0
DWIDTH 16 0
BBX 16 16 0 -4
BITMAP
0000
0004
0008
0010
0020
0040
0080
0100
0080
0040
0020
0010
0008
0004
0000
0000
ENDCHAR

STARTCHAR A1D3
ENCODING 41427
SWIDTH 960 0
DWIDTH 16 0
BBX 16 16 0 -4
BITMAP
0000
2000
1000
0800
0400
0200
0100
0080
0100
0200
0400
0800
1000
2000
0000
0000
ENDCHAR

STARTCHAR A1D4
ENCODING 41428
SWIDTH 960 0
DWIDTH 16 0
BBX 16 16 0 -4
BITMAP
0000
0000
0000
0000
0000
0000
0000
0080
0140
0220
0410
0808
1004
2002
0000
0000
ENDCHAR

STARTCHAR A1D5
ENCODING 41429
SWIDTH 960 0
DWIDTH 16 0
BBX 16 16 0 -4
BITMAP
0000
2002
1004
0808
0410
0220
0140
0080
0000
0000
0000
0000
0000
0000
0000
0000
ENDCHAR

STARTCHAR A1D6
ENCODING 41430
SWIDTH 960 0
DWIDTH 16 0
BBX 16 16 0 -4
BITMAP
003F
0020
0020
0020
0020
0020
0020
0020
0020
0020
0000
0000
0000
0000
0000
0000
ENDCHAR

STARTCHAR A1D7
ENCODING 41431
SWIDTH 960 0
DWIDTH 16 0
BBX 16 16 0 -4
BITMAP
0000
0000
0000
0000
0200
0200
0200
0200
0200
0200
0200
0200
0200
7E00
0000
0000
ENDCHAR

STARTCHAR A1D8
ENCODING 41432
SWIDTH 960 0
DWIDTH 16 0
BBX 16 16 0 -4
BITMAP
0000
0000
0000
0000
0000
0000
0000
0000
0000
03FF
0001
0001
0001
0001
0000
0000
ENDCHAR

STARTCHAR A1D9
ENCODING 41433
SWIDTH 960 0
DWIDTH 16 0
BBX 16 16 0 -4
BITMAP
4000
4000
4000
4000
7FE0
0000
0000
0000
0000
0000
0000
0000
0000
0000
0000
0000
ENDCHAR

STARTCHAR A1DA
ENCODING 41434
SWIDTH 960 0
DWIDTH 16 0
BBX 16 16 0 -4
BITMAP
007F
0041
005F
0050
0050
0050
0050
0050
0050
0070
0000
0000
0000
0000
0000
0000
ENDCHAR

STARTCHAR A1DB
ENCODING 41435
SWIDTH 960 0
DWIDTH 16 0
BBX 16 16 0 -4
BITMAP
0000
0000
0000
0000
0700
0500
0500
0500
0500
0500
0500
7D00
4100
7F00
0000
0000
ENDCHAR

STARTCHAR A1DC
ENCODING 41436
SWIDTH 960 0
DWIDTH 16 0
BBX 16 16 0 -4
BITMAP
0000
0000
0000
0000
0000
0000
0000
0000
03FF
0201
03FD
0005
0005
0007
0000
0000
ENDCHAR

STARTCHAR A1DD
ENCODING 41437
SWIDTH 960 0
DWIDTH 16 0
BBX 16 16 0 -4
BITMAP
7000
5000
5000
5FE0
4020
7FE0
0000
0000
0000
0000
0000
0000
0000
0000
0000
0000
ENDCHAR

STARTCHAR A1DE
ENCODING 41438
SWIDTH 960 0
DWIDTH 16 0
BBX 16 16 0 -4
BITMAP
0000
0000
0002
0004
0004
0008
0008
0008
0008
0008
0004
0004
0002
0000
0000
0000
ENDCHAR

STARTCHAR A1DF
ENCODING 41439
SWIDTH 960 0
DWIDTH 16 0
BBX 16 16 0 -4
BITMAP
0000
0000
2000
1000
1000
0800
0800
0800
0800
0800
1000
1000
2000
0000
0000
0000
ENDCHAR

STARTCHAR A1E0
ENCODING 41440
SWIDTH 960 0
DWIDTH 16 0
BBX 16 16 0 -4
BITMAP
0000
0000
0006
0008
0008
0008
0008
0010
0008
0008
0008
0008
0006
0000
0000
0000
ENDCHAR

STARTCHAR A1E1
ENCODING 41441
SWIDTH 960 0
DWIDTH 16 0
BBX 16 16 0 -4
BITMAP
0000
0000
6000
1000
1000
1000
1000
0800
1000
1000
1000
1000
6000
0000
0000
0000
ENDCHAR

STARTCHAR A1E2
ENCODING 41442
SWIDTH 960 0
DWIDTH 16 0
BBX 16 16 0 -4
BITMAP
0000
0000
0006
0008
0008
0008
0008
0008
0008
0008
0008
0008
0006
0000
0000
0000
ENDCHAR

STARTCHAR A1E3
ENCODING 41443
SWIDTH 960 0
DWIDTH 16 0
BBX 16 16 0 -4
BITMAP
0000
0000
6000
1000
1000
1000
1000
1000
1000
1000
1000
1000
6000
0000
0000
0000
ENDCHAR

STARTCHAR A1E4
ENCODING 41444
SWIDTH 960 0
DWIDTH 16 0
BBX 16 16 0 -4
BITMAP
0004
0008
000C
000C
0000
0000
0000
0000
0000
0000
0000
0000
0000
0000
0000
0000
ENDCHAR

STARTCHAR A1E5
ENCODING 41445
SWIDTH 960 0
DWIDTH 16 0
BBX 16 16 0 -4
BITMAP
3000
3000
1000
2000
0000
0000
0000
0000
0000
0000
0000
0000
0000
0000
0000
0000
ENDCHAR

STARTCHAR A1E6
ENCODING 41446
SWIDTH 960 0
DWIDTH 16 0
BBX 16 16 0 -4
BITMAP
0024
0048
006C
006C
0000
0000
0000
0000
0000
0000
0000
0000
0000
0000
0000
0000
ENDCHAR

STARTCHAR A1E7
ENCODING 41447
SWIDTH 960 0
DWIDTH 16 0
BBX 16 16 0 -4
BITMAP
3600
3600
1200
2400
0000
0000
0000
0000
0000
0000
0000
0000
0000
0000
0000
0000
ENDCHAR

STARTCHAR A1E8
ENCODING 41448
SWIDTH 960 0
DWIDTH 16 0
BBX 16 16 0 -4
BITMAP
0110
00CC
0066
0000
0000
0000
0000
0000
0000
0000
0000
0000
0000
0000
0000
0000
ENDCHAR

STARTCHAR A1E9
ENCODING 41449
SWIDTH 960 0
DWIDTH 16 0
BBX 16 16 0 -4
BITMAP
1980
3300
4400
0000
0000
0000
0000
0000
0000
0000
0000
0000
0000
0000
0000
0000
ENDCHAR

STARTCHAR A1EA
ENCODING 41450
SWIDTH 960 0
DWIDTH 16 0
BBX 16 16 0 -4
BITMAP
0010
000C
0006
0000
0000
0000
0000
0000
0000
0000
0000
0000
0000
0000
0000
0000
ENDCHAR

STARTCHAR A1EB
ENCODING 41451
SWIDTH 960 0
DWIDTH 16 0
BBX 16 16 0 -4
BITMAP
1800
3000
4000
0000
0000
0000
0000
0000
0000
0000
0000
0000
0000
0000
0000
0000
ENDCHAR

STARTCHAR A1EC
ENCODING 41452
SWIDTH 960 0
DWIDTH 16 0
BBX 16 16 0 -4
BITMAP
0000
0220
0220
023C
03E0
1E20
0220
0220
023C
03E0
1E20
0220
0220
0000
0000
0000
ENDCHAR

STARTCHAR A1ED
ENCODING 41453
SWIDTH 960 0
DWIDTH 16 0
BBX 16 16 0 -4
BITMAP
0000
03C0
0420
0420
0420
0240
0180
0240
0448
0828
0810
0828
07C4
0000
0000
0000
ENDCHAR

STARTCHAR A1EE
ENCODING 41454
SWIDTH 960 0
DWIDTH 16 0
BBX 16 16 0 -4
BITMAP
0000
0000
0080
1084
0888
0490
02A0
3FFE
02A0
0490
0888
1084
0080
0000
0000
0000
ENDCHAR

STARTCHAR A1EF
ENCODING 41455
SWIDTH 960 0
DWIDTH 16 0
BBX 16 16 0 -4
BITMAP
0000
0000
1084
09C8
0490
0220
0948
1C9C
0948
0220
0490
09C8
1084
0000
0000
0000
ENDCHAR

STARTCHAR A1F0
ENCODING 41456
SWIDTH 960 0
DWIDTH 16 0
BBX 16 16 0 -4
BITMAP
03C0
0420
0420
0400
0200
0180
0240
0420
0210
0120
00C0
0020
0010
0210
0210
01E0
ENDCHAR

STARTCHAR A1F1
ENCODING 41457
SWIDTH 960 0
DWIDTH 16 0
BBX 16 16 0 -4
BITMAP
0000
0000
0000
0000
0210
0318
0630
0C60
1080
2100
0000
0000
0000
0000
0000
0000
ENDCHAR

STARTCHAR A1F2
ENCODING 41458
SWIDTH 960 0
DWIDTH 16 0
BBX 16 16 0 -4
BITMAP
0000
01C0
0630
0808
1004
1004
2002
2002
2002
1004
1004
0808
0630
01C0
0000
0000
ENDCHAR

STARTCHAR A1F3
ENCODING 41459
SWIDTH 960 0
DWIDTH 16 0
BBX 16 16 0 -4
BITMAP
0000
01C0
07F0
0FF8
1FFC
1FFC
3FFE
3FFE
3FFE
1FFC
1FFC
0FF8
07F0
01C0
0000
0000
ENDCHAR

STARTCHAR A1F4
ENCODING 41460
SWIDTH 960 0
DWIDTH 16 0
BBX 16 16 0 -4
BITMAP
0000
0080
0080
0140
0140
0220
0220
0410
0410
0808
0808
1004
1004
3FFE
0000
0000
ENDCHAR

STARTCHAR A1F5
ENCODING 41461
SWIDTH 960 0
DWIDTH 16 0
BBX 16 16 0 -4
BITMAP
0000
0080
0080
01C0
01C0
03E0
03E0
07F0
07F0
0FF8
0FF8
1FFC
1FFC
3FFE
0000
0000
ENDCHAR

STARTCHAR A1F6
ENCODING 41462
SWIDTH 960 0
DWIDTH 16 0
BBX 16 16 0 -4
BITMAP
0000
01C0
0630
0808
1004
11C4
2222
2222
2222
11C4
1004
0808
0630
01C0
0000
0000
ENDCHAR

STARTCHAR A1F7
ENCODING 41463
SWIDTH 960 0
DWIDTH 16 0
BBX 16 16 0 -4
BITMAP
0000
0080
0140
0140
0220
3C1E
1004
0808
0410
0888
0948
1634
180C
0000
0000
0000
ENDCHAR

STARTCHAR A1F8
ENCODING 41464
SWIDTH 960 0
DWIDTH 16 0
BBX 16 16 0 -4
BITMAP
0000
0080
01C0
01C0
03E0
3FFE
1FFC
0FF8
07F0
0FF8
0F78
1E3C
180C
0000
0000
0000
ENDCHAR

STARTCHAR A1F9
ENCODING 41465
SWIDTH 960 0
DWIDTH 16 0
BBX 16 16 0 -4
BITMAP
0000
0080
0140
0220
0410
0808
1004
2002
1004
0808
0410
0220
0140
0080
0000
0000
ENDCHAR

STARTCHAR A1FA
ENCODING 41466
SWIDTH 960 0
DWIDTH 16 0
BBX 16 16 0 -4
BITMAP
0000
0080
01C0
03E0
07F0
0FF8
1FFC
3FFE
1FFC
0FF8
07F0
03E0
01C0
0080
0000
0000
ENDCHAR

STARTCHAR A1FB
ENCODING 41467
SWIDTH 960 0
DWIDTH 16 0
BBX 16 16 0 -4
BITMAP
0000
0000
1FFC
1004
1004
1004
1004
1004
1004
1004
1004
1FFC
0000
0000
0000
0000
ENDCHAR

STARTCHAR A1FC
ENCODING 41468
SWIDTH 960 0
DWIDTH 16 0
BBX 16 16 0 -4
BITMAP
0000
0000
1FFC
1FFC
1FFC
1FFC
1FFC
1FFC
1FFC
1FFC
1FFC
1FFC
0000
0000
0000
0000
ENDCHAR

STARTCHAR A1FD
ENCODING 41469
SWIDTH 960 0
DWIDTH 16 0
BBX 16 16 0 -4
BITMAP
0000
3FFE
1004
1004
0808
0808
0410
0410
0220
0220
0140
0140
0080
0080
0000
0000
ENDCHAR

STARTCHAR A1FE
ENCODING 41470
SWIDTH 960 0
DWIDTH 16 0
BBX 16 16 0 -4
BITMAP
0000
3FFE
1FFC
1FFC
0FF8
0FF8
07F0
07F0
03E0
03E0
01C0
01C0
0080
0080
0000
0000
ENDCHAR

STARTCHAR A221
ENCODING 41505
SWIDTH 960 0
DWIDTH 16 0
BBX 16 16 0 -4
BITMAP
0000
7FFF
4200
4200
47FE
4492
4892
5122
4222
4442
4884
4104
4608
4030
7FFF
0000
ENDCHAR

STARTCHAR A222
ENCODING 41506
SWIDTH 960 0
DWIDTH 16 0
BBX 16 16 0 -4
BITMAP
0000
7FFF
4080
4040
5FFE
4000
43F0
4210
4210
4210
4211
4411
581F
4000
7FFF
0000
ENDCHAR

STARTCHAR A223
ENCODING 41507
SWIDTH 960 0
DWIDTH 16 0
BBX 16 16 0 -4
BITMAP
0000
3F82
0082
0082
0082
0082
0082
3FFE
2080
2080
2080
2080
2080
2080
20FE
0000
ENDCHAR

STARTCHAR A224
ENCODING 41508
SWIDTH 960 0
DWIDTH 16 0
BBX 16 16 0 -4
BITMAP
0000
3FFF
2000
23FE
2210
2210
2410
2410
27FF
2030
2050
2090
2110
2210
2C10
4070
ENDCHAR

STARTCHAR A225
ENCODING 41509
SWIDTH 960 0
DWIDTH 16 0
BBX 16 16 0 -4
BITMAP
0000
00FE
7C02
4404
4408
4410
4410
4410
45FF
4410
7C10
4410
4010
0010
0010
0070
ENDCHAR

STARTCHAR A226
ENCODING 41510
SWIDTH 960 0
DWIDTH 16 0
BBX 16 16 0 -4
BITMAP
0000
3FFE
2102
2112
2112
3FFE
2212
2222
2622
2942
20C2
2122
2212
240A
3FFE
2002
ENDCHAR

STARTCHAR A227
ENCODING 41511
SWIDTH 960 0
DWIDTH 16 0
BBX 16 16 0 -4
BITMAP
00C0
0300
0C00
3FFF
2001
2C05
2309
2091
2061
2051
2089
2305
2C03
2001
3FFF
2001
ENDCHAR

STARTCHAR A228
ENCODING 41512
SWIDTH 960 0
DWIDTH 16 0
BBX 16 16 0 -4
BITMAP
1000
10FE
1002
1002
1002
7C02
1002
10FE
1080
1080
1080
1480
1880
6081
0081
007F
ENDCHAR

STARTCHAR A229
ENCODING 41513
SWIDTH 960 0
DWIDTH 16 0
BBX 16 16 0 -4
BITMAP
1040
1040
1080
10FF
1100
7E00
10FE
1004
1008
1010
1020
1440
1881
6101
0101
00FF
ENDCHAR

STARTCHAR A22A
ENCODING 41514
SWIDTH 960 0
DWIDTH 16 0
BBX 16 16 0 -4
BITMAP
1080
1080
1080
10FF
7D01
1201
1001
1041
1021
1011
1011
1401
1801
6001
0002
001C
ENDCHAR

STARTCHAR A22B
ENCODING 41515
SWIDTH 960 0
DWIDTH 16 0
BBX 16 16 0 -4
BITMAP
0080
0080
3FFE
00C0
0120
0210
0C0C
7003
0888
0888
0888
0888
0888
1088
1088
2008
ENDCHAR

STARTCHAR A22C
ENCODING 41516
SWIDTH 960 0
DWIDTH 16 0
BBX 16 16 0 -4
BITMAP
0020
7C20
0422
0442
05FF
0442
0442
7C84
4084
4184
4048
4028
4430
5848
6084
0303
ENDCHAR

STARTCHAR A22D
ENCODING 41517
SWIDTH 960 0
DWIDTH 16 0
BBX 16 16 0 -4
BITMAP
1000
100E
11F0
1220
7F20
1220
1220
2220
23FF
2420
6420
1420
0820
1421
1221
201F
ENDCHAR

STARTCHAR A22E
ENCODING 41518
SWIDTH 960 0
DWIDTH 16 0
BBX 16 16 0 -4
BITMAP
1000
1000
11FE
1210
7F10
1210
1210
2210
2210
2410
6410
1410
0810
1410
23FF
4000
ENDCHAR

STARTCHAR A22F
ENCODING 41519
SWIDTH 960 0
DWIDTH 16 0
BBX 16 16 0 -4
BITMAP
1010
1010
1010
1212
7F7F
1222
1222
2242
2244
24A4
6418
1408
0814
1422
1242
2181
ENDCHAR

STARTCHAR A230
ENCODING 41520
SWIDTH 960 0
DWIDTH 16 0
BBX 16 16 0 -4
BITMAP
1008
1008
1008
1249
7F49
1249
1249
2249
2249
2449
6449
1449
0849
1449
127F
2041
ENDCHAR

STARTCHAR A231
ENCODING 41521
SWIDTH 960 0
DWIDTH 16 0
BBX 16 16 0 -4
BITMAP
1000
1006
1078
1208
7F08
1208
1208
22FF
2208
2408
6408
1408
0808
1408
2208
4008
ENDCHAR

STARTCHAR A232
ENCODING 41522
SWIDTH 960 0
DWIDTH 16 0
BBX 16 16 0 -4
BITMAP
1020
1020
1022
7EFF
1222
1222
1242
12C4
1A24
1618
1214
2222
22C0
2201
4201
41FE
ENDCHAR

STARTCHAR A233
ENCODING 41523
SWIDTH 960 0
DWIDTH 16 0
BBX 16 16 0 -4
BITMAP
0000
7F7F
0101
0202
0C04
0808
0808
0B08
1C7F
6808
0808
0808
0808
0808
0808
3838
ENDCHAR

STARTCHAR A234
ENCODING 41524
SWIDTH 960 0
DWIDTH 16 0
BBX 16 16 0 -4
BITMAP
0000
3FF8
0408
0410
041E
0402
0802
1002
608C
0080
0888
0884
1082
2081
4081
0380
ENDCHAR

STARTCHAR A235
ENCODING 41525
SWIDTH 960 0
DWIDTH 16 0
BBX 16 16 0 -4
BITMAP
0800
0820
0820
087E
7F42
0882
0A02
0A22
0A12
1212
1202
1202
120C
2201
2201
41FE
ENDCHAR

STARTCHAR A236
ENCODING 41526
SWIDTH 960 0
DWIDTH 16 0
BBX 16 16 0 -4
BITMAP
0000
11FE
1048
5448
5448
5448
5448
5448
5448
5448
5448
5488
7C88
4109
0109
0207
ENDCHAR

STARTCHAR A237
ENCODING 41527
SWIDTH 960 0
DWIDTH 16 0
BBX 16 16 0 -4
BITMAP
0000
10FE
1002
5402
5402
5402
5402
54FE
5480
5480
5480
5480
7C81
4081
0081
007F
ENDCHAR

STARTCHAR A238
ENCODING 41528
SWIDTH 960 0
DWIDTH 16 0
BBX 16 16 0 -4
BITMAP
0000
11FF
1011
5411
5411
5411
5491
5451
5421
5421
5421
5441
7C41
4081
0102
020C
ENDCHAR

STARTCHAR A239
ENCODING 41529
SWIDTH 960 0
DWIDTH 16 0
BBX 16 16 0 -4
BITMAP
0008
0808
0808
4949
4949
4949
4949
4949
4949
4949
4949
4949
4949
7F49
417F
0041
ENDCHAR

STARTCHAR A23A
ENCODING 41530
SWIDTH 960 0
DWIDTH 16 0
BBX 16 16 0 -4
BITMAP
0100
0080
7FFF
1000
1000
1000
0FFC
0000
0888
0888
0888
0888
0888
0888
1088
200F
ENDCHAR

STARTCHAR A23B
ENCODING 41531
SWIDTH 960 0
DWIDTH 16 0
BBX 16 16 0 -4
BITMAP
0000
3E3E
0808
0808
0808
0808
0F7F
7808
0808
0808
0808
0808
0808
1008
1008
2008
ENDCHAR

STARTCHAR A23C
ENCODING 41532
SWIDTH 960 0
DWIDTH 16 0
BBX 16 16 0 -4
BITMAP
0100
0080
3FFF
2000
2040
2040
2040
2040
27FE
2040
2040
2040
2040
2040
2FFF
4000
ENDCHAR

STARTCHAR A23D
ENCODING 41533
SWIDTH 960 0
DWIDTH 16 0
BBX 16 16 0 -4
BITMAP
0000
3FFC
0004
0004
3FFC
2000
2001
2001
1FFF
0410
0410
7FFF
0410
0410
0810
3010
ENDCHAR

STARTCHAR A23E
ENCODING 41534
SWIDTH 960 0
DWIDTH 16 0
BBX 16 16 0 -4
BITMAP
0060
0410
0808
1004
6003
3FF8
0108
0108
3FF8
2100
4100
7FFE
0102
0102
0102
010C
ENDCHAR

STARTCHAR A23F
ENCODING 41535
SWIDTH 960 0
DWIDTH 16 0
BBX 16 16 0 -4
BITMAP
0840
1040
2040
44FF
0481
0901
0801
1021
3011
5009
1009
1001
1001
1001
1002
101C
ENDCHAR

STARTCHAR A240
ENCODING 41536
SWIDTH 960 0
DWIDTH 16 0
BBX 16 16 0 -4
BITMAP
1020
1020
1020
1020
5820
57FF
5420
5020
1020
1050
1050
1088
1088
1104
1202
1401
ENDCHAR

STARTCHAR A241
ENCODING 41537
SWIDTH 960 0
DWIDTH 16 0
BBX 16 16 0 -4
BITMAP
1040
1040
1080
10FF
5900
5400
54FC
5004
1008
1010
1020
1040
1081
1101
1101
10FF
ENDCHAR

STARTCHAR A242
ENCODING 41538
SWIDTH 960 0
DWIDTH 16 0
BBX 16 16 0 -4
BITMAP
100E
10F0
1010
1010
5810
5410
55FF
5010
1010
1010
1010
1010
1010
1010
1010
1010
ENDCHAR

STARTCHAR A243
ENCODING 41539
SWIDTH 960 0
DWIDTH 16 0
BBX 16 16 0 -4
BITMAP
1000
10FE
1010
7C10
1010
1010
1010
19FF
7010
1010
1010
1010
1010
1010
1010
3070
ENDCHAR

STARTCHAR A244
ENCODING 41540
SWIDTH 960 0
DWIDTH 16 0
BBX 16 16 0 -4
BITMAP
1000
10FE
1010
7C10
1010
1010
1010
19FF
7010
1010
1010
1010
1010
1010
1010
3010
ENDCHAR

STARTCHAR A245
ENCODING 41541
SWIDTH 960 0
DWIDTH 16 0
BBX 16 16 0 -4
BITMAP
1000
13FE
1088
7888
1088
1088
1088
1888
7088
1088
1088
1088
1108
1109
1209
3407
ENDCHAR

STARTCHAR A246
ENCODING 41542
SWIDTH 960 0
DWIDTH 16 0
BBX 16 16 0 -4
BITMAP
1010
1090
1090
7890
1097
10F9
1391
1891
7091
1092
1092
1090
1080
1081
1081
307F
ENDCHAR

STARTCHAR A247
ENCODING 41543
SWIDTH 960 0
DWIDTH 16 0
BBX 16 16 0 -4
BITMAP
1000
100C
10F0
7C10
1010
1010
1010
1BFF
7010
1010
1010
1010
1010
1010
1010
3010
ENDCHAR

STARTCHAR A248
ENCODING 41544
SWIDTH 960 0
DWIDTH 16 0
BBX 16 16 0 -4
BITMAP
1040
1040
1080
7CFF
1100
1000
10FE
1C04
7008
1010
1020
1040
1080
1101
1101
30FF
ENDCHAR

STARTCHAR A249
ENCODING 41545
SWIDTH 960 0
DWIDTH 16 0
BBX 16 16 0 -4
BITMAP
1008
1008
1008
7C08
13FF
1008
1088
1C88
7050
1050
1020
1020
1050
1088
1106
3201
ENDCHAR

STARTCHAR A24A
ENCODING 41546
SWIDTH 960 0
DWIDTH 16 0
BBX 16 16 0 -4
BITMAP
1000
13FE
1002
7D22
1112
1082
1484
1844
7048
1028
1010
1030
1048
1084
1102
3601
ENDCHAR

STARTCHAR A24B
ENCODING 41547
SWIDTH 960 0
DWIDTH 16 0
BBX 16 16 0 -4
BITMAP
1080
1080
1080
7DFF
1101
1201
1001
1C01
7041
1021
1011
1011
1001
1001
1002
301C
ENDCHAR

STARTCHAR A24C
ENCODING 41548
SWIDTH 960 0
DWIDTH 16 0
BBX 16 16 0 -4
BITMAP
1020
1020
1026
7C38
11E0
1020
1020
1C20
73FF
1020
1020
1020
1020
1021
1021
301F
ENDCHAR

STARTCHAR A24D
ENCODING 41549
SWIDTH 960 0
DWIDTH 16 0
BBX 16 16 0 -4
BITMAP
0020
0020
7F20
103F
1042
20A2
3E22
0222
0222
0214
0214
0208
0208
0214
0422
38C1
ENDCHAR

STARTCHAR A24E
ENCODING 41550
SWIDTH 960 0
DWIDTH 16 0
BBX 16 16 0 -4
BITMAP
0000
3FFC
2004
3FFC
2004
3FFC
0100
0100
3FF8
0108
0108
0208
0208
0409
0809
3007
ENDCHAR

STARTCHAR A24F
ENCODING 41551
SWIDTH 960 0
DWIDTH 16 0
BBX 16 16 0 -4
BITMAP
0100
0100
3FF8
0108
0108
0208
0409
1809
6007
1FFC
1004
1004
1FFC
1004
1004
1FFC
ENDCHAR

STARTCHAR A250
ENCODING 41552
SWIDTH 960 0
DWIDTH 16 0
BBX 16 16 0 -4
BITMAP
0800
09FF
0808
7E08
0808
0808
1808
1C08
2A08
2808
4808
4808
0808
0808
0808
0838
ENDCHAR

STARTCHAR A251
ENCODING 41553
SWIDTH 960 0
DWIDTH 16 0
BBX 16 16 0 -4
BITMAP
1040
1040
1040
7C40
11F8
1048
3048
3848
5448
5048
1048
1048
1089
1089
1109
1207
ENDCHAR

STARTCHAR A252
ENCODING 41554
SWIDTH 960 0
DWIDTH 16 0
BBX 16 16 0 -4
BITMAP
0810
0810
0810
7E10
08FF
0811
1811
1C11
2A11
2811
4821
4821
0841
0841
0882
090C
ENDCHAR

STARTCHAR A253
ENCODING 41555
SWIDTH 960 0
DWIDTH 16 0
BBX 16 16 0 -4
BITMAP
0802
0802
0842
7E42
0842
0842
1842
1C42
2A42
2842
487E
4842
0802
0802
0802
0802
ENDCHAR

STARTCHAR A254
ENCODING 41556
SWIDTH 960 0
DWIDTH 16 0
BBX 16 16 0 -4
BITMAP
1000
10F8
1088
7C88
1088
1088
3088
3888
5488
5088
1088
1088
1108
1109
1209
1407
ENDCHAR

STARTCHAR A255
ENCODING 41557
SWIDTH 960 0
DWIDTH 16 0
BBX 16 16 0 -4
BITMAP
0080
0080
7FFF
0080
0080
3FFE
2082
2082
2082
21CE
02A0
0490
0888
1084
6083
0080
ENDCHAR

STARTCHAR A256
ENCODING 41558
SWIDTH 960 0
DWIDTH 16 0
BBX 16 16 0 -4
BITMAP
0840
0840
0840
0840
7F40
0840
087E
1C40
2A40
2940
4840
4840
0841
0841
0841
083F
ENDCHAR

STARTCHAR A257
ENCODING 41559
SWIDTH 960 0
DWIDTH 16 0
BBX 16 16 0 -4
BITMAP
1000
1010
1008
7C08
1048
1048
3048
3848
5444
5084
1084
1084
1102
1102
1202
1401
ENDCHAR

STARTCHAR A258
ENCODING 41560
SWIDTH 960 0
DWIDTH 16 0
BBX 16 16 0 -4
BITMAP
0400
0FFE
0800
1FF8
2000
5FFC
0004
0444
0444
0444
0444
0444
0845
0845
1042
0002
ENDCHAR

STARTCHAR A259
ENCODING 41561
SWIDTH 960 0
DWIDTH 16 0
BBX 16 16 0 -4
BITMAP
0300
0180
0240
0420
0810
108C
6083
0088
7EB0
02C0
04A0
0490
0888
1086
2080
0380
ENDCHAR

STARTCHAR A25A
ENCODING 41562
SWIDTH 960 0
DWIDTH 16 0
BBX 16 16 0 -4
BITMAP
0020
2010
1010
07FF
0100
0100
4100
2100
0100
0100
1100
1100
2100
2100
40FF
4000
ENDCHAR

STARTCHAR A25B
ENCODING 41563
SWIDTH 960 0
DWIDTH 16 0
BBX 16 16 0 -4
BITMAP
0000
23FE
1202
0202
0202
4202
2202
03FE
1200
1200
1200
2201
2201
2201
41FF
4000
ENDCHAR

STARTCHAR A25C
ENCODING 41564
SWIDTH 960 0
DWIDTH 16 0
BBX 16 16 0 -4
BITMAP
0020
2020
1020
0020
0020
07FF
4020
2020
0050
1050
1088
2088
2104
4102
4202
0401
ENDCHAR

STARTCHAR A25D
ENCODING 41565
SWIDTH 960 0
DWIDTH 16 0
BBX 16 16 0 -4
BITMAP
0000
23FE
1002
0122
0112
0082
4084
2044
0048
1028
1010
2030
2048
4084
4102
0601
ENDCHAR

STARTCHAR A25E
ENCODING 41566
SWIDTH 960 0
DWIDTH 16 0
BBX 16 16 0 -4
BITMAP
0080
2080
1100
01FF
0200
0400
41FE
2004
0008
1010
1020
2040
2080
4101
4101
00FF
ENDCHAR

STARTCHAR A25F
ENCODING 41567
SWIDTH 960 0
DWIDTH 16 0
BBX 16 16 0 -4
BITMAP
0100
2100
1100
03FE
0202
0402
4002
2082
0042
0022
1022
1002
2002
2002
4004
4038
ENDCHAR

STARTCHAR A260
ENCODING 41568
SWIDTH 960 0
DWIDTH 16 0
BBX 16 16 0 -4
BITMAP
0000
2101
1111
0111
0111
0111
4111
2111
0111
1111
1111
2111
2211
4201
4401
0801
ENDCHAR

STARTCHAR A261
ENCODING 41569
SWIDTH 960 0
DWIDTH 16 0
BBX 16 16 0 -4
BITMAP
1000
11FF
1021
1021
1421
5821
5021
5021
1021
1021
1041
2841
2481
2081
4102
020C
ENDCHAR

STARTCHAR A262
ENCODING 41570
SWIDTH 960 0
DWIDTH 16 0
BBX 16 16 0 -4
BITMAP
0810
2810
2810
3E10
48FF
4811
0811
0811
0E11
7811
0821
0821
0841
0841
0882
090C
ENDCHAR

STARTCHAR A263
ENCODING 41571
SWIDTH 960 0
DWIDTH 16 0
BBX 16 16 0 -4
BITMAP
0000
44FE
2810
1010
2810
4810
09FF
1410
1410
2410
4410
0410
0410
0410
0410
1810
ENDCHAR

STARTCHAR A264
ENCODING 41572
SWIDTH 960 0
DWIDTH 16 0
BBX 16 16 0 -4
BITMAP
0040
4440
2880
10FF
2900
4A00
08FE
1404
1408
2410
4420
0440
0480
0481
0481
187F
ENDCHAR

STARTCHAR A265
ENCODING 41573
SWIDTH 960 0
DWIDTH 16 0
BBX 16 16 0 -4
BITMAP
0000
7DFF
1010
1010
1010
1010
7C10
1010
1010
1010
1010
1C10
7010
0010
0010
00E0
ENDCHAR

STARTCHAR A266
ENCODING 41574
SWIDTH 960 0
DWIDTH 16 0
BBX 16 16 0 -4
BITMAP
0078
0780
3800
1FFF
1041
1041
1FFF
1041
1041
1041
1FFF
1041
1041
2041
2041
4006
ENDCHAR

STARTCHAR A267
ENCODING 41575
SWIDTH 960 0
DWIDTH 16 0
BBX 16 16 0 -4
BITMAP
0820
0820
1020
7F20
4120
4120
4120
4120
7F20
4120
4120
4121
4121
4121
7F21
001F
ENDCHAR

STARTCHAR A268
ENCODING 41576
SWIDTH 960 0
DWIDTH 16 0
BBX 16 16 0 -4
BITMAP
0100
0080
7FFF
4221
4421
381E
0000
1FF8
0018
0060
0180
0600
1802
2002
2002
1FFE
ENDCHAR

STARTCHAR A269
ENCODING 41577
SWIDTH 960 0
DWIDTH 16 0
BBX 16 16 0 -4
BITMAP
0000
3FFF
2001
2001
3145
2925
2619
2209
2515
28A3
3041
2001
2001
2001
2001
200E
ENDCHAR

STARTCHAR A26A
ENCODING 41578
SWIDTH 960 0
DWIDTH 16 0
BBX 16 16 0 -4
BITMAP
0808
0808
4949
4949
4949
4949
4949
7F7F
4949
0808
0808
0808
1008
1008
2008
4008
ENDCHAR

STARTCHAR A26B
ENCODING 41579
SWIDTH 960 0
DWIDTH 16 0
BBX 16 16 0 -4
BITMAP
0808
0808
7F7F
0808
0800
0000
3FFE
0040
0040
0040
0040
0040
0040
0040
0040
03C0
ENDCHAR

STARTCHAR A26C
ENCODING 41580
SWIDTH 960 0
DWIDTH 16 0
BBX 16 16 0 -4
BITMAP
0808
0808
7F7F
0808
0808
0000
3FFE
0102
0102
0102
0102
0202
0202
0402
1804
6038
ENDCHAR

STARTCHAR A26D
ENCODING 41581
SWIDTH 960 0
DWIDTH 16 0
BBX 16 16 0 -4
BITMAP
0808
0808
7F7F
0808
0808
0200
0200
7FF0
0210
0210
0210
0410
0410
0811
1011
200F
ENDCHAR

STARTCHAR A26E
ENCODING 41582
SWIDTH 960 0
DWIDTH 16 0
BBX 16 16 0 -4
BITMAP
0808
0808
7F7F
0808
0808
0000
3FF0
0410
0420
0440
047E
0802
0802
1002
2004
4038
ENDCHAR

STARTCHAR A26F
ENCODING 41583
SWIDTH 960 0
DWIDTH 16 0
BBX 16 16 0 -4
BITMAP
0100
01FC
0100
3FFF
2101
2102
2FF8
2100
2100
20FC
2000
2000
2000
2000
4000
4000
ENDCHAR

STARTCHAR A270
ENCODING 41584
SWIDTH 960 0
DWIDTH 16 0
BBX 16 16 0 -4
BITMAP
0000
7FFF
0220
0220
0220
3FFE
2222
2222
2222
2222
23E2
2002
2002
2002
2002
0000
ENDCHAR

STARTCHAR A271
ENCODING 41585
SWIDTH 960 0
DWIDTH 16 0
BBX 16 16 0 -4
BITMAP
0400
021F
0211
7FD2
1012
1014
1014
1012
1011
1011
1011
1011
1016
1010
0F90
0010
ENDCHAR

STARTCHAR A272
ENCODING 41586
SWIDTH 960 0
DWIDTH 16 0
BBX 16 16 0 -4
BITMAP
0000
3F9F
0411
0412
0412
0414
0414
7FD2
0411
0411
0411
0411
0416
0410
0410
0410
ENDCHAR

STARTCHAR A273
ENCODING 41587
SWIDTH 960 0
DWIDTH 16 0
BBX 16 16 0 -4
BITMAP
0000
3F9F
0411
0412
0412
0414
0414
7FD2
0411
0411
0411
0411
0416
0410
0410
1C10
ENDCHAR

STARTCHAR A274
ENCODING 41588
SWIDTH 960 0
DWIDTH 16 0
BBX 16 16 0 -4
BITMAP
0000
3F9F
0411
0412
0412
0414
0414
0412
0411
0411
0411
0411
04D1
0716
7C10
0010
ENDCHAR

STARTCHAR A275
ENCODING 41589
SWIDTH 960 0
DWIDTH 16 0
BBX 16 16 0 -4
BITMAP
0000
3F9F
0091
0091
0092
0094
0094
3F92
2011
2011
2011
2011
20D9
2316
3C10
0010
ENDCHAR

STARTCHAR A276
ENCODING 41590
SWIDTH 960 0
DWIDTH 16 0
BBX 16 16 0 -4
BITMAP
0000
7DFF
4448
4848
4848
5048
5048
4848
4448
4448
4448
4448
5888
4089
4109
420E
ENDCHAR

STARTCHAR A277
ENCODING 41591
SWIDTH 960 0
DWIDTH 16 0
BBX 16 16 0 -4
BITMAP
0010
7C90
4490
4890
489E
50F2
5392
4892
4492
4494
4494
4490
5881
4081
4081
407E
ENDCHAR

STARTCHAR A278
ENCODING 41592
SWIDTH 960 0
DWIDTH 16 0
BBX 16 16 0 -4
BITMAP
0000
7DFC
4444
4844
4844
5044
5044
49F4
4444
4444
4444
4444
5844
4045
4045
4042
ENDCHAR

STARTCHAR A279
ENCODING 41593
SWIDTH 960 0
DWIDTH 16 0
BBX 16 16 0 -4
BITMAP
0040
7C40
4480
48FF
4900
5200
50FE
4804
4408
4410
4420
4440
5880
4101
4101
40FE
ENDCHAR

STARTCHAR A27A
ENCODING 41594
SWIDTH 960 0
DWIDTH 16 0
BBX 16 16 0 -4
BITMAP
0800
0830
1008
1040
2042
3042
5044
5044
1248
124A
1251
1461
1042
10C2
113E
1200
ENDCHAR

STARTCHAR A27B
ENCODING 41595
SWIDTH 960 0
DWIDTH 16 0
BBX 16 16 0 -4
BITMAP
0800
0BFE
1020
1020
2220
3122
5124
50A8
1020
17FF
1020
1020
1020
1020
1020
1020
ENDCHAR

STARTCHAR A27C
ENCODING 41596
SWIDTH 960 0
DWIDTH 16 0
BBX 16 16 0 -4
BITMAP
0800
0BFE
1100
1100
2100
31FC
5104
5104
1104
1104
11FC
1100
1100
1100
17FF
1000
ENDCHAR

STARTCHAR A27D
ENCODING 41597
SWIDTH 960 0
DWIDTH 16 0
BBX 16 16 0 -4
BITMAP
0820
0820
1020
13FE
2020
3020
5020
5020
17FF
1040
1040
1084
1102
120F
17F1
1001
ENDCHAR

STARTCHAR A27E
ENCODING 41598
SWIDTH 960 0
DWIDTH 16 0
BBX 16 16 0 -4
BITMAP
0820
0820
1020
1020
27FF
3020
5060
50B0
1128
1224
1422
1821
11FC
1020
1020
1020
ENDCHAR

STARTCHAR A2A1
ENCODING 41633
SWIDTH 960 0
DWIDTH 16 0
BBX 16 16 0 -4
BITMAP
0000
01C0
0630
0808
17F4
1084
2282
22F2
2282
1284
17F4
0808
0630
01C0
0000
0000
ENDCHAR

STARTCHAR A2A2
ENCODING 41634
SWIDTH 960 0
DWIDTH 16 0
BBX 16 16 0 -4
BITMAP
0000
0000
0E04
1108
1010
1020
1140
0EB8
0144
0244
0444
0844
1038
0000
0000
0000
ENDCHAR

STARTCHAR A2A3
ENCODING 41635
SWIDTH 960 0
DWIDTH 16 0
BBX 16 16 0 -4
BITMAP
7FFF
0000
0000
0000
0000
0000
0000
0000
0000
0000
0000
0000
0000
0000
0000
0000
ENDCHAR

STARTCHAR A2A4
ENCODING 41636
SWIDTH 960 0
DWIDTH 16 0
BBX 16 16 0 -4
BITMAP
7FFF
7FFF
0000
0000
0000
0000
0000
0000
0000
0000
0000
0000
0000
0000
0000
0000
ENDCHAR

STARTCHAR A2A5
ENCODING 41637
SWIDTH 960 0
DWIDTH 16 0
BBX 16 16 0 -4
BITMAP
0000
0000
0000
0000
0000
0000
0000
0000
0000
0000
0000
0000
0000
0000
0000
7FFF
ENDCHAR

STARTCHAR A2A6
ENCODING 41638
SWIDTH 960 0
DWIDTH 16 0
BBX 16 16 0 -4
BITMAP
0000
0000
0000
0000
0000
0000
0000
0000
0000
0000
0000
0000
0000
0000
7FFF
7FFF
ENDCHAR

STARTCHAR A2A7
ENCODING 41639
SWIDTH 960 0
DWIDTH 16 0
BBX 16 16 0 -4
BITMAP
39CE
0000
0000
0000
0000
0000
0000
0000
0000
0000
0000
0000
0000
0000
0000
0000
ENDCHAR

STARTCHAR A2A8
ENCODING 41640
SWIDTH 960 0
DWIDTH 16 0
BBX 16 16 0 -4
BITMAP
3CCF
0000
0000
0000
0000
0000
0000
0000
0000
0000
0000
0000
0000
0000
0000
0000
ENDCHAR

STARTCHAR A2A9
ENCODING 41641
SWIDTH 960 0
DWIDTH 16 0
BBX 16 16 0 -4
BITMAP
0000
0000
0000
0000
0000
0000
0000
0000
0000
0000
0000
0000
0000
0000
0000
39CE
ENDCHAR

STARTCHAR A2AA
ENCODING 41642
SWIDTH 960 0
DWIDTH 16 0
BBX 16 16 0 -4
BITMAP
0000
0000
0000
0000
0000
0000
0000
0000
0000
0000
0000
0000
0000
0000
0000
3CCF
ENDCHAR

STARTCHAR A2AB
ENCODING 41643
SWIDTH 960 0
DWIDTH 16 0
BBX 16 16 0 -4
BITMAP
1C1C
2222
41C1
0000
0000
0000
0000
0000
0000
0000
0000
0000
0000
0000
0000
0000
ENDCHAR

STARTCHAR A2AC
ENCODING 41644
SWIDTH 960 0
DWIDTH 16 0
BBX 16 16 0 -4
BITMAP
1C1C
3E3E
63E3
41C1
0000
0000
0000
0000
0000
0000
0000
0000
0000
0000
0000
0000
ENDCHAR

STARTCHAR A2AD
ENCODING 41645
SWIDTH 960 0
DWIDTH 16 0
BBX 16 16 0 -4
BITMAP
0000
0000
0000
0220
0238
03E0
0E20
0220
0238
03E0
0E20
0220
0000
0000
0000
0000
ENDCHAR

STARTCHAR A2AE
ENCODING 41646
SWIDTH 960 0
DWIDTH 16 0
BBX 16 16 0 -4
BITMAP
0000
0000
0000
0380
0440
0440
0280
0100
0280
0450
0420
03D0
0000
0000
0000
0000
ENDCHAR

STARTCHAR A2AF
ENCODING 41647
SWIDTH 960 0
DWIDTH 16 0
BBX 16 16 0 -4
BITMAP
0000
0000
0000
0080
0490
02A0
01C0
0080
01C0
02A0
0490
0080
0000
0000
0000
0000
ENDCHAR

STARTCHAR A2B0
ENCODING 41648
SWIDTH 960 0
DWIDTH 16 0
BBX 16 16 0 -4
BITMAP
0000
0000
0080
0080
0080
0080
0080
1FFC
0080
0080
0080
0080
0080
0000
0000
0000
ENDCHAR

STARTCHAR A2B1
ENCODING 41649
SWIDTH 960 0
DWIDTH 16 0
BBX 16 16 0 -4
BITMAP
0000
0000
0000
0000
0000
0000
0000
1FFC
0000
0000
0000
0000
0000
0000
0000
0000
ENDCHAR

STARTCHAR A2B2
ENCODING 41650
SWIDTH 960 0
DWIDTH 16 0
BBX 16 16 0 -4
BITMAP
0000
0000
1004
0808
0410
0220
0140
0080
0140
0220
0410
0808
1004
0000
0000
0000
ENDCHAR

STARTCHAR A2B3
ENCODING 41651
SWIDTH 960 0
DWIDTH 16 0
BBX 16 16 0 -4
BITMAP
0000
0000
0000
0180
0180
0000
0000
3FFC
0000
0000
0180
0180
0000
0000
0000
0000
ENDCHAR

STARTCHAR A2B4
ENCODING 41652
SWIDTH 960 0
DWIDTH 16 0
BBX 16 16 0 -4
BITMAP
0000
0000
0080
0080
0080
0080
1FFC
0080
0080
0080
0080
0000
1FFC
0000
0000
0000
ENDCHAR

STARTCHAR A2B5
ENCODING 41653
SWIDTH 960 0
DWIDTH 16 0
BBX 16 16 0 -4
BITMAP
0000
03FF
0200
0200
0200
0200
0200
0200
0400
2400
1400
0800
0800
0000
0000
0000
ENDCHAR

STARTCHAR A2B6
ENCODING 41654
SWIDTH 960 0
DWIDTH 16 0
BBX 16 16 0 -4
BITMAP
0000
0010
0020
0040
0080
0100
0200
0400
0200
0100
0080
0040
0020
0010
0000
0000
ENDCHAR

STARTCHAR A2B7
ENCODING 41655
SWIDTH 960 0
DWIDTH 16 0
BBX 16 16 0 -4
BITMAP
0000
0400
0200
0100
0080
0040
0020
0010
0020
0040
0080
0100
0200
0400
0000
0000
ENDCHAR

STARTCHAR A2B8
ENCODING 41656
SWIDTH 960 0
DWIDTH 16 0
BBX 16 16 0 -4
BITMAP
0000
0000
0000
0000
0000
1FFC
0000
0000
0000
1FFC
0000
0000
0000
0000
0000
0000
ENDCHAR

STARTCHAR A2B9
ENCODING 41657
SWIDTH 960 0
DWIDTH 16 0
BBX 16 16 0 -4
BITMAP
0000
0010
0060
0180
0600
1800
0600
0180
0060
0010
1FF8
0000
1FF8
0000
0000
0000
ENDCHAR

STARTCHAR A2BA
ENCODING 41658
SWIDTH 960 0
DWIDTH 16 0
BBX 16 16 0 -4
BITMAP
0000
0800
0600
0180
0060
0018
0060
0180
0600
0800
1FF8
0000
1FF8
0000
0000
0000
ENDCHAR

STARTCHAR A2BB
ENCODING 41659
SWIDTH 960 0
DWIDTH 16 0
BBX 16 16 0 -4
BITMAP
0000
0000
0020
0020
0040
1FFC
0080
0080
0100
1FFC
0200
0200
0400
0000
0000
0000
ENDCHAR

STARTCHAR A2BC
ENCODING 41660
SWIDTH 960 0
DWIDTH 16 0
BBX 16 16 0 -4
BITMAP
0000
0000
0000
0000
1E3C
2142
4081
4081
4081
2142
1E3C
0000
0000
0000
0000
0000
ENDCHAR

STARTCHAR A2BD
ENCODING 41661
SWIDTH 960 0
DWIDTH 16 0
BBX 16 16 0 -4
BITMAP
0000
0000
0C00
0C00
0000
1FFC
0000
0000
0000
1FFC
0000
0018
0018
0000
0000
0000
ENDCHAR

STARTCHAR A2BE
ENCODING 41662
SWIDTH 960 0
DWIDTH 16 0
BBX 16 16 0 -4
BITMAP
0000
0000
0000
0000
1FFC
0000
0000
1FFC
0000
0000
1FFC
0000
0000
0000
0000
0000
ENDCHAR

STARTCHAR A2BF
ENCODING 41663
SWIDTH 960 0
DWIDTH 16 0
BBX 16 16 0 -4
BITMAP
0000
0000
0000
0000
0080
0080
0080
07F0
0080
0080
0080
0000
0000
0000
0000
0000
ENDCHAR

STARTCHAR A2C0
ENCODING 41664
SWIDTH 960 0
DWIDTH 16 0
BBX 16 16 0 -4
BITMAP
0000
0000
0000
0000
0000
0000
0000
07F0
0000
0000
0000
0000
0000
0000
0000
0000
ENDCHAR

STARTCHAR A2C1
ENCODING 41665
SWIDTH 960 0
DWIDTH 16 0
BBX 16 16 0 -4
BITMAP
0000
0000
0000
0000
0040
0080
0100
0200
0100
0080
0040
0000
0000
0000
0000
0000
ENDCHAR

STARTCHAR A2C2
ENCODING 41666
SWIDTH 960 0
DWIDTH 16 0
BBX 16 16 0 -4
BITMAP
0000
0000
0000
0000
0100
0080
0040
0020
0040
0080
0100
0000
0000
0000
0000
0000
ENDCHAR

STARTCHAR A2C3
ENCODING 41667
SWIDTH 960 0
DWIDTH 16 0
BBX 16 16 0 -4
BITMAP
0000
0000
0000
0000
0000
0000
07F0
0000
07F0
0000
0000
0000
0000
0000
0000
0000
ENDCHAR

STARTCHAR A2C4
ENCODING 41668
SWIDTH 960 0
DWIDTH 16 0
BBX 16 16 0 -4
BITMAP
0000
0000
0000
0000
0000
0000
0E00
3F83
60FE
0038
0000
0000
0000
0000
0000
0000
ENDCHAR

STARTCHAR A2C5
ENCODING 41669
SWIDTH 960 0
DWIDTH 16 0
BBX 16 16 0 -4
BITMAP
0000
03E0
0410
0410
0808
0808
0808
0808
0808
0808
0808
0808
0808
0000
0000
0000
ENDCHAR

STARTCHAR A2C6
ENCODING 41670
SWIDTH 960 0
DWIDTH 16 0
BBX 16 16 0 -4
BITMAP
0000
0808
0808
0808
0808
0808
0808
0808
0808
0808
0410
0410
03E0
0000
0000
0000
ENDCHAR

STARTCHAR A2C7
ENCODING 41671
SWIDTH 960 0
DWIDTH 16 0
BBX 16 16 0 -4
BITMAP
0000
0080
0080
0080
0080
0080
0080
0080
0080
0080
0080
0080
3FFE
0000
0000
0000
ENDCHAR

STARTCHAR A2C8
ENCODING 41672
SWIDTH 960 0
DWIDTH 16 0
BBX 16 16 0 -4
BITMAP
0000
0004
0008
0010
0020
0040
0080
0100
0200
0400
0800
1000
3FFC
0000
0000
0000
ENDCHAR

STARTCHAR A2C9
ENCODING 41673
SWIDTH 960 0
DWIDTH 16 0
BBX 16 16 0 -4
BITMAP
0000
1000
1000
1000
1000
1000
1000
1000
1000
1000
1000
1000
1FFE
0000
0000
0000
ENDCHAR

STARTCHAR A2CA
ENCODING 41674
SWIDTH 960 0
DWIDTH 16 0
BBX 16 16 0 -4
BITMAP
0000
0004
000C
0014
0024
0044
0084
0104
0204
0404
0804
1004
3FFC
0000
0000
0000
ENDCHAR

STARTCHAR A2CB
ENCODING 41675
SWIDTH 960 0
DWIDTH 16 0
BBX 16 16 0 -4
BITMAP
0000
2000
6000
2000
2000
2000
271D
28A2
28A2
289C
2888
2896
7721
0021
001E
0000
ENDCHAR

STARTCHAR A2CC
ENCODING 41676
SWIDTH 960 0
DWIDTH 16 0
BBX 16 16 0 -4
BITMAP
0000
0400
0C00
0400
0400
0400
0530
04C8
0488
0488
0488
0488
0E88
0000
0000
0000
ENDCHAR

STARTCHAR A2CD
ENCODING 41677
SWIDTH 960 0
DWIDTH 16 0
BBX 16 16 0 -4
BITMAP
0070
0088
0080
0080
0080
0080
0080
0080
0080
0080
0080
0080
0080
0080
0880
0700
ENDCHAR

STARTCHAR A2CE
ENCODING 41678
SWIDTH 960 0
DWIDTH 16 0
BBX 16 16 0 -4
BITMAP
0070
0088
0080
0080
0080
03E0
0490
0490
0490
0490
03E0
0080
0080
0080
0880
0700
ENDCHAR

STARTCHAR A2CF
ENCODING 41679
SWIDTH 960 0
DWIDTH 16 0
BBX 16 16 0 -4
BITMAP
0000
0000
0000
0000
1818
1818
0000
0000
0000
0000
0180
0180
0000
0000
0000
0000
ENDCHAR

STARTCHAR A2D0
ENCODING 41680
SWIDTH 960 0
DWIDTH 16 0
BBX 16 16 0 -4
BITMAP
0000
0000
0000
0000
0180
0180
0000
0000
0000
0000
1818
1818
0000
0000
0000
0000
ENDCHAR

STARTCHAR A2D1
ENCODING 41681
SWIDTH 960 0
DWIDTH 16 0
BBX 16 16 0 -4
BITMAP
0000
03E0
0410
0410
0410
0410
03E0
0080
0080
0FF8
0080
0080
0080
0000
0000
0000
ENDCHAR

STARTCHAR A2D2
ENCODING 41682
SWIDTH 960 0
DWIDTH 16 0
BBX 16 16 0 -4
BITMAP
0000
0080
01C0
02A0
0490
0888
1084
0080
03E0
0410
0410
0410
03E0
0000
0000
0000
ENDCHAR

STARTCHAR A2D3
ENCODING 41683
SWIDTH 960 0
DWIDTH 16 0
BBX 16 16 0 -4
BITMAP
0000
01C0
06B0
0888
1084
1084
2082
3FFE
2082
1084
1084
0888
06B0
01C0
0000
0000
ENDCHAR

STARTCHAR A2D4
ENCODING 41684
SWIDTH 960 0
DWIDTH 16 0
BBX 16 16 0 -4
BITMAP
0000
01C0
0630
0808
1004
1004
21C2
21C2
21C2
1004
1004
0808
0630
01C0
0000
0000
ENDCHAR

STARTCHAR A2D5
ENCODING 41685
SWIDTH 960 0
DWIDTH 16 0
BBX 16 16 0 -4
BITMAP
0080
01C0
02A0
0490
0888
0080
0080
0080
0080
0080
0080
0080
0080
0080
0080
0080
ENDCHAR

STARTCHAR A2D6
ENCODING 41686
SWIDTH 960 0
DWIDTH 16 0
BBX 16 16 0 -4
BITMAP
0080
0080
0080
0080
0080
0080
0080
0080
0080
0080
0080
0888
0490
02A0
01C0
0080
ENDCHAR

STARTCHAR A2D7
ENCODING 41687
SWIDTH 960 0
DWIDTH 16 0
BBX 16 16 0 -4
BITMAP
0000
0000
0000
0010
0008
0004
0002
7FFF
0002
0004
0008
0010
0000
0000
0000
0000
ENDCHAR

STARTCHAR A2D8
ENCODING 41688
SWIDTH 960 0
DWIDTH 16 0
BBX 16 16 0 -4
BITMAP
0000
0000
0000
0400
0800
1000
2000
7FFF
2000
1000
0800
0400
0000
0000
0000
0000
ENDCHAR

STARTCHAR A2D9
ENCODING 41689
SWIDTH 960 0
DWIDTH 16 0
BBX 16 16 0 -4
BITMAP
0000
7F00
6000
5000
4800
4400
4200
4100
0080
0040
0020
0010
0008
0004
0002
0001
ENDCHAR

STARTCHAR A2DA
ENCODING 41690
SWIDTH 960 0
DWIDTH 16 0
BBX 16 16 0 -4
BITMAP
0000
007F
0003
0005
0009
0011
0021
0041
0080
0100
0200
0400
0800
1000
2000
4000
ENDCHAR

STARTCHAR A2DB
ENCODING 41691
SWIDTH 960 0
DWIDTH 16 0
BBX 16 16 0 -4
BITMAP
0001
0002
0004
0008
0010
0020
0040
0080
4100
4200
4400
4800
5000
6000
7F00
0000
ENDCHAR

STARTCHAR A2DC
ENCODING 41692
SWIDTH 960 0
DWIDTH 16 0
BBX 16 16 0 -4
BITMAP
4000
2000
1000
0800
0400
0200
0100
0080
0041
0021
0011
0009
0005
0003
007F
0000
ENDCHAR

STARTCHAR A2DD
ENCODING 41693
SWIDTH 960 0
DWIDTH 16 0
BBX 16 16 0 -4
BITMAP
0220
0220
0220
0220
0220
0220
0220
0220
0220
0220
0220
0220
0220
0220
0220
0220
ENDCHAR

STARTCHAR A2DE
ENCODING 41694
SWIDTH 960 0
DWIDTH 16 0
BBX 16 16 0 -4
BITMAP
0080
0080
0080
0080
0080
0080
0080
0080
0080
0080
0080
0080
0080
0080
0080
0080
ENDCHAR

STARTCHAR A2DF
ENCODING 41695
SWIDTH 960 0
DWIDTH 16 0
BBX 16 16 0 -4
BITMAP
0000
0001
0002
0004
0008
0010
0020
0040
0080
0100
0200
0400
0800
1000
2000
4000
ENDCHAR

STARTCHAR A2E0
ENCODING 41696
SWIDTH 960 0
DWIDTH 16 0
BBX 16 16 0 -4
BITMAP
0000
4000
2000
1000
0800
0400
0200
0100
0080
0040
0020
0010
0008
0004
0002
0001
ENDCHAR

STARTCHAR A2E1
ENCODING 41697
SWIDTH 960 0
DWIDTH 16 0
BBX 16 16 0 -4
BITMAP
0000
0000
0010
0010
0020
0020
0040
0040
0080
0080
0100
0100
0200
0200
0000
0000
ENDCHAR

STARTCHAR A2E2
ENCODING 41698
SWIDTH 960 0
DWIDTH 16 0
BBX 16 16 0 -4
BITMAP
0000
0000
0200
0200
0100
0100
0080
0080
0040
0040
0020
0020
0010
0010
0000
0000
ENDCHAR

STARTCHAR A2E3
ENCODING 41699
SWIDTH 960 0
DWIDTH 16 0
BBX 16 16 0 -4
BITMAP
0000
0080
03E0
0490
0490
0480
03E0
0090
0090
0490
0490
03E0
0080
0000
0000
0000
ENDCHAR

STARTCHAR A2E4
ENCODING 41700
SWIDTH 960 0
DWIDTH 16 0
BBX 16 16 0 -4
BITMAP
0000
0808
0808
0410
0410
0220
0FF8
0140
0140
0FF8
0080
0080
01C0
0000
0000
0000
ENDCHAR

STARTCHAR A2E5
ENCODING 41701
SWIDTH 960 0
DWIDTH 16 0
BBX 16 16 0 -4
BITMAP
0000
1FFC
0000
0000
0000
1FFC
0080
0080
0080
0080
0080
0080
0080
0000
0000
0000
ENDCHAR

STARTCHAR A2E6
ENCODING 41702
SWIDTH 960 0
DWIDTH 16 0
BBX 16 16 0 -4
BITMAP
0000
0020
0020
03E0
0450
0848
0840
0880
0880
0880
0908
0510
03E0
0200
0200
0000
ENDCHAR

STARTCHAR A2E7
ENCODING 41703
SWIDTH 960 0
DWIDTH 16 0
BBX 16 16 0 -4
BITMAP
0000
00E0
0110
0100
0080
0080
0FF8
0080
0080
0D00
1304
12C8
0C30
0000
0000
0000
ENDCHAR

STARTCHAR A2E8
ENCODING 41704
SWIDTH 960 0
DWIDTH 16 0
BBX 16 16 0 -4
BITMAP
0000
0000
0E04
1108
1110
1120
1140
0EB8
0144
0244
0444
0844
1038
0000
0000
0000
ENDCHAR

STARTCHAR A2E9
ENCODING 41705
SWIDTH 960 0
DWIDTH 16 0
BBX 16 16 0 -4
BITMAP
0000
01E0
0210
0408
08C8
0928
0928
0928
0928
08D0
0400
0208
01F0
0000
0000
0000
ENDCHAR

STARTCHAR A2EA
ENCODING 41706
SWIDTH 960 0
DWIDTH 16 0
BBX 16 16 0 -4
BITMAP
1800
2400
24F0
1908
0204
0204
0200
0200
0200
0200
0204
0108
00F0
0000
0000
0000
ENDCHAR

STARTCHAR A2EB
ENCODING 41707
SWIDTH 960 0
DWIDTH 16 0
BBX 16 16 0 -4
BITMAP
1800
2400
25FC
1904
0100
0100
0108
01F8
0108
0100
0100
0100
0100
0000
0000
0000
ENDCHAR

STARTCHAR A2EC
ENCODING 41708
SWIDTH 960 0
DWIDTH 16 0
BBX 16 16 0 -4
BITMAP
0000
0000
0000
0080
01C0
02A0
0280
01C0
00A0
02A0
01C0
0080
0000
0000
0000
0000
ENDCHAR

STARTCHAR A2ED
ENCODING 41709
SWIDTH 960 0
DWIDTH 16 0
BBX 16 16 0 -4
BITMAP
0000
0000
0000
0608
0910
0920
0940
06B0
0148
0248
0448
0830
0000
0000
0000
0000
ENDCHAR

STARTCHAR A2EE
ENCODING 41710
SWIDTH 960 0
DWIDTH 16 0
BBX 16 16 0 -4
BITMAP
0000
0000
0000
0000
01C0
0220
0490
0550
0550
04E0
0210
01E0
0000
0000
0000
0000
ENDCHAR

STARTCHAR A2EF
ENCODING 41711
SWIDTH 960 0
DWIDTH 16 0
BBX 16 16 0 -4
BITMAP
0000
0012
0016
0002
0002
0002
5B12
24B2
2492
2492
2492
2492
24B7
0000
0000
0000
ENDCHAR

STARTCHAR A2F0
ENCODING 41712
SWIDTH 960 0
DWIDTH 16 0
BBX 16 16 0 -4
BITMAP
0000
0000
0000
0000
0000
0000
3676
4949
4949
4949
4949
4949
4949
0000
0000
0000
ENDCHAR

STARTCHAR A2F1
ENCODING 41713
SWIDTH 960 0
DWIDTH 16 0
BBX 16 16 0 -4
BITMAP
0000
0000
0000
0000
0000
0100
1CEC
2292
4092
4092
4092
2292
1C92
0000
0000
0000
ENDCHAR

STARTCHAR A2F2
ENCODING 41714
SWIDTH 960 0
DWIDTH 16 0
BBX 16 16 0 -4
BITMAP
0000
6000
2000
2000
2000
2000
22B6
2449
2849
3849
2449
2249
2149
0000
0000
0000
ENDCHAR

STARTCHAR A2F3
ENCODING 41715
SWIDTH 960 0
DWIDTH 16 0
BBX 16 16 0 -4
BITMAP
0000
7141
2141
2263
2263
2455
2855
3449
2449
2241
2241
2141
7141
0000
0000
0000
ENDCHAR

STARTCHAR A2F4
ENCODING 41716
SWIDTH 960 0
DWIDTH 16 0
BBX 16 16 0 -4
BITMAP
0018
0024
0004
0008
0010
003C
2D80
1240
1240
1240
1240
1240
1240
0000
0000
0000
ENDCHAR

STARTCHAR A2F5
ENCODING 41717
SWIDTH 960 0
DWIDTH 16 0
BBX 16 16 0 -4
BITMAP
0000
0000
0000
0000
0000
0000
363D
4942
4942
493C
4910
492E
4941
0041
003E
0000
ENDCHAR

STARTCHAR A2F6
ENCODING 41718
SWIDTH 960 0
DWIDTH 16 0
BBX 16 16 0 -4
BITMAP
0000
6000
2000
2000
2000
2000
213D
2242
2442
383C
2410
222E
7141
0041
003E
0000
ENDCHAR

STARTCHAR A2F7
ENCODING 41719
SWIDTH 960 0
DWIDTH 16 0
BBX 16 16 0 -4
BITMAP
0000
0000
0000
0000
0000
0000
1C1C
2222
4040
4040
4040
2222
1C1C
0000
0000
0000
ENDCHAR

STARTCHAR A2F8
ENCODING 41720
SWIDTH 960 0
DWIDTH 16 0
BBX 16 16 0 -4
BITMAP
1800
2400
2400
1800
0000
0000
0000
0000
0000
0000
0000
0000
0000
0000
0000
0000
ENDCHAR

STARTCHAR A2F9
ENCODING 41721
SWIDTH 960 0
DWIDTH 16 0
BBX 16 16 0 -4
BITMAP
0800
0808
7F08
0808
0808
7F7F
4108
4108
4108
7F08
1208
1209
1209
2201
43FF
0000
ENDCHAR

STARTCHAR A2FA
ENCODING 41722
SWIDTH 960 0
DWIDTH 16 0
BBX 16 16 0 -4
BITMAP
0802
083C
7F08
0808
0808
7F08
417F
4108
4108
7F08
1208
1208
1209
2201
43FF
0000
ENDCHAR

STARTCHAR A2FB
ENCODING 41723
SWIDTH 960 0
DWIDTH 16 0
BBX 16 16 0 -4
BITMAP
0804
0878
7F10
0810
087E
7F10
4110
417E
4110
7F10
1211
121E
1200
2201
43FF
0000
ENDCHAR

STARTCHAR A2FC
ENCODING 41724
SWIDTH 960 0
DWIDTH 16 0
BBX 16 16 0 -4
BITMAP
0800
0808
7F24
0842
0881
7F00
417E
4112
4112
7F12
1212
1222
1244
2201
43FF
0000
ENDCHAR

STARTCHAR A2FD
ENCODING 41725
SWIDTH 960 0
DWIDTH 16 0
BBX 16 16 0 -4
BITMAP
0800
087E
7F10
0810
087E
7F42
4142
417E
4142
7F42
127E
1240
1201
2201
43FF
0000
ENDCHAR

STARTCHAR A2FE
ENCODING 41726
SWIDTH 960 0
DWIDTH 16 0
BBX 16 16 0 -4
BITMAP
1000
11FF
7D00
117F
1149
7D7F
4549
457F
4508
7D3E
2908
297F
2A00
2801
4FFF
0000
ENDCHAR

STARTCHAR A321
ENCODING 41761
SWIDTH 960 0
DWIDTH 16 0
BBX 16 16 0 -4
BITMAP
0800
0BFE
1080
1080
20F8
3088
5088
50C8
10A8
10A8
1088
1109
1109
1139
11C5
1603
ENDCHAR

STARTCHAR A322
ENCODING 41762
SWIDTH 960 0
DWIDTH 16 0
BBX 16 16 0 -4
BITMAP
0800
0BFF
1008
1010
2020
3068
50A4
5122
1621
1020
1020
1020
1020
1000
17FF
1000
ENDCHAR

STARTCHAR A323
ENCODING 41763
SWIDTH 960 0
DWIDTH 16 0
BBX 16 16 0 -4
BITMAP
0840
0840
107E
1040
2040
3040
57FF
5040
1040
1070
1048
1044
1042
1040
1040
1040
ENDCHAR

STARTCHAR A324
ENCODING 41764
SWIDTH 960 0
DWIDTH 16 0
BBX 16 16 0 -4
BITMAP
0820
0820
1020
11FC
2124
3124
5124
5124
17FF
1040
1048
1084
1082
1102
1201
1401
ENDCHAR

STARTCHAR A325
ENCODING 41765
SWIDTH 960 0
DWIDTH 16 0
BBX 16 16 0 -4
BITMAP
0880
0880
10FC
1104
2108
3288
5450
5020
1050
1088
1164
1613
1000
1060
1010
1008
ENDCHAR

STARTCHAR A326
ENCODING 41766
SWIDTH 960 0
DWIDTH 16 0
BBX 16 16 0 -4
BITMAP
0840
0840
1080
1080
2104
3102
53FF
5001
1000
11FE
1102
1102
1102
1102
11FE
1102
ENDCHAR

STARTCHAR A327
ENCODING 41767
SWIDTH 960 0
DWIDTH 16 0
BBX 16 16 0 -4
BITMAP
0040
00C0
0120
0210
0408
0804
17FA
2001
4000
1FFC
0080
0490
0888
1084
2082
0080
ENDCHAR

STARTCHAR A328
ENCODING 41768
SWIDTH 960 0
DWIDTH 16 0
BBX 16 16 0 -4
BITMAP
0840
0820
1020
17FF
2020
3040
5084
5104
1088
1050
1020
1044
1082
110E
17F1
1001
ENDCHAR

STARTCHAR A329
ENCODING 41769
SWIDTH 960 0
DWIDTH 16 0
BBX 16 16 0 -4
BITMAP
0824
0924
1124
1124
2124
37FF
5124
5124
1124
1124
113C
1124
1100
1100
11FF
1000
ENDCHAR

STARTCHAR A32A
ENCODING 41770
SWIDTH 960 0
DWIDTH 16 0
BBX 16 16 0 -4
BITMAP
0800
09FE
1102
1102
2102
3102
5102
5102
1102
11FE
1102
1000
1088
1104
1202
1401
ENDCHAR

STARTCHAR A32B
ENCODING 41771
SWIDTH 960 0
DWIDTH 16 0
BBX 16 16 0 -4
BITMAP
0810
0820
1050
1088
2104
3202
5421
5020
1020
1222
1222
1222
1222
1222
13FE
1202
ENDCHAR

STARTCHAR A32C
ENCODING 41772
SWIDTH 960 0
DWIDTH 16 0
BBX 16 16 0 -4
BITMAP
0000
3FFE
2222
2222
2222
2422
2422
281E
3002
27F2
2412
2412
27F2
2412
2002
200E
ENDCHAR

STARTCHAR A32D
ENCODING 41773
SWIDTH 960 0
DWIDTH 16 0
BBX 16 16 0 -4
BITMAP
0080
2088
1084
0080
07FF
0080
0084
1144
1144
1144
2228
2210
2428
4844
5082
0301
ENDCHAR

STARTCHAR A32E
ENCODING 41774
SWIDTH 960 0
DWIDTH 16 0
BBX 16 16 0 -4
BITMAP
0901
0901
0901
3FE5
0925
0925
3FE5
2925
4905
7FF5
4915
0915
0915
1161
1101
2106
ENDCHAR

STARTCHAR A32F
ENCODING 41775
SWIDTH 960 0
DWIDTH 16 0
BBX 16 16 0 -4
BITMAP
0001
1F81
1089
1089
1089
1F89
1089
1089
1089
1F89
1089
1089
1089
13E1
7C01
0006
ENDCHAR

STARTCHAR A330
ENCODING 41776
SWIDTH 960 0
DWIDTH 16 0
BBX 16 16 0 -4
BITMAP
0001
3FC1
2049
2049
2049
3FC9
2209
2209
2209
3FE9
2209
2209
2109
2101
2CA1
3066
ENDCHAR

STARTCHAR A331
ENCODING 41777
SWIDTH 960 0
DWIDTH 16 0
BBX 16 16 0 -4
BITMAP
0008
7F88
0888
0888
08BF
1089
1089
2309
4009
3F89
2089
2089
2089
2091
3F91
20A6
ENDCHAR

STARTCHAR A332
ENCODING 41778
SWIDTH 960 0
DWIDTH 16 0
BBX 16 16 0 -4
BITMAP
2408
2408
2408
3F88
243F
4409
0409
0409
7FC9
0409
0409
0A09
0A11
1111
2121
4046
ENDCHAR

STARTCHAR A333
ENCODING 41779
SWIDTH 960 0
DWIDTH 16 0
BBX 16 16 0 -4
BITMAP
1000
1000
1FFF
2001
4001
0FF9
0081
0891
0491
04A1
0081
1FFD
0081
0081
0082
009C
ENDCHAR

STARTCHAR A334
ENCODING 41780
SWIDTH 960 0
DWIDTH 16 0
BBX 16 16 0 -4
BITMAP
0080
0080
00FC
0080
0080
3FFE
2002
2002
3FF2
2012
2012
3FF2
2012
2002
3FFE
2002
ENDCHAR

STARTCHAR A335
ENCODING 41781
SWIDTH 960 0
DWIDTH 16 0
BBX 16 16 0 -4
BITMAP
0000
7F9F
0891
0891
0891
1091
1091
2311
4011
3F91
2091
2091
2096
2090
3F90
2090
ENDCHAR

STARTCHAR A336
ENCODING 41782
SWIDTH 960 0
DWIDTH 16 0
BBX 16 16 0 -4
BITMAP
0000
3FFF
2000
203C
27C0
2420
2420
27FE
2420
2420
2410
2490
2509
2607
41F0
0000
ENDCHAR

STARTCHAR A337
ENCODING 41783
SWIDTH 960 0
DWIDTH 16 0
BBX 16 16 0 -4
BITMAP
0000
3FFF
2100
2100
2200
23FF
2480
2880
20FC
2080
2080
20FE
2080
2080
4080
0080
ENDCHAR

STARTCHAR A338
ENCODING 41784
SWIDTH 960 0
DWIDTH 16 0
BBX 16 16 0 -4
BITMAP
0020
0020
7820
4BFF
4840
4840
4890
4890
4910
4920
7A24
4242
0442
088F
11F1
0001
ENDCHAR

STARTCHAR A339
ENCODING 41785
SWIDTH 960 0
DWIDTH 16 0
BBX 16 16 0 -4
BITMAP
0020
0020
7820
49FC
4824
4824
4824
4824
4BFF
4820
7820
4840
4048
0084
0102
0601
ENDCHAR

STARTCHAR A33A
ENCODING 41786
SWIDTH 960 0
DWIDTH 16 0
BBX 16 16 0 -4
BITMAP
0050
0050
7890
4890
4910
4990
4A9F
4C90
4890
4890
7890
4890
4090
0091
0091
008F
ENDCHAR

STARTCHAR A33B
ENCODING 41787
SWIDTH 960 0
DWIDTH 16 0
BBX 16 16 0 -4
BITMAP
0020
0020
7820
4820
4820
4BFE
4820
4820
4850
4850
7848
4888
4084
0144
0222
0401
ENDCHAR

STARTCHAR A33C
ENCODING 41788
SWIDTH 960 0
DWIDTH 16 0
BBX 16 16 0 -4
BITMAP
0040
0020
7820
4BFF
4804
4884
4884
4884
4888
4848
7850
4820
4050
0088
0104
0603
ENDCHAR

STARTCHAR A33D
ENCODING 41789
SWIDTH 960 0
DWIDTH 16 0
BBX 16 16 0 -4
BITMAP
0020
0020
7822
4A22
4924
4928
48A0
4820
4850
4850
7848
4888
4084
0104
0202
0C01
ENDCHAR

STARTCHAR A33E
ENCODING 41790
SWIDTH 960 0
DWIDTH 16 0
BBX 16 16 0 -4
BITMAP
0000
01FC
7844
4844
4844
4844
4844
4BFF
4844
4844
7844
4884
4084
0084
07FF
0000
ENDCHAR

STARTCHAR A33F
ENCODING 41791
SWIDTH 960 0
DWIDTH 16 0
BBX 16 16 0 -4
BITMAP
0000
03FF
7808
4808
4810
4820
4868
48A4
4922
4A21
7820
4820
4020
0020
0020
0020
ENDCHAR

STARTCHAR A340
ENCODING 41792
SWIDTH 960 0
DWIDTH 16 0
BBX 16 16 0 -4
BITMAP
0080
0080
78FE
4910
4A10
4810
4810
4810
4BFF
4810
7810
4810
4010
0010
0010
0010
ENDCHAR

STARTCHAR A341
ENCODING 41793
SWIDTH 960 0
DWIDTH 16 0
BBX 16 16 0 -4
BITMAP
0010
0090
7890
49FE
4910
4A10
4810
4810
4BFF
4810
7810
4810
4010
0010
0010
0010
ENDCHAR

STARTCHAR A342
ENCODING 41794
SWIDTH 960 0
DWIDTH 16 0
BBX 16 16 0 -4
BITMAP
0004
0074
7BC4
4844
4844
4844
4844
4BFF
4844
4844
7844
4844
4084
0084
0104
0204
ENDCHAR

STARTCHAR A343
ENCODING 41795
SWIDTH 960 0
DWIDTH 16 0
BBX 16 16 0 -4
BITMAP
0080
0080
7880
49FE
4902
4A02
49FA
4802
4802
4802
79FA
4802
4002
0002
0004
0018
ENDCHAR

STARTCHAR A344
ENCODING 41796
SWIDTH 960 0
DWIDTH 16 0
BBX 16 16 0 -4
BITMAP
0020
0020
7BFE
4820
4820
4924
4924
4924
4924
4924
79FC
4820
4020
0021
0021
001F
ENDCHAR

STARTCHAR A345
ENCODING 41797
SWIDTH 960 0
DWIDTH 16 0
BBX 16 16 0 -4
BITMAP
0010
0020
7850
4888
4904
4A02
4C89
4888
4888
4888
7888
4888
4088
0108
0108
0208
ENDCHAR

STARTCHAR A346
ENCODING 41798
SWIDTH 960 0
DWIDTH 16 0
BBX 16 16 0 -4
BITMAP
0080
0084
7E88
02D0
04A0
0890
108C
6083
0380
0000
1FFC
1004
1004
1004
1FFC
1004
ENDCHAR

STARTCHAR A347
ENCODING 41799
SWIDTH 960 0
DWIDTH 16 0
BBX 16 16 0 -4
BITMAP
0000
3FFF
2241
2241
2441
2441
2C41
347D
2441
2441
2445
2445
243D
2001
3FFF
2001
ENDCHAR

STARTCHAR A348
ENCODING 41800
SWIDTH 960 0
DWIDTH 16 0
BBX 16 16 0 -4
BITMAP
0000
3FFE
2222
2222
2222
2222
2422
281E
3002
27F2
2412
2412
2412
2412
3FFE
2002
ENDCHAR

STARTCHAR A349
ENCODING 41801
SWIDTH 960 0
DWIDTH 16 0
BBX 16 16 0 -4
BITMAP
0000
3FFE
2102
2082
2FFA
2002
23E2
2222
2222
2222
222A
242A
283A
2002
3FFE
2002
ENDCHAR

STARTCHAR A34A
ENCODING 41802
SWIDTH 960 0
DWIDTH 16 0
BBX 16 16 0 -4
BITMAP
1000
101E
11F0
1110
1110
7D10
1110
11FE
1110
1110
1108
1508
1909
6125
0145
0183
ENDCHAR

STARTCHAR A34B
ENCODING 41803
SWIDTH 960 0
DWIDTH 16 0
BBX 16 16 0 -4
BITMAP
1010
1030
1048
1084
1102
7C01
10FC
1000
1000
11FE
1002
1404
1804
6008
0010
0020
ENDCHAR

STARTCHAR A34C
ENCODING 41804
SWIDTH 960 0
DWIDTH 16 0
BBX 16 16 0 -4
BITMAP
0060
0210
0408
1804
6FFB
0108
0108
0208
0408
18B0
0080
1FFC
0080
0080
7FFF
0000
ENDCHAR

STARTCHAR A34D
ENCODING 41805
SWIDTH 960 0
DWIDTH 16 0
BBX 16 16 0 -4
BITMAP
1020
1020
13FE
1020
1020
7D24
1124
1124
1124
1124
11FC
1524
1820
6021
0021
001F
ENDCHAR

STARTCHAR A34E
ENCODING 41806
SWIDTH 960 0
DWIDTH 16 0
BBX 16 16 0 -4
BITMAP
1020
1010
1048
1048
1084
7C84
1102
12FD
1044
1044
1044
1444
1884
6084
0104
0618
ENDCHAR

STARTCHAR A34F
ENCODING 41807
SWIDTH 960 0
DWIDTH 16 0
BBX 16 16 0 -4
BITMAP
2040
2040
2040
3F7E
2040
2040
2341
2C41
303F
0080
0080
1FFC
0080
0080
7FFF
0000
ENDCHAR

STARTCHAR A350
ENCODING 41808
SWIDTH 960 0
DWIDTH 16 0
BBX 16 16 0 -4
BITMAP
0800
0FFC
1408
2210
0120
00C0
0320
0C98
7087
0FF8
0080
1FFC
0080
3FFE
0080
0080
ENDCHAR

STARTCHAR A351
ENCODING 41809
SWIDTH 960 0
DWIDTH 16 0
BBX 16 16 0 -4
BITMAP
0000
3FFE
0040
0080
0190
0688
3884
0084
0000
0080
0080
7FFF
0100
0208
0C04
7002
ENDCHAR

STARTCHAR A352
ENCODING 41810
SWIDTH 960 0
DWIDTH 16 0
BBX 16 16 0 -4
BITMAP
1010
1010
101E
12F0
7F10
1210
1210
22FE
2210
2410
6410
15FF
0810
1410
2210
4010
ENDCHAR

STARTCHAR A353
ENCODING 41811
SWIDTH 960 0
DWIDTH 16 0
BBX 16 16 0 -4
BITMAP
1000
107E
1000
1200
7F00
1200
12FF
2210
2210
2420
6420
1444
0842
148E
12F1
2001
ENDCHAR

STARTCHAR A354
ENCODING 41812
SWIDTH 960 0
DWIDTH 16 0
BBX 16 16 0 -4
BITMAP
1020
1010
1010
12FF
7F91
1291
12A9
22A9
22C5
24C5
6483
1481
0881
1481
1281
2087
ENDCHAR

STARTCHAR A355
ENCODING 41813
SWIDTH 960 0
DWIDTH 16 0
BBX 16 16 0 -4
BITMAP
1008
1010
1028
1244
7E82
1201
127C
2200
2200
24FE
6402
1402
0804
1404
2208
4010
ENDCHAR

STARTCHAR A356
ENCODING 41814
SWIDTH 960 0
DWIDTH 16 0
BBX 16 16 0 -4
BITMAP
1008
1010
1028
1244
7E82
1201
1244
2244
2244
2444
6444
1444
0844
1484
2284
4104
ENDCHAR

STARTCHAR A357
ENCODING 41815
SWIDTH 960 0
DWIDTH 16 0
BBX 16 16 0 -4
BITMAP
1010
1008
1008
1224
7F24
1242
1281
237E
2212
2412
6412
1422
0822
1442
2282
410C
ENDCHAR

STARTCHAR A358
ENCODING 41816
SWIDTH 960 0
DWIDTH 16 0
BBX 16 16 0 -4
BITMAP
1000
1010
1008
1244
7F44
1282
1301
2210
2210
2420
6420
1444
0842
148F
23F1
4000
ENDCHAR

STARTCHAR A359
ENCODING 41817
SWIDTH 960 0
DWIDTH 16 0
BBX 16 16 0 -4
BITMAP
1020
1010
1010
12FF
7F02
1242
1242
2242
2244
2424
6428
1410
0828
1444
1282
2101
ENDCHAR

STARTCHAR A35A
ENCODING 41818
SWIDTH 960 0
DWIDTH 16 0
BBX 16 16 0 -4
BITMAP
1000
10FE
1000
1200
7F00
1200
13FF
2248
2248
2448
6448
1448
0888
1489
1109
220F
ENDCHAR

STARTCHAR A35B
ENCODING 41819
SWIDTH 960 0
DWIDTH 16 0
BBX 16 16 0 -4
BITMAP
1000
100E
1070
1240
7F40
1240
127F
2244
2244
2444
6444
1444
0844
1484
2284
4104
ENDCHAR

STARTCHAR A35C
ENCODING 41820
SWIDTH 960 0
DWIDTH 16 0
BBX 16 16 0 -4
BITMAP
0100
0080
7FFF
4001
4001
00FC
3F80
0080
0080
7FFF
0080
0140
0220
0410
080C
3003
ENDCHAR

STARTCHAR A35D
ENCODING 41821
SWIDTH 960 0
DWIDTH 16 0
BBX 16 16 0 -4
BITMAP
0100
0080
7FFF
4001
40FA
1F80
0080
1FFC
0080
0080
7FFF
0080
0080
0081
0081
007F
ENDCHAR

STARTCHAR A35E
ENCODING 41822
SWIDTH 960 0
DWIDTH 16 0
BBX 16 16 0 -4
BITMAP
0804
0A04
0908
0810
7FA2
0842
0A04
0A08
0A11
1261
1202
1204
1218
2261
2201
41FE
ENDCHAR

STARTCHAR A35F
ENCODING 41823
SWIDTH 960 0
DWIDTH 16 0
BBX 16 16 0 -4
BITMAP
1000
1000
11FF
1010
7E10
1010
1410
14FE
1410
1410
2410
2410
25FF
2400
4401
43FE
ENDCHAR

STARTCHAR A360
ENCODING 41824
SWIDTH 960 0
DWIDTH 16 0
BBX 16 16 0 -4
BITMAP
0000
11FF
1044
5444
5444
5444
57FF
5444
5444
5444
5444
7C44
4444
0084
0084
0104
ENDCHAR

STARTCHAR A361
ENCODING 41825
SWIDTH 960 0
DWIDTH 16 0
BBX 16 16 0 -4
BITMAP
0000
10FE
1000
5400
5400
5400
57FF
5448
5448
5448
5448
7C48
4488
0089
0109
020F
ENDCHAR

STARTCHAR A362
ENCODING 41826
SWIDTH 960 0
DWIDTH 16 0
BBX 16 16 0 -4
BITMAP
0000
10FF
1004
5444
5444
5484
5484
54FF
5414
5414
5424
7C24
4444
0084
0304
001C
ENDCHAR

STARTCHAR A363
ENCODING 41827
SWIDTH 960 0
DWIDTH 16 0
BBX 16 16 0 -4
BITMAP
0000
11FC
1084
5484
5488
5488
54FF
54A1
54A1
54A2
5492
7C94
4108
0114
0222
00C1
ENDCHAR

STARTCHAR A364
ENCODING 41828
SWIDTH 960 0
DWIDTH 16 0
BBX 16 16 0 -4
BITMAP
0040
1040
1080
54FF
54A9
5529
5629
5449
5449
5491
5511
7E21
4021
0041
0081
0006
ENDCHAR

STARTCHAR A365
ENCODING 41829
SWIDTH 960 0
DWIDTH 16 0
BBX 16 16 0 -4
BITMAP
0010
1020
1050
5488
5504
5602
54F9
5400
5400
55FE
5402
7C04
4404
0008
0010
0020
ENDCHAR

STARTCHAR A366
ENCODING 41830
SWIDTH 960 0
DWIDTH 16 0
BBX 16 16 0 -4
BITMAP
0000
3FFC
2084
2084
3FFC
2000
2002
2002
3FFE
0080
0080
2082
2082
2082
3FFE
2002
ENDCHAR

STARTCHAR A367
ENCODING 41831
SWIDTH 960 0
DWIDTH 16 0
BBX 16 16 0 -4
BITMAP
0000
101F
11F0
5410
5410
5410
5410
55FF
5410
5428
5428
7C44
4444
0082
0102
0601
ENDCHAR

STARTCHAR A368
ENCODING 41832
SWIDTH 960 0
DWIDTH 16 0
BBX 16 16 0 -4
BITMAP
0000
100E
10F0
5480
5480
5480
54FF
5484
5484
5484
5484
7C84
4484
0104
0104
0204
ENDCHAR

STARTCHAR A369
ENCODING 41833
SWIDTH 960 0
DWIDTH 16 0
BBX 16 16 0 -4
BITMAP
0080
0080
2082
2082
3FFE
2082
0140
0220
0410
180C
6413
0410
0410
0410
0810
3010
ENDCHAR

STARTCHAR A36A
ENCODING 41834
SWIDTH 960 0
DWIDTH 16 0
BBX 16 16 0 -4
BITMAP
0000
3FFF
0000
0842
1084
2108
1084
0842
0842
0000
3FFE
0080
0080
0080
7FFF
0000
ENDCHAR

STARTCHAR A36B
ENCODING 41835
SWIDTH 960 0
DWIDTH 16 0
BBX 16 16 0 -4
BITMAP
1000
10FE
1092
7E92
5292
5292
5292
52FE
5282
5280
5280
5681
1081
1081
107F
1000
ENDCHAR

STARTCHAR A36C
ENCODING 41836
SWIDTH 960 0
DWIDTH 16 0
BBX 16 16 0 -4
BITMAP
1020
1020
1020
7C20
55FE
5522
5522
5524
5450
5450
5C50
1090
1091
1111
1211
140F
ENDCHAR

STARTCHAR A36D
ENCODING 41837
SWIDTH 960 0
DWIDTH 16 0
BBX 16 16 0 -4
BITMAP
0080
0040
3FFF
2040
2040
2FFE
2040
2040
2FFE
2204
2108
2090
2060
4090
430C
1C03
ENDCHAR

STARTCHAR A36E
ENCODING 41838
SWIDTH 960 0
DWIDTH 16 0
BBX 16 16 0 -4
BITMAP
0080
0040
3FFF
2040
2040
2FFE
2040
2444
2444
2444
27FC
2444
2041
4041
403F
0000
ENDCHAR

STARTCHAR A36F
ENCODING 41839
SWIDTH 960 0
DWIDTH 16 0
BBX 16 16 0 -4
BITMAP
0100
0080
3FFF
2000
23FE
2210
2210
2410
2410
27FF
2050
2090
2110
4610
5810
0070
ENDCHAR

STARTCHAR A370
ENCODING 41840
SWIDTH 960 0
DWIDTH 16 0
BBX 16 16 0 -4
BITMAP
0100
0080
3FFF
2040
20A0
2110
2208
25F4
2802
2000
23F8
2008
2008
4010
4020
0040
ENDCHAR

STARTCHAR A371
ENCODING 41841
SWIDTH 960 0
DWIDTH 16 0
BBX 16 16 0 -4
BITMAP
0100
0080
3FFF
2000
203C
23C0
2200
2200
23FE
2210
2210
2210
2410
4410
4810
1010
ENDCHAR

STARTCHAR A372
ENCODING 41842
SWIDTH 960 0
DWIDTH 16 0
BBX 16 16 0 -4
BITMAP
0060
0210
0408
1804
6FFB
0108
0208
0408
1830
0410
0410
7FFF
0410
0410
0810
3010
ENDCHAR

STARTCHAR A373
ENCODING 41843
SWIDTH 960 0
DWIDTH 16 0
BBX 16 16 0 -4
BITMAP
0000
7CFE
0492
0492
0492
3C92
2092
2092
40FE
7C80
0480
0480
0480
0481
0481
387F
ENDCHAR

STARTCHAR A374
ENCODING 41844
SWIDTH 960 0
DWIDTH 16 0
BBX 16 16 0 -4
BITMAP
0800
1010
2008
4448
0444
0884
0882
1111
3010
5020
1020
1044
1042
108F
11F1
1001
ENDCHAR

STARTCHAR A375
ENCODING 41845
SWIDTH 960 0
DWIDTH 16 0
BBX 16 16 0 -4
BITMAP
0800
11FC
2084
4484
0488
0888
08FF
1081
3081
50A2
1092
1094
1108
1114
1222
10C1
ENDCHAR

STARTCHAR A376
ENCODING 41846
SWIDTH 960 0
DWIDTH 16 0
BBX 16 16 0 -4
BITMAP
0014
0012
0010
7FFF
0010
0210
0110
0910
0810
2848
2828
4828
4885
0785
0003
0000
ENDCHAR

STARTCHAR A377
ENCODING 41847
SWIDTH 960 0
DWIDTH 16 0
BBX 16 16 0 -4
BITMAP
0000
7FFF
0080
00E0
0090
0088
0080
0080
0080
0400
0480
1444
1442
1409
2409
23F8
ENDCHAR

STARTCHAR A378
ENCODING 41848
SWIDTH 960 0
DWIDTH 16 0
BBX 16 16 0 -4
BITMAP
0080
0080
0080
00FC
0080
0080
0080
7FFF
0000
0400
0480
1444
1442
1409
2409
23F8
ENDCHAR

STARTCHAR A379
ENCODING 41849
SWIDTH 960 0
DWIDTH 16 0
BBX 16 16 0 -4
BITMAP
1020
1010
1010
5800
55FF
5410
5410
5418
5014
1012
1010
1010
1010
1010
1010
1010
ENDCHAR

STARTCHAR A37A
ENCODING 41850
SWIDTH 960 0
DWIDTH 16 0
BBX 16 16 0 -4
BITMAP
1000
10FC
1000
5800
5400
5400
57FF
5448
5048
1048
1048
1048
1088
1089
1109
120F
ENDCHAR

STARTCHAR A37B
ENCODING 41851
SWIDTH 960 0
DWIDTH 16 0
BBX 16 16 0 -4
BITMAP
1010
1010
11FF
5810
5410
5410
54FE
5402
5042
1044
1024
1028
1010
1028
10C4
1303
ENDCHAR

STARTCHAR A37C
ENCODING 41852
SWIDTH 960 0
DWIDTH 16 0
BBX 16 16 0 -4
BITMAP
1020
1020
13FE
5820
5420
5524
5524
5524
5124
1124
11FC
1124
1020
1021
1021
101F
ENDCHAR

STARTCHAR A37D
ENCODING 41853
SWIDTH 960 0
DWIDTH 16 0
BBX 16 16 0 -4
BITMAP
1010
1010
1010
59FF
5511
5511
5511
5511
5111
11FF
1111
1010
1010
1010
1010
1010
ENDCHAR

STARTCHAR A37E
ENCODING 41854
SWIDTH 960 0
DWIDTH 16 0
BBX 16 16 0 -4
BITMAP
1040
1040
107E
5890
5490
5510
5410
5410
51FF
1010
1010
1010
1010
1010
1010
1010
ENDCHAR

STARTCHAR A3A1
ENCODING 41889
SWIDTH 960 0
DWIDTH 16 0
BBX 16 16 0 -4
BITMAP
0800
0800
7FBE
08A2
08A2
113E
61C0
0220
0FF8
1004
2FFB
4948
0948
0FF8
0948
0958
ENDCHAR

STARTCHAR A3A2
ENCODING 41890
SWIDTH 960 0
DWIDTH 16 0
BBX 16 16 0 -4
BITMAP
0000
7F82
103C
1008
1008
1F08
1108
117F
2108
2908
2508
2108
2509
3901
61FF
0000
ENDCHAR

STARTCHAR A3A3
ENCODING 41891
SWIDTH 960 0
DWIDTH 16 0
BBX 16 16 0 -4
BITMAP
1000
13FF
5600
3AFE
1292
1292
7EFE
1292
3292
5AFE
1610
1210
12FE
1210
1410
11FF
ENDCHAR

STARTCHAR A3A4
ENCODING 41892
SWIDTH 960 0
DWIDTH 16 0
BBX 16 16 0 -4
BITMAP
0000
0000
0000
0000
0000
0000
0000
0000
0000
0000
0000
0000
0000
0000
FFFF
FFFF
ENDCHAR

STARTCHAR A3A5
ENCODING 41893
SWIDTH 960 0
DWIDTH 16 0
BBX 16 16 0 -4
BITMAP
0000
0000
0000
0000
0000
0000
0000
0000
0000
0000
0000
0000
FFFF
FFFF
FFFF
FFFF
ENDCHAR

STARTCHAR A3A6
ENCODING 41894
SWIDTH 960 0
DWIDTH 16 0
BBX 16 16 0 -4
BITMAP
0000
0000
0000
0000
0000
0000
0000
0000
0000
0000
FFFF
FFFF
FFFF
FFFF
FFFF
FFFF
ENDCHAR

STARTCHAR A3A7
ENCODING 41895
SWIDTH 960 0
DWIDTH 16 0
BBX 16 16 0 -4
BITMAP
0000
0000
0000
0000
0000
0000
0000
0000
FFFF
FFFF
FFFF
FFFF
FFFF
FFFF
FFFF
FFFF
ENDCHAR

STARTCHAR A3A8
ENCODING 41896
SWIDTH 960 0
DWIDTH 16 0
BBX 16 16 0 -4
BITMAP
0000
0000
0000
0000
0000
0000
FFFF
FFFF
FFFF
FFFF
FFFF
FFFF
FFFF
FFFF
FFFF
FFFF
ENDCHAR

STARTCHAR A3A9
ENCODING 41897
SWIDTH 960 0
DWIDTH 16 0
BBX 16 16 0 -4
BITMAP
0000
0000
0000
0000
FFFF
FFFF
FFFF
FFFF
FFFF
FFFF
FFFF
FFFF
FFFF
FFFF
FFFF
FFFF
ENDCHAR

STARTCHAR A3AA
ENCODING 41898
SWIDTH 960 0
DWIDTH 16 0
BBX 16 16 0 -4
BITMAP
0000
0000
FFFF
FFFF
FFFF
FFFF
FFFF
FFFF
FFFF
FFFF
FFFF
FFFF
FFFF
FFFF
FFFF
FFFF
ENDCHAR

STARTCHAR A3AB
ENCODING 41899
SWIDTH 960 0
DWIDTH 16 0
BBX 16 16 0 -4
BITMAP
FFFF
FFFF
FFFF
FFFF
FFFF
FFFF
FFFF
FFFF
FFFF
FFFF
FFFF
FFFF
FFFF
FFFF
FFFF
FFFF
ENDCHAR

STARTCHAR A3AC
ENCODING 41900
SWIDTH 960 0
DWIDTH 16 0
BBX 16 16 0 -4
BITMAP
C000
C000
C000
C000
C000
C000
C000
C000
C000
C000
C000
C000
C000
C000
C000
C000
ENDCHAR

STARTCHAR A3AD
ENCODING 41901
SWIDTH 960 0
DWIDTH 16 0
BBX 16 16 0 -4
BITMAP
F000
F000
F000
F000
F000
F000
F000
F000
F000
F000
F000
F000
F000
F000
F000
F000
ENDCHAR

STARTCHAR A3AE
ENCODING 41902
SWIDTH 960 0
DWIDTH 16 0
BBX 16 16 0 -4
BITMAP
FC00
FC00
FC00
FC00
FC00
FC00
FC00
FC00
FC00
FC00
FC00
FC00
FC00
FC00
FC00
FC00
ENDCHAR

STARTCHAR A3AF
ENCODING 41903
SWIDTH 960 0
DWIDTH 16 0
BBX 16 16 0 -4
BITMAP
FF00
FF00
FF00
FF00
FF00
FF00
FF00
FF00
FF00
FF00
FF00
FF00
FF00
FF00
FF00
FF00
ENDCHAR

STARTCHAR A3B0
ENCODING 41904
SWIDTH 960 0
DWIDTH 16 0
BBX 16 16 0 -4
BITMAP
FFC0
FFC0
FFC0
FFC0
FFC0
FFC0
FFC0
FFC0
FFC0
FFC0
FFC0
FFC0
FFC0
FFC0
FFC0
FFC0
ENDCHAR

STARTCHAR A3B1
ENCODING 41905
SWIDTH 960 0
DWIDTH 16 0
BBX 16 16 0 -4
BITMAP
FFF0
FFF0
FFF0
FFF0
FFF0
FFF0
FFF0
FFF0
FFF0
FFF0
FFF0
FFF0
FFF0
FFF0
FFF0
FFF0
ENDCHAR

STARTCHAR A3B2
ENCODING 41906
SWIDTH 960 0
DWIDTH 16 0
BBX 16 16 0 -4
BITMAP
FFFC
FFFC
FFFC
FFFC
FFFC
FFFC
FFFC
FFFC
FFFC
FFFC
FFFC
FFFC
FFFC
FFFC
FFFC
FFFC
ENDCHAR

STARTCHAR A3B3
ENCODING 41907
SWIDTH 960 0
DWIDTH 16 0
BBX 16 16 0 -4
BITMAP
0080
0080
0080
0080
0080
0080
0080
FFFF
0080
0080
0080
0080
0080
0080
0080
0080
ENDCHAR

STARTCHAR A3B4
ENCODING 41908
SWIDTH 960 0
DWIDTH 16 0
BBX 16 16 0 -4
BITMAP
0080
0080
0080
0080
0080
0080
0080
FFFF
0000
0000
0000
0000
0000
0000
0000
0000
ENDCHAR

STARTCHAR A3B5
ENCODING 41909
SWIDTH 960 0
DWIDTH 16 0
BBX 16 16 0 -4
BITMAP
0000
0000
0000
0000
0000
0000
0000
FFFF
0080
0080
0080
0080
0080
0080
0080
0080
ENDCHAR

STARTCHAR A3B6
ENCODING 41910
SWIDTH 960 0
DWIDTH 16 0
BBX 16 16 0 -4
BITMAP
0080
0080
0080
0080
0080
0080
0080
FF80
0080
0080
0080
0080
0080
0080
0080
0080
ENDCHAR

STARTCHAR A3B7
ENCODING 41911
SWIDTH 960 0
DWIDTH 16 0
BBX 16 16 0 -4
BITMAP
0080
0080
0080
0080
0080
0080
0080
00FF
0080
0080
0080
0080
0080
0080
0080
0080
ENDCHAR

STARTCHAR A3B8
ENCODING 41912
SWIDTH 960 0
DWIDTH 16 0
BBX 16 16 0 -4
BITMAP
FFFF
FFFF
0000
0000
0000
0000
0000
0000
0000
0000
0000
0000
0000
0000
0000
0000
ENDCHAR

STARTCHAR A3B9
ENCODING 41913
SWIDTH 960 0
DWIDTH 16 0
BBX 16 16 0 -4
BITMAP
0000
0000
0000
0000
0000
0000
0000
FFFF
0000
0000
0000
0000
0000
0000
0000
0000
ENDCHAR

STARTCHAR A3BA
ENCODING 41914
SWIDTH 960 0
DWIDTH 16 0
BBX 16 16 0 -4
BITMAP
0080
0080
0080
0080
0080
0080
0080
0080
0080
0080
0080
0080
0080
0080
0080
0080
ENDCHAR

STARTCHAR A3BB
ENCODING 41915
SWIDTH 960 0
DWIDTH 16 0
BBX 16 16 0 -4
BITMAP
0003
0003
0003
0003
0003
0003
0003
0003
0003
0003
0003
0003
0003
0003
0003
0003
ENDCHAR

STARTCHAR A3BC
ENCODING 41916
SWIDTH 960 0
DWIDTH 16 0
BBX 16 16 0 -4
BITMAP
0000
0000
0000
0000
0000
0000
0000
00FF
0080
0080
0080
0080
0080
0080
0080
0080
ENDCHAR

STARTCHAR A3BD
ENCODING 41917
SWIDTH 960 0
DWIDTH 16 0
BBX 16 16 0 -4
BITMAP
0000
0000
0000
0000
0000
0000
0000
FF80
0080
0080
0080
0080
0080
0080
0080
0080
ENDCHAR

STARTCHAR A3BE
ENCODING 41918
SWIDTH 960 0
DWIDTH 16 0
BBX 16 16 0 -4
BITMAP
0080
0080
0080
0080
0080
0080
0080
00FF
0000
0000
0000
0000
0000
0000
0000
0000
ENDCHAR

STARTCHAR A3BF
ENCODING 41919
SWIDTH 960 0
DWIDTH 16 0
BBX 16 16 0 -4
BITMAP
0080
0080
0080
0080
0080
0080
0080
FF80
0000
0000
0000
0000
0000
0000
0000
0000
ENDCHAR

STARTCHAR A3C0
ENCODING 41920
SWIDTH 960 0
DWIDTH 16 0
BBX 16 16 0 -4
BITMAP
0000
0000
0000
0000
0000
0000
0000
0007
0018
0020
0040
0040
0080
0080
0080
0080
ENDCHAR

STARTCHAR A3C1
ENCODING 41921
SWIDTH 960 0
DWIDTH 16 0
BBX 16 16 0 -4
BITMAP
0000
0000
0000
0000
0000
0000
0000
F000
0C00
0200
0100
0100
0080
0080
0080
0080
ENDCHAR

STARTCHAR A3C2
ENCODING 41922
SWIDTH 960 0
DWIDTH 16 0
BBX 16 16 0 -4
BITMAP
0080
0080
0080
0040
0040
0020
0018
0007
0000
0000
0000
0000
0000
0000
0000
0000
ENDCHAR

STARTCHAR A3C3
ENCODING 41923
SWIDTH 960 0
DWIDTH 16 0
BBX 16 16 0 -4
BITMAP
0080
0080
0080
0100
0100
0200
0C00
F000
0000
0000
0000
0000
0000
0000
0000
0000
ENDCHAR

STARTCHAR A3C4
ENCODING 41924
SWIDTH 960 0
DWIDTH 16 0
BBX 16 16 0 -4
BITMAP
0000
0000
0000
0000
0000
FFFF
0000
0000
0000
FFFF
0000
0000
0000
0000
0000
0000
ENDCHAR

STARTCHAR A3C5
ENCODING 41925
SWIDTH 960 0
DWIDTH 16 0
BBX 16 16 0 -4
BITMAP
0080
0080
0080
0080
0080
00FF
0080
0080
0080
00FF
0080
0080
0080
0080
0080
0080
ENDCHAR

STARTCHAR A3C6
ENCODING 41926
SWIDTH 960 0
DWIDTH 16 0
BBX 16 16 0 -4
BITMAP
0080
0080
0080
0080
0080
FFFF
0080
0080
0080
FFFF
0080
0080
0080
0080
0080
0080
ENDCHAR

STARTCHAR A3C7
ENCODING 41927
SWIDTH 960 0
DWIDTH 16 0
BBX 16 16 0 -4
BITMAP
0080
0080
0080
0080
0080
FF80
0080
0080
0080
FF80
0080
0080
0080
0080
0080
0080
ENDCHAR

STARTCHAR A3C8
ENCODING 41928
SWIDTH 960 0
DWIDTH 16 0
BBX 16 16 0 -4
BITMAP
0001
0003
0007
000F
001F
003F
007F
00FF
01FF
03FF
07FF
0FFF
1FFF
3FFF
7FFF
FFFF
ENDCHAR

STARTCHAR A3C9
ENCODING 41929
SWIDTH 960 0
DWIDTH 16 0
BBX 16 16 0 -4
BITMAP
8000
C000
E000
F000
F800
FC00
FE00
FF00
FF80
FFC0
FFE0
FFF0
FFF8
FFFC
FFFE
FFFF
ENDCHAR

STARTCHAR A3CA
ENCODING 41930
SWIDTH 960 0
DWIDTH 16 0
BBX 16 16 0 -4
BITMAP
FFFF
7FFF
3FFF
1FFF
0FFF
07FF
03FF
01FF
00FF
007F
003F
001F
000F
0007
0003
0001
ENDCHAR

STARTCHAR A3CB
ENCODING 41931
SWIDTH 960 0
DWIDTH 16 0
BBX 16 16 0 -4
BITMAP
FFFF
FFFE
FFFC
FFF8
FFF0
FFE0
FFC0
FF80
FF00
FE00
FC00
F800
F000
E000
C000
8000
ENDCHAR

STARTCHAR A3CC
ENCODING 41932
SWIDTH 960 0
DWIDTH 16 0
BBX 16 16 0 -4
BITMAP
0001
0002
0004
0008
0010
0020
0040
0080
0100
0200
0400
0800
1000
2000
4000
8000
ENDCHAR

STARTCHAR A3CD
ENCODING 41933
SWIDTH 960 0
DWIDTH 16 0
BBX 16 16 0 -4
BITMAP
8000
4000
2000
1000
0800
0400
0200
0100
0080
0040
0020
0010
0008
0004
0002
0001
ENDCHAR

STARTCHAR A3CE
ENCODING 41934
SWIDTH 960 0
DWIDTH 16 0
BBX 16 16 0 -4
BITMAP
8001
4002
2004
1008
0810
0420
0240
0180
0180
0240
0420
0810
1008
2004
4002
8001
ENDCHAR

STARTCHAR A421
ENCODING 42017
SWIDTH 960 0
DWIDTH 16 0
BBX 16 16 0 -4
BITMAP
1000
13F8
1108
5908
5510
5510
55FE
5142
1142
1122
1124
1114
1208
1214
1422
10C1
ENDCHAR

STARTCHAR A422
ENCODING 42018
SWIDTH 960 0
DWIDTH 16 0
BBX 16 16 0 -4
BITMAP
1040
1040
107F
5891
5491
5512
5410
5410
5010
1010
1028
1028
1044
1044
1082
1301
ENDCHAR

STARTCHAR A423
ENCODING 42019
SWIDTH 960 0
DWIDTH 16 0
BBX 16 16 0 -4
BITMAP
1000
101E
11F0
5910
5510
5510
5510
55FE
5110
1110
1108
1108
1129
1145
1185
1003
ENDCHAR

STARTCHAR A424
ENCODING 42020
SWIDTH 960 0
DWIDTH 16 0
BBX 16 16 0 -4
BITMAP
1000
1000
1101
5901
5505
5545
5529
5511
5111
1129
1145
1183
1101
1101
11FF
1101
ENDCHAR

STARTCHAR A425
ENCODING 42021
SWIDTH 960 0
DWIDTH 16 0
BBX 16 16 0 -4
BITMAP
1000
100E
10F0
5880
5480
5480
54FF
5484
5084
1084
1084
1084
1084
1104
1104
1204
ENDCHAR

STARTCHAR A426
ENCODING 42022
SWIDTH 960 0
DWIDTH 16 0
BBX 16 16 0 -4
BITMAP
1000
13FF
1008
5810
5420
5420
5468
54A4
5122
1222
1020
1020
1020
1020
1020
1020
ENDCHAR

STARTCHAR A427
ENCODING 42023
SWIDTH 960 0
DWIDTH 16 0
BBX 16 16 0 -4
BITMAP
1010
1020
1050
5888
5504
5602
54F9
5400
5000
11FE
1002
1004
1004
1008
1010
1020
ENDCHAR

STARTCHAR A428
ENCODING 42024
SWIDTH 960 0
DWIDTH 16 0
BBX 16 16 0 -4
BITMAP
0000
067E
3842
2042
2042
3E42
2242
227E
2240
3E40
2240
2040
2040
4041
4041
003F
ENDCHAR

STARTCHAR A429
ENCODING 42025
SWIDTH 960 0
DWIDTH 16 0
BBX 16 16 0 -4
BITMAP
1020
1010
1010
7C00
11FF
1010
1010
1018
1C14
7012
1010
1010
1010
1010
1010
3010
ENDCHAR

STARTCHAR A42A
ENCODING 42026
SWIDTH 960 0
DWIDTH 16 0
BBX 16 16 0 -4
BITMAP
1020
1020
1020
7C20
11FF
1121
1222
1020
1C50
7050
1050
1090
1090
1111
1211
341F
ENDCHAR

STARTCHAR A42B
ENCODING 42027
SWIDTH 960 0
DWIDTH 16 0
BBX 16 16 0 -4
BITMAP
1000
11FE
1000
7C00
1000
1000
13FF
1020
1C20
7040
1040
1084
1082
111F
13E1
3001
ENDCHAR

STARTCHAR A42C
ENCODING 42028
SWIDTH 960 0
DWIDTH 16 0
BBX 16 16 0 -4
BITMAP
1000
10FE
1000
7C00
1000
1000
13FF
1048
1C48
7048
1048
1048
1088
1089
1109
320F
ENDCHAR

STARTCHAR A42D
ENCODING 42029
SWIDTH 960 0
DWIDTH 16 0
BBX 16 16 0 -4
BITMAP
1000
11FF
1004
7C08
1010
1010
1034
1052
1C91
7111
1010
1010
1010
1010
1010
3010
ENDCHAR

STARTCHAR A42E
ENCODING 42030
SWIDTH 960 0
DWIDTH 16 0
BBX 16 16 0 -4
BITMAP
1000
11FE
1102
7D02
1102
1102
1102
11FE
1D02
7102
1102
1102
1102
11FE
1102
3102
ENDCHAR

STARTCHAR A42F
ENCODING 42031
SWIDTH 960 0
DWIDTH 16 0
BBX 16 16 0 -4
BITMAP
1000
11FC
1084
7C84
1088
1088
10FF
10A1
1CA1
70A2
1092
1094
1108
1114
1222
30C1
ENDCHAR

STARTCHAR A430
ENCODING 42032
SWIDTH 960 0
DWIDTH 16 0
BBX 16 16 0 -4
BITMAP
1040
1040
107F
7C91
1091
1111
1012
1012
1C10
7010
1028
1028
1044
1044
1082
3301
ENDCHAR

STARTCHAR A431
ENCODING 42033
SWIDTH 960 0
DWIDTH 16 0
BBX 16 16 0 -4
BITMAP
1000
100E
11F0
7D10
1110
1110
11FE
1110
1D10
7110
1110
1110
1109
1169
1185
3003
ENDCHAR

STARTCHAR A432
ENCODING 42034
SWIDTH 960 0
DWIDTH 16 0
BBX 16 16 0 -4
BITMAP
1020
1028
1024
7C24
1020
11FE
1020
1020
1C20
7030
1050
1050
1090
1091
1111
360F
ENDCHAR

STARTCHAR A433
ENCODING 42035
SWIDTH 960 0
DWIDTH 16 0
BBX 16 16 0 -4
BITMAP
1020
1040
1040
7C88
1084
113E
13D1
1090
1C90
7090
1090
1090
1090
1111
1111
321F
ENDCHAR

STARTCHAR A434
ENCODING 42036
SWIDTH 960 0
DWIDTH 16 0
BBX 16 16 0 -4
BITMAP
1000
10FE
1082
7C82
1082
10FE
1082
1082
1C82
70FE
1082
1082
1082
1102
1102
3206
ENDCHAR

STARTCHAR A435
ENCODING 42037
SWIDTH 960 0
DWIDTH 16 0
BBX 16 16 0 -4
BITMAP
1000
101E
10F0
7C10
1010
1010
1010
11FF
1C10
7018
1028
1024
1044
1042
1081
3301
ENDCHAR

STARTCHAR A436
ENCODING 42038
SWIDTH 960 0
DWIDTH 16 0
BBX 16 16 0 -4
BITMAP
1020
1020
13FE
7C20
1020
1024
1124
1124
1D24
7124
11FC
1120
1020
1021
1021
301F
ENDCHAR

STARTCHAR A437
ENCODING 42039
SWIDTH 960 0
DWIDTH 16 0
BBX 16 16 0 -4
BITMAP
1010
1020
1050
7C88
1104
1202
10F9
1000
1C00
71FE
1002
1004
1004
1008
1010
3020
ENDCHAR

STARTCHAR A438
ENCODING 42040
SWIDTH 960 0
DWIDTH 16 0
BBX 16 16 0 -4
BITMAP
1010
1020
1050
7C88
1104
1202
1489
1088
1C88
7088
1088
1108
1108
1108
1208
3408
ENDCHAR

STARTCHAR A439
ENCODING 42041
SWIDTH 960 0
DWIDTH 16 0
BBX 16 16 0 -4
BITMAP
0000
7CFE
4410
4410
4410
4410
7C10
45FF
4410
4410
4410
7C10
4010
0010
0010
0010
ENDCHAR

STARTCHAR A43A
ENCODING 42042
SWIDTH 960 0
DWIDTH 16 0
BBX 16 16 0 -4
BITMAP
0000
7CFE
4410
4410
4410
4410
7C10
45FF
4410
4410
4410
7C10
4010
0010
0010
0070
ENDCHAR

STARTCHAR A43B
ENCODING 42043
SWIDTH 960 0
DWIDTH 16 0
BBX 16 16 0 -4
BITMAP
0040
0040
7C80
44FF
4501
4601
4401
7C41
4421
4411
4411
4401
4401
7C01
4002
001C
ENDCHAR

STARTCHAR A43C
ENCODING 42044
SWIDTH 960 0
DWIDTH 16 0
BBX 16 16 0 -4
BITMAP
0000
1FFC
1004
1004
1FFC
1004
1004
1FFC
0080
0080
7FFF
0100
0210
0408
0804
3003
ENDCHAR

STARTCHAR A43D
ENCODING 42045
SWIDTH 960 0
DWIDTH 16 0
BBX 16 16 0 -4
BITMAP
0000
1FFC
1004
1004
1FFC
1004
1004
1FFC
1004
0080
2082
2082
2082
2082
3FFE
2002
ENDCHAR

STARTCHAR A43E
ENCODING 42046
SWIDTH 960 0
DWIDTH 16 0
BBX 16 16 0 -4
BITMAP
0800
08FE
0810
7E10
0810
0810
19FF
1C10
2A10
2810
4810
4810
0810
0810
0810
0870
ENDCHAR

STARTCHAR A43F
ENCODING 42047
SWIDTH 960 0
DWIDTH 16 0
BBX 16 16 0 -4
BITMAP
0800
087E
0800
7E00
0800
08FF
1810
1C20
2A20
283F
4841
4801
0801
0801
0802
080C
ENDCHAR

STARTCHAR A440
ENCODING 42048
SWIDTH 960 0
DWIDTH 16 0
BBX 16 16 0 -4
BITMAP
0820
0824
0822
7E20
0820
09FF
1820
1C20
2A10
2810
4810
4808
0808
0805
0803
0801
ENDCHAR

STARTCHAR A441
ENCODING 42049
SWIDTH 960 0
DWIDTH 16 0
BBX 16 16 0 -4
BITMAP
0810
0810
0810
7E10
0810
08FF
1810
1C10
2A28
2828
4844
4844
0882
0882
0901
0A01
ENDCHAR

STARTCHAR A442
ENCODING 42050
SWIDTH 960 0
DWIDTH 16 0
BBX 16 16 0 -4
BITMAP
0800
09FE
0848
7E48
0848
0848
1848
1C48
2A48
2848
4848
4888
0889
0909
0A0F
0800
ENDCHAR

STARTCHAR A443
ENCODING 42051
SWIDTH 960 0
DWIDTH 16 0
BBX 16 16 0 -4
BITMAP
0800
08FF
0801
7E21
0891
0891
1842
1C42
2A44
2824
4828
4810
0828
0844
0882
0B01
ENDCHAR

STARTCHAR A444
ENCODING 42052
SWIDTH 960 0
DWIDTH 16 0
BBX 16 16 0 -4
BITMAP
0808
0848
0848
7E48
084F
0879
19C9
1C49
2A49
284A
484A
4848
0840
0841
0841
083F
ENDCHAR

STARTCHAR A445
ENCODING 42053
SWIDTH 960 0
DWIDTH 16 0
BBX 16 16 0 -4
BITMAP
0800
08FE
0802
7E04
0808
0810
1810
1DFF
2A10
2810
4810
4810
0810
0810
0810
0870
ENDCHAR

STARTCHAR A446
ENCODING 42054
SWIDTH 960 0
DWIDTH 16 0
BBX 16 16 0 -4
BITMAP
0840
0840
0880
7EFF
0900
0A00
18FE
1C04
2A08
2810
4820
4840
0880
0901
0901
08FF
ENDCHAR

STARTCHAR A447
ENCODING 42055
SWIDTH 960 0
DWIDTH 16 0
BBX 16 16 0 -4
BITMAP
1000
11F8
1108
7D08
1108
1148
3148
3928
5528
5128
1108
1108
1108
1209
1209
140F
ENDCHAR

STARTCHAR A448
ENCODING 42056
SWIDTH 960 0
DWIDTH 16 0
BBX 16 16 0 -4
BITMAP
0080
0080
7FFF
0080
0080
1FFE
0000
0FF8
0888
0888
7FFF
1110
1110
1FFE
0010
0060
ENDCHAR

STARTCHAR A449
ENCODING 42057
SWIDTH 960 0
DWIDTH 16 0
BBX 16 16 0 -4
BITMAP
0800
0FFE
1000
1FF8
2000
5FFC
0004
0204
0204
2224
2224
2224
2225
3FE5
2022
0002
ENDCHAR

STARTCHAR A44A
ENCODING 42058
SWIDTH 960 0
DWIDTH 16 0
BBX 16 16 0 -4
BITMAP
0800
0FFE
1000
1FF8
2000
5FFC
0004
0924
0924
0924
0924
0924
1125
1125
2022
0000
ENDCHAR

STARTCHAR A44B
ENCODING 42059
SWIDTH 960 0
DWIDTH 16 0
BBX 16 16 0 -4
BITMAP
0040
2020
1020
07FF
0040
0040
4040
207E
0042
0082
1082
1082
2102
2102
4204
4418
ENDCHAR

STARTCHAR A44C
ENCODING 42060
SWIDTH 960 0
DWIDTH 16 0
BBX 16 16 0 -4
BITMAP
0000
27FE
1108
0108
0108
0108
4108
2FFF
0108
0108
1108
1108
2108
2208
4208
4408
ENDCHAR

STARTCHAR A44D
ENCODING 42061
SWIDTH 960 0
DWIDTH 16 0
BBX 16 16 0 -4
BITMAP
0084
2084
1084
0084
03FF
0084
4084
2084
0084
07FF
1084
1084
2104
2104
4204
4404
ENDCHAR

STARTCHAR A44E
ENCODING 42062
SWIDTH 960 0
DWIDTH 16 0
BBX 16 16 0 -4
BITMAP
0000
23FC
1000
0000
0000
0000
47FF
2040
0040
0080
1088
1104
2104
221E
47E2
4002
ENDCHAR

STARTCHAR A44F
ENCODING 42063
SWIDTH 960 0
DWIDTH 16 0
BBX 16 16 0 -4
BITMAP
0040
2048
1044
0044
0040
47FF
2040
0040
10A0
10A0
10A0
2120
2121
4221
4421
181F
ENDCHAR

STARTCHAR A450
ENCODING 42064
SWIDTH 960 0
DWIDTH 16 0
BBX 16 16 0 -4
BITMAP
0200
2200
127F
0211
0FD1
4211
2211
0211
1211
1211
1251
22A1
2321
2041
4082
410C
ENDCHAR

STARTCHAR A451
ENCODING 42065
SWIDTH 960 0
DWIDTH 16 0
BBX 16 16 0 -4
BITMAP
0020
2024
1022
0022
0020
07FF
4020
2020
0050
1050
1088
2088
2104
4104
4202
0401
ENDCHAR

STARTCHAR A452
ENCODING 42066
SWIDTH 960 0
DWIDTH 16 0
BBX 16 16 0 -4
BITMAP
0020
2020
1020
03FF
0040
0040
4090
2090
0110
1120
1224
2442
2082
410F
43F1
0001
ENDCHAR

STARTCHAR A453
ENCODING 42067
SWIDTH 960 0
DWIDTH 16 0
BBX 16 16 0 -4
BITMAP
0000
2000
1000
07FE
0402
0402
4402
2402
07FE
0402
1402
1402
2402
27FE
4402
4400
ENDCHAR

STARTCHAR A454
ENCODING 42068
SWIDTH 960 0
DWIDTH 16 0
BBX 16 16 0 -4
BITMAP
0000
2010
1010
0010
0010
0110
4110
211E
0110
0110
1110
1110
2110
2110
47FF
4000
ENDCHAR

STARTCHAR A455
ENCODING 42069
SWIDTH 960 0
DWIDTH 16 0
BBX 16 16 0 -4
BITMAP
0040
2020
1020
0020
03FE
0222
4222
2252
0252
028A
1306
1202
2202
2202
4202
4206
ENDCHAR

STARTCHAR A456
ENCODING 42070
SWIDTH 960 0
DWIDTH 16 0
BBX 16 16 0 -4
BITMAP
0040
2080
1080
0110
0108
027C
47A2
2120
0120
0120
1120
1120
2120
2222
4222
443E
ENDCHAR

STARTCHAR A457
ENCODING 42071
SWIDTH 960 0
DWIDTH 16 0
BBX 16 16 0 -4
BITMAP
0040
2040
1080
00FF
0129
0129
4249
2049
0091
0091
1111
1221
2042
2082
4302
400C
ENDCHAR

STARTCHAR A458
ENCODING 42072
SWIDTH 960 0
DWIDTH 16 0
BBX 16 16 0 -4
BITMAP
0104
2104
1104
0104
0104
41FC
2100
0100
11FE
1102
1102
2102
2202
2202
4402
4802
ENDCHAR

STARTCHAR A459
ENCODING 42073
SWIDTH 960 0
DWIDTH 16 0
BBX 16 16 0 -4
BITMAP
0000
200E
13F0
0210
0210
4210
2210
03FE
0210
1210
1208
2208
2229
42C5
4305
0003
ENDCHAR

STARTCHAR A45A
ENCODING 42074
SWIDTH 960 0
DWIDTH 16 0
BBX 16 16 0 -4
BITMAP
0000
23FF
1200
0200
0200
43FE
2282
0282
0244
1244
1228
2210
2428
4444
4882
0301
ENDCHAR

STARTCHAR A45B
ENCODING 42075
SWIDTH 960 0
DWIDTH 16 0
BBX 16 16 0 -4
BITMAP
0020
2020
17FF
0020
0020
4020
23FC
0104
0104
1088
1088
2050
2020
4050
418C
0603
ENDCHAR

STARTCHAR A45C
ENCODING 42076
SWIDTH 960 0
DWIDTH 16 0
BBX 16 16 0 -4
BITMAP
0100
2100
11FE
0220
0420
0020
4020
2020
07FF
0020
1020
1020
2020
2020
4020
4020
ENDCHAR

STARTCHAR A45D
ENCODING 42077
SWIDTH 960 0
DWIDTH 16 0
BBX 16 16 0 -4
BITMAP
0120
2120
1120
0220
0220
0620
4A3F
2220
0220
1220
1220
2220
2220
4221
4221
021F
ENDCHAR

STARTCHAR A45E
ENCODING 42078
SWIDTH 960 0
DWIDTH 16 0
BBX 16 16 0 -4
BITMAP
1000
1000
10FE
1010
1410
5810
5010
5010
1010
1010
1010
2810
2410
2010
43FF
0000
ENDCHAR

STARTCHAR A45F
ENCODING 42079
SWIDTH 960 0
DWIDTH 16 0
BBX 16 16 0 -4
BITMAP
1020
1120
1120
1120
153E
59E2
5722
5122
1122
1124
1124
2920
2501
2101
4101
00FF
ENDCHAR

STARTCHAR A460
ENCODING 42080
SWIDTH 960 0
DWIDTH 16 0
BBX 16 16 0 -4
BITMAP
0800
28FF
2811
3E11
4811
4891
0851
0831
0E11
0811
7811
0821
0821
0841
0881
090E
ENDCHAR

STARTCHAR A461
ENCODING 42081
SWIDTH 960 0
DWIDTH 16 0
BBX 16 16 0 -4
BITMAP
0020
4410
2810
1000
2BFF
4810
0810
1418
1414
2412
4410
0410
0410
0410
0410
1810
ENDCHAR

STARTCHAR A462
ENCODING 42082
SWIDTH 960 0
DWIDTH 16 0
BBX 16 16 0 -4
BITMAP
0000
44FF
2884
1084
2884
4904
0904
19FF
2814
4814
0824
0844
0884
0904
1604
601C
ENDCHAR

STARTCHAR A463
ENCODING 42083
SWIDTH 960 0
DWIDTH 16 0
BBX 16 16 0 -4
BITMAP
0000
45FC
2844
1044
2844
4844
0844
09FF
1844
2844
4844
0844
0884
0884
0884
33FF
ENDCHAR

STARTCHAR A464
ENCODING 42084
SWIDTH 960 0
DWIDTH 16 0
BBX 16 16 0 -4
BITMAP
0010
4410
2810
11FF
2911
4911
0911
0911
1911
29FF
4911
0810
0810
0810
1010
6010
ENDCHAR

STARTCHAR A465
ENCODING 42085
SWIDTH 960 0
DWIDTH 16 0
BBX 16 16 0 -4
BITMAP
0020
4440
2840
1088
2884
493E
0BD1
0890
1890
2890
4890
0890
0890
0911
0911
321F
ENDCHAR

STARTCHAR A466
ENCODING 42086
SWIDTH 960 0
DWIDTH 16 0
BBX 16 16 0 -4
BITMAP
0040
4420
2820
17FF
2800
4800
08F8
0888
1888
2888
4888
0888
0888
0889
0909
320F
ENDCHAR

STARTCHAR A467
ENCODING 42087
SWIDTH 960 0
DWIDTH 16 0
BBX 16 16 0 -4
BITMAP
0000
4400
281E
10F0
2810
4810
0810
1410
14FE
2410
4410
0410
0410
0410
09FF
3000
ENDCHAR

STARTCHAR A468
ENCODING 42088
SWIDTH 960 0
DWIDTH 16 0
BBX 16 16 0 -4
BITMAP
0000
7C00
10FE
1010
1010
1010
7C10
11FF
1010
1010
1010
1C10
7010
0010
0010
0010
ENDCHAR

STARTCHAR A469
ENCODING 42089
SWIDTH 960 0
DWIDTH 16 0
BBX 16 16 0 -4
BITMAP
0000
7C00
10FE
1010
1010
1010
7C10
11FF
1010
1010
1010
1C10
7010
0010
0010
0070
ENDCHAR

STARTCHAR A46A
ENCODING 42090
SWIDTH 960 0
DWIDTH 16 0
BBX 16 16 0 -4
BITMAP
0080
7C80
1080
10FF
1101
1201
7C01
1041
1021
1011
1011
1C01
7001
0001
0002
001C
ENDCHAR

STARTCHAR A46B
ENCODING 42091
SWIDTH 960 0
DWIDTH 16 0
BBX 16 16 0 -4
BITMAP
0082
7C92
1092
1092
1092
1092
7C92
1092
1092
1092
1092
1C92
7112
0102
0202
0402
ENDCHAR

STARTCHAR A46C
ENCODING 42092
SWIDTH 960 0
DWIDTH 16 0
BBX 16 16 0 -4
BITMAP
0000
00FE
7C10
1010
1010
1010
1010
7C10
1010
1010
1010
1010
1C10
7010
01FF
0000
ENDCHAR

STARTCHAR A46D
ENCODING 42093
SWIDTH 960 0
DWIDTH 16 0
BBX 16 16 0 -4
BITMAP
0000
01FF
7E08
5208
5208
5208
5208
7E08
5208
5208
5208
5208
7E08
4208
0008
0038
ENDCHAR

STARTCHAR A46E
ENCODING 42094
SWIDTH 960 0
DWIDTH 16 0
BBX 16 16 0 -4
BITMAP
0080
0080
1FFC
1084
1FFC
1084
1FFC
0000
7FFF
0200
0400
07FC
0004
0004
0008
00F0
ENDCHAR

STARTCHAR A46F
ENCODING 42095
SWIDTH 960 0
DWIDTH 16 0
BBX 16 16 0 -4
BITMAP
0080
0040
1FFF
1000
5000
37FF
1020
1020
3020
5020
1020
1020
2020
2020
4020
00E0
ENDCHAR

STARTCHAR A470
ENCODING 42096
SWIDTH 960 0
DWIDTH 16 0
BBX 16 16 0 -4
BITMAP
0080
0040
1FFF
1100
5100
3100
1106
1138
31C0
5100
1100
1100
2101
2101
40FF
0000
ENDCHAR

STARTCHAR A471
ENCODING 42097
SWIDTH 960 0
DWIDTH 16 0
BBX 16 16 0 -4
BITMAP
00C0
0300
1FFC
1004
1004
1FFC
1004
1004
1FFC
0080
0080
7FFF
0080
0080
0080
0080
ENDCHAR

STARTCHAR A472
ENCODING 42098
SWIDTH 960 0
DWIDTH 16 0
BBX 16 16 0 -4
BITMAP
2000
11FC
1044
7C44
0448
0848
104F
3841
5441
1241
1081
1081
1081
1102
1102
120C
ENDCHAR

STARTCHAR A473
ENCODING 42099
SWIDTH 960 0
DWIDTH 16 0
BBX 16 16 0 -4
BITMAP
0020
7F20
2220
2220
3E20
2220
2220
3E20
2220
2220
2620
3A20
6221
0221
0221
023F
ENDCHAR

STARTCHAR A474
ENCODING 42100
SWIDTH 960 0
DWIDTH 16 0
BBX 16 16 0 -4
BITMAP
0000
3DFF
2411
2411
2411
3411
2C91
2461
2C21
3421
2422
2442
2442
4482
4502
4E0C
ENDCHAR

STARTCHAR A475
ENCODING 42101
SWIDTH 960 0
DWIDTH 16 0
BBX 16 16 0 -4
BITMAP
0000
0FFC
0804
0804
0FFC
0000
0FFC
0804
0B04
08C4
080C
0814
0864
0984
0804
101C
ENDCHAR

STARTCHAR A476
ENCODING 42102
SWIDTH 960 0
DWIDTH 16 0
BBX 16 16 0 -4
BITMAP
0040
3C40
2480
24FF
2500
3600
2CFC
2408
2C10
3420
2440
2480
2501
4501
44FF
4C00
ENDCHAR

STARTCHAR A477
ENCODING 42103
SWIDTH 960 0
DWIDTH 16 0
BBX 16 16 0 -4
BITMAP
0020
3C20
2420
2420
25FC
3424
2C24
2424
2C24
3434
242C
2444
2444
4484
4485
0D07
ENDCHAR

STARTCHAR A478
ENCODING 42104
SWIDTH 960 0
DWIDTH 16 0
BBX 16 16 0 -4
BITMAP
0004
3E04
2208
2210
2220
3A44
2604
2208
2610
3A20
2242
2202
2204
2208
4210
4E60
ENDCHAR

STARTCHAR A479
ENCODING 42105
SWIDTH 960 0
DWIDTH 16 0
BBX 16 16 0 -4
BITMAP
0808
0808
7F7F
0808
0808
0000
7FFF
0080
0080
00E0
0090
0088
0084
0080
0080
0080
ENDCHAR

STARTCHAR A47A
ENCODING 42106
SWIDTH 960 0
DWIDTH 16 0
BBX 16 16 0 -4
BITMAP
0808
0808
7F7F
0808
0808
0080
0080
0080
0080
3FFE
0080
0080
0080
0080
7FFF
0000
ENDCHAR

STARTCHAR A47B
ENCODING 42107
SWIDTH 960 0
DWIDTH 16 0
BBX 16 16 0 -4
BITMAP
0808
0808
7F7F
0808
0808
0220
0210
0208
7FFF
0100
0100
0080
0041
0021
0019
0007
ENDCHAR

STARTCHAR A47C
ENCODING 42108
SWIDTH 960 0
DWIDTH 16 0
BBX 16 16 0 -4
BITMAP
0808
0808
7F7F
0808
0808
3FFE
0002
0002
1FFE
1000
2000
3FFF
0001
0001
0002
007C
ENDCHAR

STARTCHAR A47D
ENCODING 42109
SWIDTH 960 0
DWIDTH 16 0
BBX 16 16 0 -4
BITMAP
0808
0808
7F7F
0808
0808
3FFC
0004
0004
0004
3FFC
2004
2001
2001
2001
1FFF
0000
ENDCHAR

STARTCHAR A47E
ENCODING 42110
SWIDTH 960 0
DWIDTH 16 0
BBX 16 16 0 -4
BITMAP
0808
7F7F
0808
0808
1FF8
0010
0020
00C0
0080
7FFF
0080
0080
0080
0080
0080
0300
ENDCHAR

STARTCHAR A4A1
ENCODING 42145
SWIDTH 960 0
DWIDTH 16 0
BBX 16 16 0 -4
BITMAP
0000
03C0
0420
0810
0830
0850
0890
0910
0A10
0C10
0810
0420
03C0
0000
0000
0000
ENDCHAR

STARTCHAR A4A2
ENCODING 42146
SWIDTH 960 0
DWIDTH 16 0
BBX 16 16 0 -4
BITMAP
0000
0080
0180
0280
0080
0080
0080
0080
0080
0080
0080
0080
03E0
0000
0000
0000
ENDCHAR

STARTCHAR A4A3
ENCODING 42147
SWIDTH 960 0
DWIDTH 16 0
BBX 16 16 0 -4
BITMAP
0000
03C0
0420
0810
0810
0020
0040
0080
0100
0200
0410
0810
0FF0
0000
0000
0000
ENDCHAR

STARTCHAR A4A4
ENCODING 42148
SWIDTH 960 0
DWIDTH 16 0
BBX 16 16 0 -4
BITMAP
0000
03E0
0410
0010
0010
0010
01E0
0010
0010
0010
0810
0410
03E0
0000
0000
0000
ENDCHAR

STARTCHAR A4A5
ENCODING 42149
SWIDTH 960 0
DWIDTH 16 0
BBX 16 16 0 -4
BITMAP
0000
0040
00C0
0140
0240
0440
0840
1040
1040
1FF8
0040
0040
01F0
0000
0000
0000
ENDCHAR

STARTCHAR A4A6
ENCODING 42150
SWIDTH 960 0
DWIDTH 16 0
BBX 16 16 0 -4
BITMAP
0000
0FE0
0800
0800
0800
0800
0BC0
0C20
0010
0010
0010
0820
07C0
0000
0000
0000
ENDCHAR

STARTCHAR A4A7
ENCODING 42151
SWIDTH 960 0
DWIDTH 16 0
BBX 16 16 0 -4
BITMAP
0000
03C0
0420
0810
0800
0800
0BC0
0C20
0810
0810
0810
0420
03C0
0000
0000
0000
ENDCHAR

STARTCHAR A4A8
ENCODING 42152
SWIDTH 960 0
DWIDTH 16 0
BBX 16 16 0 -4
BITMAP
0000
0FF0
0810
0810
0020
0040
0040
0080
0080
0100
0100
0100
0100
0000
0000
0000
ENDCHAR

STARTCHAR A4A9
ENCODING 42153
SWIDTH 960 0
DWIDTH 16 0
BBX 16 16 0 -4
BITMAP
0000
03E0
0410
0410
0410
0410
03E0
0410
0410
0410
0410
0410
03E0
0000
0000
0000
ENDCHAR

STARTCHAR A4AA
ENCODING 42154
SWIDTH 960 0
DWIDTH 16 0
BBX 16 16 0 -4
BITMAP
0000
03C0
0420
0810
0810
0810
0430
03D0
0010
0010
0810
0420
03C0
0000
0000
0000
ENDCHAR

STARTCHAR A4AB
ENCODING 42155
SWIDTH 960 0
DWIDTH 16 0
BBX 16 16 0 -4
BITMAP
0000
03E0
0080
0080
0080
0080
0080
0080
0080
0080
0080
0080
03E0
0000
0000
0000
ENDCHAR

STARTCHAR A4AC
ENCODING 42156
SWIDTH 960 0
DWIDTH 16 0
BBX 16 16 0 -4
BITMAP
0000
0FF8
0220
0220
0220
0220
0220
0220
0220
0220
0220
0220
0FF8
0000
0000
0000
ENDCHAR

STARTCHAR A4AD
ENCODING 42157
SWIDTH 960 0
DWIDTH 16 0
BBX 16 16 0 -4
BITMAP
0000
1FFC
0490
0490
0490
0490
0490
0490
0490
0490
0490
0490
1FFC
0000
0000
0000
ENDCHAR

STARTCHAR A4AE
ENCODING 42158
SWIDTH 960 0
DWIDTH 16 0
BBX 16 16 0 -4
BITMAP
0000
3B8E
1104
1104
1104
1088
1088
1088
1050
1050
1050
1020
3820
0000
0000
0000
ENDCHAR

STARTCHAR A4AF
ENCODING 42159
SWIDTH 960 0
DWIDTH 16 0
BBX 16 16 0 -4
BITMAP
0000
1C1C
0808
0808
0808
0410
0410
0220
0220
0140
0140
0080
0080
0000
0000
0000
ENDCHAR

STARTCHAR A4B0
ENCODING 42160
SWIDTH 960 0
DWIDTH 16 0
BBX 16 16 0 -4
BITMAP
0000
38EE
1044
1044
1044
0884
0884
0884
0504
0504
0504
0204
020E
0000
0000
0000
ENDCHAR

STARTCHAR A4B1
ENCODING 42161
SWIDTH 960 0
DWIDTH 16 0
BBX 16 16 0 -4
BITMAP
0000
71FE
2094
2094
2094
1114
1114
1114
0A14
0A14
0A14
0414
043E
0000
0000
0000
ENDCHAR

STARTCHAR A4B2
ENCODING 42162
SWIDTH 960 0
DWIDTH 16 0
BBX 16 16 0 -4
BITMAP
0000
71FF
20AA
20AA
20AA
112A
112A
112A
0A2A
0A2A
0A2A
042A
047F
0000
0000
0000
ENDCHAR

STARTCHAR A4B3
ENCODING 42163
SWIDTH 960 0
DWIDTH 16 0
BBX 16 16 0 -4
BITMAP
0000
3B8E
1104
1088
1088
1050
1020
1020
1050
1088
1088
1104
3B8E
0000
0000
0000
ENDCHAR

STARTCHAR A4B4
ENCODING 42164
SWIDTH 960 0
DWIDTH 16 0
BBX 16 16 0 -4
BITMAP
0000
1C1C
0808
0410
0220
0140
0080
0080
0140
0220
0410
0808
1C1C
0000
0000
0000
ENDCHAR

STARTCHAR A4B5
ENCODING 42165
SWIDTH 960 0
DWIDTH 16 0
BBX 16 16 0 -4
BITMAP
0080
0080
0080
0080
0080
0080
0080
0080
0080
0080
0080
0080
0080
0080
0080
0080
ENDCHAR

STARTCHAR A4B6
ENCODING 42166
SWIDTH 960 0
DWIDTH 16 0
BBX 16 16 0 -4
BITMAP
0020
0020
0420
0420
0420
0420
0420
0420
0420
0420
0420
0420
0420
0020
0020
0020
ENDCHAR

STARTCHAR A4B7
ENCODING 42167
SWIDTH 960 0
DWIDTH 16 0
BBX 16 16 0 -4
BITMAP
0008
0008
0888
0888
0888
0888
0888
0888
0888
0888
0888
0888
0888
0888
0808
0008
ENDCHAR

STARTCHAR A4B8
ENCODING 42168
SWIDTH 960 0
DWIDTH 16 0
BBX 16 16 0 -4
BITMAP
0008
0008
0008
1010
0810
0420
0220
0140
0080
0140
0140
0220
0410
0808
1004
2003
ENDCHAR

STARTCHAR A4B9
ENCODING 42169
SWIDTH 960 0
DWIDTH 16 0
BBX 16 16 0 -4
BITMAP
0110
0220
0220
0240
0280
0180
0240
0420
0420
0420
0420
0420
0420
0420
0240
0180
ENDCHAR

STARTCHAR A4BA
ENCODING 42170
SWIDTH 960 0
DWIDTH 16 0
BBX 16 16 0 -4
BITMAP
0000
0080
0080
0080
3FFE
0000
0000
0000
0000
0000
0000
0000
0000
0000
0000
0000
ENDCHAR

STARTCHAR A4BB
ENCODING 42171
SWIDTH 960 0
DWIDTH 16 0
BBX 16 16 0 -4
BITMAP
0000
0080
0080
0080
3FFE
0000
0000
0000
0FF8
0000
0000
0000
0000
0000
0000
0000
ENDCHAR

STARTCHAR A4BC
ENCODING 42172
SWIDTH 960 0
DWIDTH 16 0
BBX 16 16 0 -4
BITMAP
0000
0080
0080
0080
3FFE
0000
0000
0000
0000
0FF8
0000
0000
0000
0000
7FFF
0000
ENDCHAR

STARTCHAR A4BD
ENCODING 42173
SWIDTH 960 0
DWIDTH 16 0
BBX 16 16 0 -4
BITMAP
0400
0400
0400
0800
1FF8
0008
0008
0410
0220
0140
0080
0140
0220
0410
080C
3003
ENDCHAR

STARTCHAR A4BE
ENCODING 42174
SWIDTH 960 0
DWIDTH 16 0
BBX 16 16 0 -4
BITMAP
0080
0080
0080
0080
0080
0080
0080
7FFF
0080
0080
0080
0080
0080
0080
0080
0080
ENDCHAR

STARTCHAR A4BF
ENCODING 42175
SWIDTH 960 0
DWIDTH 16 0
BBX 16 16 0 -4
BITMAP
0410
0410
0410
0410
0410
0410
0410
7FFF
0410
0410
0410
0410
0410
0410
0410
0410
ENDCHAR

STARTCHAR A4C0
ENCODING 42176
SWIDTH 960 0
DWIDTH 16 0
BBX 16 16 0 -4
BITMAP
0888
0888
0888
0888
0888
0888
0888
7FFF
0888
0888
0888
0888
0888
0888
0888
0808
ENDCHAR

STARTCHAR A4C1
ENCODING 42177
SWIDTH 960 0
DWIDTH 16 0
BBX 16 16 0 -4
BITMAP
0000
0080
0080
0140
0140
0220
0220
0410
07F0
0410
0808
0808
1C1C
0000
0000
0000
ENDCHAR

STARTCHAR A4C2
ENCODING 42178
SWIDTH 960 0
DWIDTH 16 0
BBX 16 16 0 -4
BITMAP
0000
0FE0
0410
0410
0410
0410
07E0
0410
0410
0410
0410
0410
0FE0
0000
0000
0000
ENDCHAR

STARTCHAR A4C3
ENCODING 42179
SWIDTH 960 0
DWIDTH 16 0
BBX 16 16 0 -4
BITMAP
0000
03C0
0420
0810
0800
0800
0800
0800
0800
0800
0810
0420
03C0
0000
0000
0000
ENDCHAR

STARTCHAR A4C4
ENCODING 42180
SWIDTH 960 0
DWIDTH 16 0
BBX 16 16 0 -4
BITMAP
0000
0FC0
0420
0410
0410
0410
0410
0410
0410
0410
0410
0420
0FC0
0000
0000
0000
ENDCHAR

STARTCHAR A4C5
ENCODING 42181
SWIDTH 960 0
DWIDTH 16 0
BBX 16 16 0 -4
BITMAP
0000
0FF0
0410
0410
0400
0440
07C0
0440
0400
0400
0410
0410
0FF0
0000
0000
0000
ENDCHAR

STARTCHAR A4C6
ENCODING 42182
SWIDTH 960 0
DWIDTH 16 0
BBX 16 16 0 -4
BITMAP
0000
0FF0
0410
0410
0400
0440
07C0
0440
0400
0400
0400
0400
0E00
0000
0000
0000
ENDCHAR

STARTCHAR A4C7
ENCODING 42183
SWIDTH 960 0
DWIDTH 16 0
BBX 16 16 0 -4
BITMAP
0000
03C0
0420
0810
0800
0800
0878
0810
0810
0810
0830
0450
0390
0000
0000
0000
ENDCHAR

STARTCHAR A4C8
ENCODING 42184
SWIDTH 960 0
DWIDTH 16 0
BBX 16 16 0 -4
BITMAP
0000
0E38
0410
0410
0410
0410
07F0
0410
0410
0410
0410
0410
0E38
0000
0000
0000
ENDCHAR

STARTCHAR A4C9
ENCODING 42185
SWIDTH 960 0
DWIDTH 16 0
BBX 16 16 0 -4
BITMAP
0000
03E0
0080
0080
0080
0080
0080
0080
0080
0080
0080
0080
03E0
0000
0000
0000
ENDCHAR

STARTCHAR A4CA
ENCODING 42186
SWIDTH 960 0
DWIDTH 16 0
BBX 16 16 0 -4
BITMAP
0000
01F0
0040
0040
0040
0040
0040
0040
0040
0040
0840
0840
0780
0000
0000
0000
ENDCHAR

STARTCHAR A4CB
ENCODING 42187
SWIDTH 960 0
DWIDTH 16 0
BBX 16 16 0 -4
BITMAP
0000
0E38
0410
0420
0440
0480
0540
0640
0420
0420
0410
0410
0E38
0000
0000
0000
ENDCHAR

STARTCHAR A4CC
ENCODING 42188
SWIDTH 960 0
DWIDTH 16 0
BBX 16 16 0 -4
BITMAP
0000
0E00
0400
0400
0400
0400
0400
0400
0400
0400
0410
0410
0FF0
0000
0000
0000
ENDCHAR

STARTCHAR A4CD
ENCODING 42189
SWIDTH 960 0
DWIDTH 16 0
BBX 16 16 0 -4
BITMAP
0000
180C
0808
0C18
0A28
0A28
0948
0948
0888
0888
0808
0808
1C1C
0000
0000
0000
ENDCHAR

STARTCHAR A4CE
ENCODING 42190
SWIDTH 960 0
DWIDTH 16 0
BBX 16 16 0 -4
BITMAP
0000
1838
0810
0810
0C10
0A10
0910
0890
0850
0830
0810
0810
1C10
0000
0000
0000
ENDCHAR

STARTCHAR A4CF
ENCODING 42191
SWIDTH 960 0
DWIDTH 16 0
BBX 16 16 0 -4
BITMAP
0000
03C0
0420
0810
0810
0810
0810
0810
0810
0810
0810
0420
03C0
0000
0000
0000
ENDCHAR

STARTCHAR A4D0
ENCODING 42192
SWIDTH 960 0
DWIDTH 16 0
BBX 16 16 0 -4
BITMAP
0000
0FE0
0410
0410
0410
0410
07E0
0400
0400
0400
0400
0400
0E00
0000
0000
0000
ENDCHAR

STARTCHAR A4D1
ENCODING 42193
SWIDTH 960 0
DWIDTH 16 0
BBX 16 16 0 -4
BITMAP
0000
03C0
0420
0810
0810
0810
0810
0810
0810
0810
0910
04A0
03C0
0020
0000
0000
ENDCHAR

STARTCHAR A4D2
ENCODING 42194
SWIDTH 960 0
DWIDTH 16 0
BBX 16 16 0 -4
BITMAP
0000
0FE0
0410
0410
0410
0410
07E0
0480
0440
0440
0420
0410
0E08
0000
0000
0000
ENDCHAR

STARTCHAR A4D3
ENCODING 42195
SWIDTH 960 0
DWIDTH 16 0
BBX 16 16 0 -4
BITMAP
0000
03E0
0410
0400
0400
0400
03E0
0010
0010
0010
0010
0410
03E0
0000
0000
0000
ENDCHAR

STARTCHAR A4D4
ENCODING 42196
SWIDTH 960 0
DWIDTH 16 0
BBX 16 16 0 -4
BITMAP
0000
0FF8
0888
0888
0080
0080
0080
0080
0080
0080
0080
0080
01C0
0000
0000
0000
ENDCHAR

STARTCHAR A4D5
ENCODING 42197
SWIDTH 960 0
DWIDTH 16 0
BBX 16 16 0 -4
BITMAP
0000
0E38
0410
0410
0410
0410
0410
0410
0410
0410
0410
0410
03E0
0000
0000
0000
ENDCHAR

STARTCHAR A4D6
ENCODING 42198
SWIDTH 960 0
DWIDTH 16 0
BBX 16 16 0 -4
BITMAP
0000
1C1C
0808
0808
0808
0410
0410
0220
0220
0140
0140
0080
0080
0000
0000
0000
ENDCHAR

STARTCHAR A4D7
ENCODING 42199
SWIDTH 960 0
DWIDTH 16 0
BBX 16 16 0 -4
BITMAP
0000
7007
2082
2082
2082
1144
1144
1144
0A28
0A28
0A28
0410
0410
0000
0000
0000
ENDCHAR

STARTCHAR A4D8
ENCODING 42200
SWIDTH 960 0
DWIDTH 16 0
BBX 16 16 0 -4
BITMAP
0000
1C1C
0808
0410
0220
0140
0080
0080
0140
0220
0410
0808
1C1C
0000
0000
0000
ENDCHAR

STARTCHAR A4D9
ENCODING 42201
SWIDTH 960 0
DWIDTH 16 0
BBX 16 16 0 -4
BITMAP
0000
1C1C
0808
0410
0220
0220
0140
0140
0080
0080
0080
0080
03E0
0000
0000
0000
ENDCHAR

STARTCHAR A4DA
ENCODING 42202
SWIDTH 960 0
DWIDTH 16 0
BBX 16 16 0 -4
BITMAP
0000
0FF8
0808
0010
0020
0040
0080
0080
0100
0200
0408
0808
0FF8
0000
0000
0000
ENDCHAR

STARTCHAR A4DB
ENCODING 42203
SWIDTH 960 0
DWIDTH 16 0
BBX 16 16 0 -4
BITMAP
0000
0000
0000
0000
0000
0000
07C0
0820
0020
07E0
0820
0820
07D0
0000
0000
0000
ENDCHAR

STARTCHAR A4DC
ENCODING 42204
SWIDTH 960 0
DWIDTH 16 0
BBX 16 16 0 -4
BITMAP
0000
0C00
0400
0400
0400
0400
05E0
0610
0410
0410
0410
0610
0DE0
0000
0000
0000
ENDCHAR

STARTCHAR A4DD
ENCODING 42205
SWIDTH 960 0
DWIDTH 16 0
BBX 16 16 0 -4
BITMAP
0000
0000
0000
0000
0000
0000
03C0
0420
0800
0800
0810
0420
03C0
0000
0000
0000
ENDCHAR

STARTCHAR A4DE
ENCODING 42206
SWIDTH 960 0
DWIDTH 16 0
BBX 16 16 0 -4
BITMAP
0000
0060
0020
0020
0020
0020
07A0
0860
0820
0820
0820
0860
07B0
0000
0000
0000
ENDCHAR

STARTCHAR A4DF
ENCODING 42207
SWIDTH 960 0
DWIDTH 16 0
BBX 16 16 0 -4
BITMAP
0000
0000
0000
0000
0000
0000
03E0
0410
0410
07F0
0400
0410
03E0
0000
0000
0000
ENDCHAR

STARTCHAR A4E0
ENCODING 42208
SWIDTH 960 0
DWIDTH 16 0
BBX 16 16 0 -4
BITMAP
0000
00E0
0110
0100
0100
0100
0FE0
0100
0100
0100
0100
0100
0100
0000
0000
0000
ENDCHAR

STARTCHAR A4E1
ENCODING 42209
SWIDTH 960 0
DWIDTH 16 0
BBX 16 16 0 -4
BITMAP
0000
0000
0000
0000
0000
0000
03D0
0420
0420
03C0
0100
02E0
0410
0410
03E0
0000
ENDCHAR

STARTCHAR A4E2
ENCODING 42210
SWIDTH 960 0
DWIDTH 16 0
BBX 16 16 0 -4
BITMAP
0000
0C00
0400
0400
0400
0400
05C0
0620
0420
0420
0420
0420
0420
0000
0000
0000
ENDCHAR

STARTCHAR A4E3
ENCODING 42211
SWIDTH 960 0
DWIDTH 16 0
BBX 16 16 0 -4
BITMAP
0000
0080
0080
0000
0000
0000
0180
0080
0080
0080
0080
0080
0080
0000
0000
0000
ENDCHAR

STARTCHAR A4E4
ENCODING 42212
SWIDTH 960 0
DWIDTH 16 0
BBX 16 16 0 -4
BITMAP
0000
0040
0040
0000
0000
0000
00C0
0040
0040
0040
0040
0040
0840
0840
0780
0000
ENDCHAR

STARTCHAR A4E5
ENCODING 42213
SWIDTH 960 0
DWIDTH 16 0
BBX 16 16 0 -4
BITMAP
0000
0C00
0400
0400
0400
0400
0420
0440
0480
0500
0680
0440
0420
0000
0000
0000
ENDCHAR

STARTCHAR A4E6
ENCODING 42214
SWIDTH 960 0
DWIDTH 16 0
BBX 16 16 0 -4
BITMAP
0000
0180
0080
0080
0080
0080
0080
0080
0080
0080
0080
0080
0080
0000
0000
0000
ENDCHAR

STARTCHAR A4E7
ENCODING 42215
SWIDTH 960 0
DWIDTH 16 0
BBX 16 16 0 -4
BITMAP
0000
0000
0000
0000
0000
0000
0B30
0CC8
0888
0888
0888
0888
0888
0000
0000
0000
ENDCHAR

STARTCHAR A4E8
ENCODING 42216
SWIDTH 960 0
DWIDTH 16 0
BBX 16 16 0 -4
BITMAP
0000
0000
0000
0000
0000
0000
09C0
0620
0420
0420
0420
0420
0420
0000
0000
0000
ENDCHAR

STARTCHAR A4E9
ENCODING 42217
SWIDTH 960 0
DWIDTH 16 0
BBX 16 16 0 -4
BITMAP
0000
0000
0000
0000
0000
0000
03E0
0410
0410
0410
0410
0410
03E0
0000
0000
0000
ENDCHAR

STARTCHAR A4EA
ENCODING 42218
SWIDTH 960 0
DWIDTH 16 0
BBX 16 16 0 -4
BITMAP
0000
0000
0000
0000
0000
0000
05E0
0610
0410
0410
0410
0610
05E0
0400
0400
0000
ENDCHAR

STARTCHAR A4EB
ENCODING 42219
SWIDTH 960 0
DWIDTH 16 0
BBX 16 16 0 -4
BITMAP
0000
0000
0000
0000
0000
0000
03D0
0430
0410
0410
0410
0430
03D0
0010
0010
0000
ENDCHAR

STARTCHAR A4EC
ENCODING 42220
SWIDTH 960 0
DWIDTH 16 0
BBX 16 16 0 -4
BITMAP
0000
0000
0000
0000
0000
0000
09E0
0610
0400
0400
0400
0400
0400
0000
0000
0000
ENDCHAR

STARTCHAR A4ED
ENCODING 42221
SWIDTH 960 0
DWIDTH 16 0
BBX 16 16 0 -4
BITMAP
0000
0000
0000
0000
0000
0000
03E0
0410
0400
03E0
0010
0410
03E0
0000
0000
0000
ENDCHAR

STARTCHAR A4EE
ENCODING 42222
SWIDTH 960 0
DWIDTH 16 0
BBX 16 16 0 -4
BITMAP
0000
0200
0200
0200
0200
0FC0
0200
0200
0200
0200
0200
0220
01C0
0000
0000
0000
ENDCHAR

STARTCHAR A4EF
ENCODING 42223
SWIDTH 960 0
DWIDTH 16 0
BBX 16 16 0 -4
BITMAP
0000
0000
0000
0000
0000
0000
0420
0420
0420
0420
0420
0420
03D0
0000
0000
0000
ENDCHAR

STARTCHAR A4F0
ENCODING 42224
SWIDTH 960 0
DWIDTH 16 0
BBX 16 16 0 -4
BITMAP
0000
0000
0000
0000
0000
0000
0410
0410
0220
0220
0140
0140
0080
0000
0000
0000
ENDCHAR

STARTCHAR A4F1
ENCODING 42225
SWIDTH 960 0
DWIDTH 16 0
BBX 16 16 0 -4
BITMAP
0000
0000
0000
0000
0000
0000
0410
0410
0490
0490
0490
0550
0220
0000
0000
0000
ENDCHAR

STARTCHAR A4F2
ENCODING 42226
SWIDTH 960 0
DWIDTH 16 0
BBX 16 16 0 -4
BITMAP
0000
0000
0000
0000
0000
0000
0410
0220
0140
0080
0140
0220
0410
0000
0000
0000
ENDCHAR

STARTCHAR A4F3
ENCODING 42227
SWIDTH 960 0
DWIDTH 16 0
BBX 16 16 0 -4
BITMAP
0000
0000
0000
0000
0000
0000
0420
0420
0220
0240
0140
0080
0080
0100
0600
0000
ENDCHAR

STARTCHAR A4F4
ENCODING 42228
SWIDTH 960 0
DWIDTH 16 0
BBX 16 16 0 -4
BITMAP
0000
0000
0000
0000
0000
0000
07F0
0020
0040
0080
0100
0200
07F0
0000
0000
0000
ENDCHAR

STARTCHAR A4F5
ENCODING 42229
SWIDTH 960 0
DWIDTH 16 0
BBX 16 16 0 -4
BITMAP
0000
0080
0080
0140
0140
0220
0220
0410
07F0
0410
0808
0808
1C1C
0000
0000
0000
ENDCHAR

STARTCHAR A4F6
ENCODING 42230
SWIDTH 960 0
DWIDTH 16 0
BBX 16 16 0 -4
BITMAP
0000
0FE0
0410
0410
0410
0410
07E0
0410
0410
0410
0410
0410
0FE0
0000
0000
0000
ENDCHAR

STARTCHAR A4F7
ENCODING 42231
SWIDTH 960 0
DWIDTH 16 0
BBX 16 16 0 -4
BITMAP
0000
0FF8
0408
0408
0400
0400
0400
0400
0400
0400
0400
0400
0E00
0000
0000
0000
ENDCHAR

STARTCHAR A4F8
ENCODING 42232
SWIDTH 960 0
DWIDTH 16 0
BBX 16 16 0 -4
BITMAP
0000
0080
0080
0140
0140
0220
0220
0410
0410
0808
0808
1004
1FFC
0000
0000
0000
ENDCHAR

STARTCHAR A4F9
ENCODING 42233
SWIDTH 960 0
DWIDTH 16 0
BBX 16 16 0 -4
BITMAP
0000
0FF0
0410
0410
0400
0440
07C0
0440
0400
0400
0410
0410
0FF0
0000
0000
0000
ENDCHAR

STARTCHAR A4FA
ENCODING 42234
SWIDTH 960 0
DWIDTH 16 0
BBX 16 16 0 -4
BITMAP
0000
0FF8
0808
0010
0020
0040
0080
0080
0100
0200
0408
0808
0FF8
0000
0000
0000
ENDCHAR

STARTCHAR A4FB
ENCODING 42235
SWIDTH 960 0
DWIDTH 16 0
BBX 16 16 0 -4
BITMAP
0000
0E38
0410
0410
0410
0410
07F0
0410
0410
0410
0410
0410
0E38
0000
0000
0000
ENDCHAR

STARTCHAR A4FC
ENCODING 42236
SWIDTH 960 0
DWIDTH 16 0
BBX 16 16 0 -4
BITMAP
0000
03C0
0420
0810
0810
0A50
0BD0
0A50
0810
0810
0810
0420
03C0
0000
0000
0000
ENDCHAR

STARTCHAR A4FD
ENCODING 42237
SWIDTH 960 0
DWIDTH 16 0
BBX 16 16 0 -4
BITMAP
0000
03E0
0080
0080
0080
0080
0080
0080
0080
0080
0080
0080
03E0
0000
0000
0000
ENDCHAR

STARTCHAR A4FE
ENCODING 42238
SWIDTH 960 0
DWIDTH 16 0
BBX 16 16 0 -4
BITMAP
0000
0E38
0410
0420
0440
0480
0540
0640
0420
0420
0410
0410
0E38
0000
0000
0000
ENDCHAR

STARTCHAR A521
ENCODING 42273
SWIDTH 960 0
DWIDTH 16 0
BBX 16 16 0 -4
BITMAP
0808
7F7F
0808
0808
007C
1F80
0080
0080
0080
7FFF
0080
0080
0080
0080
0080
0080
ENDCHAR

STARTCHAR A522
ENCODING 42274
SWIDTH 960 0
DWIDTH 16 0
BBX 16 16 0 -4
BITMAP
0808
0808
7F7F
0808
0808
0000
07F0
0410
0510
0490
0450
0450
0811
0811
1011
200F
ENDCHAR

STARTCHAR A523
ENCODING 42275
SWIDTH 960 0
DWIDTH 16 0
BBX 16 16 0 -4
BITMAP
0808
0808
7F7F
0808
0908
0100
0100
3FF0
0110
0110
0210
0210
0511
0891
1011
200F
ENDCHAR

STARTCHAR A524
ENCODING 42276
SWIDTH 960 0
DWIDTH 16 0
BBX 16 16 0 -4
BITMAP
00F0
0700
78C6
0438
0260
03A0
3C10
0070
0188
0608
3838
00C8
0308
3C10
0020
01C0
ENDCHAR

STARTCHAR A525
ENCODING 42277
SWIDTH 960 0
DWIDTH 16 0
BBX 16 16 0 -4
BITMAP
4000
21FE
1102
0102
0102
7102
11FE
1100
2100
7100
1200
1200
1200
2000
5C00
03FE
ENDCHAR

STARTCHAR A526
ENCODING 42278
SWIDTH 960 0
DWIDTH 16 0
BBX 16 16 0 -4
BITMAP
0020
4020
2020
1020
0222
7222
1222
1222
2222
7222
1222
1222
13FE
2202
5C00
03FF
ENDCHAR

STARTCHAR A527
ENCODING 42279
SWIDTH 960 0
DWIDTH 16 0
BBX 16 16 0 -4
BITMAP
0800
041F
0411
7FD2
0012
0014
1F14
1112
1111
1111
1111
1111
1136
2150
2190
4010
ENDCHAR

STARTCHAR A528
ENCODING 42280
SWIDTH 960 0
DWIDTH 16 0
BBX 16 16 0 -4
BITMAP
0800
041F
0411
7FD2
0812
0814
0814
0F92
0891
0891
1091
1091
1096
2090
2110
4E10
ENDCHAR

STARTCHAR A529
ENCODING 42281
SWIDTH 960 0
DWIDTH 16 0
BBX 16 16 0 -4
BITMAP
0400
041F
0411
7FD2
4452
4454
4494
0412
0611
0611
0A11
0A11
1216
1250
2290
4310
ENDCHAR

STARTCHAR A52A
ENCODING 42282
SWIDTH 960 0
DWIDTH 16 0
BBX 16 16 0 -4
BITMAP
0400
041F
0411
3F92
0412
0414
0414
7FD2
0411
0411
0811
0A11
1116
1090
2050
4010
ENDCHAR

STARTCHAR A52B
ENCODING 42283
SWIDTH 960 0
DWIDTH 16 0
BBX 16 16 0 -4
BITMAP
0000
3F9F
0011
0012
0012
7FD4
1214
1212
1211
1211
1211
1211
1256
2290
2310
4010
ENDCHAR

STARTCHAR A52C
ENCODING 42284
SWIDTH 960 0
DWIDTH 16 0
BBX 16 16 0 -4
BITMAP
0400
021F
0111
1112
1092
2094
2054
5FB2
0891
0891
0891
0891
1096
1090
2110
4610
ENDCHAR

STARTCHAR A52D
ENCODING 42285
SWIDTH 960 0
DWIDTH 16 0
BBX 16 16 0 -4
BITMAP
0108
7D08
4508
4908
4908
51EF
5108
4908
4508
4508
4508
4509
5909
4129
4149
418E
ENDCHAR

STARTCHAR A52E
ENCODING 42286
SWIDTH 960 0
DWIDTH 16 0
BBX 16 16 0 -4
BITMAP
0000
7DFF
4500
4900
497E
5142
5142
4942
4542
4542
4542
455C
5941
4241
4241
443E
ENDCHAR

STARTCHAR A52F
ENCODING 42287
SWIDTH 960 0
DWIDTH 16 0
BBX 16 16 0 -4
BITMAP
0000
7C10
4410
4810
4810
5090
5090
489E
4490
4490
4490
4490
5890
4090
43FF
4000
ENDCHAR

STARTCHAR A530
ENCODING 42288
SWIDTH 960 0
DWIDTH 16 0
BBX 16 16 0 -4
BITMAP
0020
7C40
4440
4888
4884
513E
53D1
4890
4490
4490
4490
4490
5890
4111
4111
421E
ENDCHAR

STARTCHAR A531
ENCODING 42289
SWIDTH 960 0
DWIDTH 16 0
BBX 16 16 0 -4
BITMAP
0220
0220
3FFE
2222
2222
3FFE
0220
0220
7FFF
4221
4221
7FFF
0420
0820
1020
6020
ENDCHAR

STARTCHAR A532
ENCODING 42290
SWIDTH 960 0
DWIDTH 16 0
BBX 16 16 0 -4
BITMAP
0820
0810
13FF
1201
2201
301C
51E0
5020
1020
13FF
1020
1020
1021
1021
1021
101F
ENDCHAR

STARTCHAR A533
ENCODING 42291
SWIDTH 960 0
DWIDTH 16 0
BBX 16 16 0 -4
BITMAP
0840
0820
17FF
1000
2088
3104
5202
5088
1088
1050
1050
1020
1050
1088
1104
1603
ENDCHAR

STARTCHAR A534
ENCODING 42292
SWIDTH 960 0
DWIDTH 16 0
BBX 16 16 0 -4
BITMAP
0820
0810
13FF
1010
2020
3042
50C4
5028
1011
1021
10C2
1304
1018
1024
10C2
1301
ENDCHAR

STARTCHAR A535
ENCODING 42293
SWIDTH 960 0
DWIDTH 16 0
BBX 16 16 0 -4
BITMAP
0820
0820
1020
17BF
2049
3049
508A
500A
1008
1008
1788
1014
1012
1022
1041
1181
ENDCHAR

STARTCHAR A536
ENCODING 42294
SWIDTH 960 0
DWIDTH 16 0
BBX 16 16 0 -4
BITMAP
0801
0BF1
1125
1125
2125
3125
57FD
5125
1125
1125
1125
1125
1125
1221
1221
1426
ENDCHAR

STARTCHAR A537
ENCODING 42295
SWIDTH 960 0
DWIDTH 16 0
BBX 16 16 0 -4
BITMAP
0820
0820
17FF
1020
23FE
3022
5022
51FE
1120
1220
13FF
1061
1051
108B
1104
1603
ENDCHAR

STARTCHAR A538
ENCODING 42296
SWIDTH 960 0
DWIDTH 16 0
BBX 16 16 0 -4
BITMAP
0820
0820
1020
17FF
2020
3020
5020
51FC
1000
1000
11FC
1104
1104
1104
11FC
1104
ENDCHAR

STARTCHAR A539
ENCODING 42297
SWIDTH 960 0
DWIDTH 16 0
BBX 16 16 0 -4
BITMAP
0800
0FFF
1104
1104
21FC
3104
5104
51FC
1104
1104
17FF
1004
1004
1004
1004
1004
ENDCHAR

STARTCHAR A53A
ENCODING 42298
SWIDTH 960 0
DWIDTH 16 0
BBX 16 16 0 -4
BITMAP
0820
0820
13FF
1048
2084
3102
52FD
5400
13FF
1040
1080
10FE
1002
1002
1004
1038
ENDCHAR

STARTCHAR A53B
ENCODING 42299
SWIDTH 960 0
DWIDTH 16 0
BBX 16 16 0 -4
BITMAP
0800
0BFF
1040
1084
2102
321E
53E1
5021
1020
1020
13FE
1020
1020
1020
17FF
1000
ENDCHAR

STARTCHAR A53C
ENCODING 42300
SWIDTH 960 0
DWIDTH 16 0
BBX 16 16 0 -4
BITMAP
0800
0BFC
1204
1204
23FC
3204
5204
53FC
1240
1244
1248
1230
1210
1248
1284
1303
ENDCHAR

STARTCHAR A53D
ENCODING 42301
SWIDTH 960 0
DWIDTH 16 0
BBX 16 16 0 -4
BITMAP
0808
0848
1048
1048
2248
324F
5278
5248
1248
1248
1248
1248
1249
1259
1269
1787
ENDCHAR

STARTCHAR A53E
ENCODING 42302
SWIDTH 960 0
DWIDTH 16 0
BBX 16 16 0 -4
BITMAP
0800
0BFE
1202
1202
22FA
3202
5202
52FA
128A
128A
128A
12FA
1202
1202
1202
120E
ENDCHAR

STARTCHAR A53F
ENCODING 42303
SWIDTH 960 0
DWIDTH 16 0
BBX 16 16 0 -4
BITMAP
0800
0BFE
1202
1202
22FA
328A
528A
528A
128A
128A
12FA
128A
1202
13FE
1202
1000
ENDCHAR

STARTCHAR A540
ENCODING 42304
SWIDTH 960 0
DWIDTH 16 0
BBX 16 16 0 -4
BITMAP
0880
0880
1100
11FE
2202
3402
51F2
5112
1112
11F2
1112
1112
11F2
1002
1004
1038
ENDCHAR

STARTCHAR A541
ENCODING 42305
SWIDTH 960 0
DWIDTH 16 0
BBX 16 16 0 -4
BITMAP
0880
08F8
1108
1210
23FF
3200
5200
527C
1244
1244
1244
125C
1240
1441
1441
103F
ENDCHAR

STARTCHAR A542
ENCODING 42306
SWIDTH 960 0
DWIDTH 16 0
BBX 16 16 0 -4
BITMAP
0920
0920
1120
13FE
2220
3420
5020
57FF
1090
1090
1090
1090
1111
1111
1211
140F
ENDCHAR

STARTCHAR A543
ENCODING 42307
SWIDTH 960 0
DWIDTH 16 0
BBX 16 16 0 -4
BITMAP
083C
0BE0
1020
1020
2020
37FF
5020
5020
1020
13FE
1202
1202
1202
1202
13FE
1202
ENDCHAR

STARTCHAR A544
ENCODING 42308
SWIDTH 960 0
DWIDTH 16 0
BBX 16 16 0 -4
BITMAP
0800
0840
1040
1080
23FE
3252
5252
5252
1252
1252
1252
1252
1252
1252
17FF
1000
ENDCHAR

STARTCHAR A545
ENCODING 42309
SWIDTH 960 0
DWIDTH 16 0
BBX 16 16 0 -4
BITMAP
0840
0840
1080
11FC
2144
3124
5124
5104
17FF
1104
1144
1124
1124
1204
1204
140C
ENDCHAR

STARTCHAR A546
ENCODING 42310
SWIDTH 960 0
DWIDTH 16 0
BBX 16 16 0 -4
BITMAP
0840
0840
1084
1102
221E
37E1
5121
5120
13FE
1220
1420
17FF
1020
1020
1020
1020
ENDCHAR

STARTCHAR A547
ENCODING 42311
SWIDTH 960 0
DWIDTH 16 0
BBX 16 16 0 -4
BITMAP
0900
0920
1120
17FF
2129
3129
5129
5229
1229
1229
1649
1149
1089
114F
1229
1400
ENDCHAR

STARTCHAR A548
ENCODING 42312
SWIDTH 960 0
DWIDTH 16 0
BBX 16 16 0 -4
BITMAP
0840
0820
1020
13FF
2201
3221
5024
53FF
1044
1044
1188
1048
1030
1028
10C6
1301
ENDCHAR

STARTCHAR A549
ENCODING 42313
SWIDTH 960 0
DWIDTH 16 0
BBX 16 16 0 -4
BITMAP
0840
0820
13FF
1200
221E
32F0
5210
5210
12FF
1210
1210
1210
1210
1411
1411
100F
ENDCHAR

STARTCHAR A54A
ENCODING 42314
SWIDTH 960 0
DWIDTH 16 0
BBX 16 16 0 -4
BITMAP
0800
0BFF
1040
1040
2080
33FF
5249
5249
1249
1249
1249
1249
1249
1249
1249
1203
ENDCHAR

STARTCHAR A54B
ENCODING 42315
SWIDTH 960 0
DWIDTH 16 0
BBX 16 16 0 -4
BITMAP
0880
0880
10FC
1104
2288
3450
5020
5050
118C
1603
11FC
1104
1104
1104
11FC
1104
ENDCHAR

STARTCHAR A54C
ENCODING 42316
SWIDTH 960 0
DWIDTH 16 0
BBX 16 16 0 -4
BITMAP
0820
0850
1088
1104
2202
3401
51FC
5000
1000
11FC
1104
1104
1104
1104
11FC
1104
ENDCHAR

STARTCHAR A54D
ENCODING 42317
SWIDTH 960 0
DWIDTH 16 0
BBX 16 16 0 -4
BITMAP
0000
3FFF
2001
4082
0080
0888
0488
0490
0080
3FFE
0080
0490
0888
1084
2082
0080
ENDCHAR

STARTCHAR A54E
ENCODING 42318
SWIDTH 960 0
DWIDTH 16 0
BBX 16 16 0 -4
BITMAP
0120
2120
1220
03FE
0220
0420
0020
1020
17FF
1090
2090
2090
2110
4111
4211
0C1F
ENDCHAR

STARTCHAR A54F
ENCODING 42319
SWIDTH 960 0
DWIDTH 16 0
BBX 16 16 0 -4
BITMAP
0020
2050
1088
0104
0202
04F9
0000
1000
11FC
1104
2104
2104
2104
4104
41FC
0104
ENDCHAR

STARTCHAR A550
ENCODING 42320
SWIDTH 960 0
DWIDTH 16 0
BBX 16 16 0 -4
BITMAP
0001
7FE1
1089
1089
1F89
1089
1089
1089
1F89
1089
1089
1389
7C89
0081
0081
0086
ENDCHAR

STARTCHAR A551
ENCODING 42321
SWIDTH 960 0
DWIDTH 16 0
BBX 16 16 0 -4
BITMAP
0400
0401
3F81
0409
0409
0409
7FC9
0009
0409
0409
3F89
0409
0409
0401
07C1
7C06
ENDCHAR

STARTCHAR A552
ENCODING 42322
SWIDTH 960 0
DWIDTH 16 0
BBX 16 16 0 -4
BITMAP
0401
0401
7FE9
0909
1089
2049
5FA9
0009
3FC9
0409
0809
0FC9
1049
0041
0041
0386
ENDCHAR

STARTCHAR A553
ENCODING 42323
SWIDTH 960 0
DWIDTH 16 0
BBX 16 16 0 -4
BITMAP
1001
0801
3F89
2089
2089
3F89
2089
2089
3F89
2009
2209
2109
2389
2C81
3081
0006
ENDCHAR

STARTCHAR A554
ENCODING 42324
SWIDTH 960 0
DWIDTH 16 0
BBX 16 16 0 -4
BITMAP
1200
12FE
1222
1222
3F22
1262
1232
1222
1226
7FA3
1222
1222
1222
2242
2242
428C
ENDCHAR

STARTCHAR A555
ENCODING 42325
SWIDTH 960 0
DWIDTH 16 0
BBX 16 16 0 -4
BITMAP
0808
0808
7F88
0808
087F
0809
7F09
0009
0009
7F09
4109
4109
4111
4111
7F21
4146
ENDCHAR

STARTCHAR A556
ENCODING 42326
SWIDTH 960 0
DWIDTH 16 0
BBX 16 16 0 -4
BITMAP
1000
1000
1FFF
2001
4081
0889
0491
0491
0081
1FFD
0081
04A1
0891
108D
6081
0086
ENDCHAR

STARTCHAR A557
ENCODING 42327
SWIDTH 960 0
DWIDTH 16 0
BBX 16 16 0 -4
BITMAP
1000
1000
1FFF
2001
4801
0801
1FF9
6101
0101
7FFD
0101
2109
2109
3FF9
2009
0006
ENDCHAR

STARTCHAR A558
ENCODING 42328
SWIDTH 960 0
DWIDTH 16 0
BBX 16 16 0 -4
BITMAP
0000
3FFF
2060
2090
2108
2204
25FA
2801
2000
23FC
2204
2204
23FC
2000
3FFF
0000
ENDCHAR

STARTCHAR A559
ENCODING 42329
SWIDTH 960 0
DWIDTH 16 0
BBX 16 16 0 -4
BITMAP
0000
3FFF
2000
2100
2100
23FE
2220
2420
2020
2FFF
2020
2222
2222
2222
43FE
4202
ENDCHAR

STARTCHAR A55A
ENCODING 42330
SWIDTH 960 0
DWIDTH 16 0
BBX 16 16 0 -4
BITMAP
0000
3FFF
2000
2000
2FFE
2088
2084
211C
27E2
2042
2040
27FC
2040
2040
5FFF
4000
ENDCHAR

STARTCHAR A55B
ENCODING 42331
SWIDTH 960 0
DWIDTH 16 0
BBX 16 16 0 -4
BITMAP
0040
0020
7810
4802
4842
4844
4944
4948
4948
4A50
7A62
4841
00C1
0145
0244
0C7C
ENDCHAR

STARTCHAR A55C
ENCODING 42332
SWIDTH 960 0
DWIDTH 16 0
BBX 16 16 0 -4
BITMAP
0020
0020
7820
49FC
4820
4820
4820
4820
4BFE
4820
7840
4884
4102
023E
07E1
0000
ENDCHAR

STARTCHAR A55D
ENCODING 42333
SWIDTH 960 0
DWIDTH 16 0
BBX 16 16 0 -4
BITMAP
0084
0084
7884
4884
4BFF
4884
4884
4884
4884
48FC
7884
4884
4084
0084
00FC
0084
ENDCHAR

STARTCHAR A55E
ENCODING 42334
SWIDTH 960 0
DWIDTH 16 0
BBX 16 16 0 -4
BITMAP
0080
009F
7882
4BE2
4882
4882
4882
4882
48E2
4B82
7882
4882
4082
0082
0082
018E
ENDCHAR

STARTCHAR A55F
ENCODING 42335
SWIDTH 960 0
DWIDTH 16 0
BBX 16 16 0 -4
BITMAP
0000
03FF
7A10
4A10
4A10
4AFE
4A92
4A92
4A92
4A92
7A96
4A10
4210
0210
03FF
0200
ENDCHAR

STARTCHAR A560
ENCODING 42336
SWIDTH 960 0
DWIDTH 16 0
BBX 16 16 0 -4
BITMAP
0090
0090
7890
4BFE
4892
4892
4BFE
4A92
4A90
4BFF
7891
4891
4111
0116
0210
0410
ENDCHAR

STARTCHAR A561
ENCODING 42337
SWIDTH 960 0
DWIDTH 16 0
BBX 16 16 0 -4
BITMAP
0020
0020
7820
4820
483E
4820
4820
4820
49FC
4904
7904
4904
4104
0104
01FC
0104
ENDCHAR

STARTCHAR A562
ENCODING 42338
SWIDTH 960 0
DWIDTH 16 0
BBX 16 16 0 -4
BITMAP
0000
01FE
7902
4902
49FE
4902
4800
4BFF
4840
4880
79FE
4802
4002
0002
0004
0038
ENDCHAR

STARTCHAR A563
ENCODING 42339
SWIDTH 960 0
DWIDTH 16 0
BBX 16 16 0 -4
BITMAP
0000
01FC
7904
4904
4904
49FC
4904
4904
4904
4904
79FC
4904
4000
0000
07FF
0000
ENDCHAR

STARTCHAR A564
ENCODING 42340
SWIDTH 960 0
DWIDTH 16 0
BBX 16 16 0 -4
BITMAP
0020
0020
7820
49FC
4924
4924
49FC
4924
4924
4924
7BFF
4904
4104
0104
0104
010C
ENDCHAR

STARTCHAR A565
ENCODING 42341
SWIDTH 960 0
DWIDTH 16 0
BBX 16 16 0 -4
BITMAP
0000
0000
03FF
7A49
4A49
4A49
4A49
4A49
4A49
4A89
7B07
4A01
4201
03FF
0000
0000
ENDCHAR

STARTCHAR A566
ENCODING 42342
SWIDTH 960 0
DWIDTH 16 0
BBX 16 16 0 -4
BITMAP
0040
0080
7880
49FF
4901
4A01
48F9
4889
4889
4889
7889
48F9
4081
0001
0001
0006
ENDCHAR

STARTCHAR A567
ENCODING 42343
SWIDTH 960 0
DWIDTH 16 0
BBX 16 16 0 -4
BITMAP
0088
0088
7888
4908
4D3F
4A29
4949
48C9
4889
4909
7909
4A89
44C9
0F29
0011
0026
ENDCHAR

STARTCHAR A568
ENCODING 42344
SWIDTH 960 0
DWIDTH 16 0
BBX 16 16 0 -4
BITMAP
0020
0020
7840
4848
4884
491E
4BE2
4801
4800
49FE
7902
4902
4102
0102
01FE
0102
ENDCHAR

STARTCHAR A569
ENCODING 42345
SWIDTH 960 0
DWIDTH 16 0
BBX 16 16 0 -4
BITMAP
0000
03FE
7820
4820
4A24
4924
4928
4828
4820
4FFF
7820
4820
4020
0020
0020
0020
ENDCHAR

STARTCHAR A56A
ENCODING 42346
SWIDTH 960 0
DWIDTH 16 0
BBX 16 16 0 -4
BITMAP
0000
01FE
7902
4902
4902
49FE
4910
4910
4910
49FF
7910
4910
4108
0109
0165
0183
ENDCHAR

STARTCHAR A56B
ENCODING 42347
SWIDTH 960 0
DWIDTH 16 0
BBX 16 16 0 -4
BITMAP
0020
0020
7820
4BFF
4820
4860
4870
48A8
4924
4A22
7C21
49FC
4020
0020
0020
0020
ENDCHAR

STARTCHAR A56C
ENCODING 42348
SWIDTH 960 0
DWIDTH 16 0
BBX 16 16 0 -4
BITMAP
0040
0040
7840
4BFF
4840
4890
4890
49FE
4A92
4C92
7892
4892
4096
0010
0010
0010
ENDCHAR

STARTCHAR A56D
ENCODING 42349
SWIDTH 960 0
DWIDTH 16 0
BBX 16 16 0 -4
BITMAP
0000
01FC
7904
4944
4924
4924
4904
4FFF
4A04
4A44
7A24
4A24
4204
03FF
0008
0070
ENDCHAR

STARTCHAR A56E
ENCODING 42350
SWIDTH 960 0
DWIDTH 16 0
BBX 16 16 0 -4
BITMAP
0000
000E
79F0
4910
4910
4910
49FE
4910
4910
4910
7931
4949
4189
0005
00FB
0000
ENDCHAR

STARTCHAR A56F
ENCODING 42351
SWIDTH 960 0
DWIDTH 16 0
BBX 16 16 0 -4
BITMAP
0020
0050
7888
4904
4A02
4DFD
4800
4800
49FE
4802
7802
4884
4048
0030
0010
0008
ENDCHAR

STARTCHAR A570
ENCODING 42352
SWIDTH 960 0
DWIDTH 16 0
BBX 16 16 0 -4
BITMAP
0000
3FFE
2002
2072
2782
2082
2FFA
2082
21C2
22A2
2492
288A
2082
2082
3FFE
2002
ENDCHAR

STARTCHAR A571
ENCODING 42353
SWIDTH 960 0
DWIDTH 16 0
BBX 16 16 0 -4
BITMAP
0000
3FFE
2082
2142
2222
2412
2BEA
3006
27F2
2012
2222
2142
2082
2042
3FFE
2002
ENDCHAR

STARTCHAR A572
ENCODING 42354
SWIDTH 960 0
DWIDTH 16 0
BBX 16 16 0 -4
BITMAP
1000
13FE
1010
1020
7C60
10A8
1124
1222
1421
1020
1020
1E20
7020
0000
07FF
0000
ENDCHAR

STARTCHAR A573
ENCODING 42355
SWIDTH 960 0
DWIDTH 16 0
BBX 16 16 0 -4
BITMAP
1090
1090
1090
13FE
7C92
1092
13FE
1292
1490
17FF
1091
1C91
7111
0116
0210
0410
ENDCHAR

STARTCHAR A574
ENCODING 42356
SWIDTH 960 0
DWIDTH 16 0
BBX 16 16 0 -4
BITMAP
1000
11FE
1102
1102
7DFE
1100
1120
1120
1120
113F
1120
1D20
7220
0221
0421
001F
ENDCHAR

STARTCHAR A575
ENCODING 42357
SWIDTH 960 0
DWIDTH 16 0
BBX 16 16 0 -4
BITMAP
1020
1020
1020
1020
7C3F
1020
1020
1020
11FE
1102
1102
1D02
7102
0102
01FE
0102
ENDCHAR

STARTCHAR A576
ENCODING 42358
SWIDTH 960 0
DWIDTH 16 0
BBX 16 16 0 -4
BITMAP
1020
1020
1020
11FC
7D24
1124
1124
1124
17FF
1040
1048
1E84
7082
0102
0201
0C01
ENDCHAR

STARTCHAR A577
ENCODING 42359
SWIDTH 960 0
DWIDTH 16 0
BBX 16 16 0 -4
BITMAP
1000
13FF
1201
1201
7E01
1279
1249
1249
1249
1249
1249
1E79
7201
0201
0201
0207
ENDCHAR

STARTCHAR A578
ENCODING 42360
SWIDTH 960 0
DWIDTH 16 0
BBX 16 16 0 -4
BITMAP
1000
11FC
1104
1144
7D24
1124
1104
17FF
1204
1244
1224
1E24
7204
03FF
0008
0070
ENDCHAR

STARTCHAR A579
ENCODING 42361
SWIDTH 960 0
DWIDTH 16 0
BBX 16 16 0 -4
BITMAP
1006
11F8
1010
1112
7C92
1094
1094
1010
13FF
1010
1010
1C10
7010
0010
0010
0060
ENDCHAR

STARTCHAR A57A
ENCODING 42362
SWIDTH 960 0
DWIDTH 16 0
BBX 16 16 0 -4
BITMAP
101C
11E0
1100
1100
7D00
1100
11FE
1108
1108
1108
1108
1D08
7108
0108
07FF
0000
ENDCHAR

STARTCHAR A57B
ENCODING 42363
SWIDTH 960 0
DWIDTH 16 0
BBX 16 16 0 -4
BITMAP
1000
100E
11F0
1110
7D10
1110
11FE
1110
1110
1108
1108
1D29
7145
0185
007B
0000
ENDCHAR

STARTCHAR A57C
ENCODING 42364
SWIDTH 960 0
DWIDTH 16 0
BBX 16 16 0 -4
BITMAP
1088
1088
1088
1108
7D28
123F
1149
10C9
1089
1109
1D09
7289
04D1
0751
0022
00CC
ENDCHAR

STARTCHAR A57D
ENCODING 42365
SWIDTH 960 0
DWIDTH 16 0
BBX 16 16 0 -4
BITMAP
0080
0080
1FFC
0080
0080
7FFF
0410
0410
0890
308F
0080
1FFC
0080
0080
7FFF
0000
ENDCHAR

STARTCHAR A57E
ENCODING 42366
SWIDTH 960 0
DWIDTH 16 0
BBX 16 16 0 -4
BITMAP
1020
1020
1222
1124
7CA8
1020
13FE
1020
1020
1020
17FF
1C20
7020
0020
0020
0020
ENDCHAR

STARTCHAR A5A1
ENCODING 42401
SWIDTH 960 0
DWIDTH 16 0
BBX 16 16 0 -4
BITMAP
0000
0080
0080
0140
0140
0220
0220
0410
0410
0808
0808
1004
1004
0000
0000
0000
ENDCHAR

STARTCHAR A5A2
ENCODING 42402
SWIDTH 960 0
DWIDTH 16 0
BBX 16 16 0 -4
BITMAP
0000
180C
0808
0C18
0A28
0A28
0948
0948
0888
0888
0808
0808
1C1C
0000
0000
0000
ENDCHAR

STARTCHAR A5A3
ENCODING 42403
SWIDTH 960 0
DWIDTH 16 0
BBX 16 16 0 -4
BITMAP
0000
1838
0810
0810
0C10
0A10
0910
0890
0850
0830
0810
0810
1C10
0000
0000
0000
ENDCHAR

STARTCHAR A5A4
ENCODING 42404
SWIDTH 960 0
DWIDTH 16 0
BBX 16 16 0 -4
BITMAP
0000
0FF8
0808
0808
0000
0000
07F0
0000
0000
0000
0808
0808
0FF8
0000
0000
0000
ENDCHAR

STARTCHAR A5A5
ENCODING 42405
SWIDTH 960 0
DWIDTH 16 0
BBX 16 16 0 -4
BITMAP
0000
03C0
0420
0810
0810
0810
0810
0810
0810
0810
0810
0420
03C0
0000
0000
0000
ENDCHAR

STARTCHAR A5A6
ENCODING 42406
SWIDTH 960 0
DWIDTH 16 0
BBX 16 16 0 -4
BITMAP
0000
0FF0
0420
0420
0420
0420
0420
0420
0420
0420
0420
0420
0E70
0000
0000
0000
ENDCHAR

STARTCHAR A5A7
ENCODING 42407
SWIDTH 960 0
DWIDTH 16 0
BBX 16 16 0 -4
BITMAP
0000
0FE0
0410
0410
0410
0410
07E0
0400
0400
0400
0400
0400
0E00
0000
0000
0000
ENDCHAR

STARTCHAR A5A8
ENCODING 42408
SWIDTH 960 0
DWIDTH 16 0
BBX 16 16 0 -4
BITMAP
0000
0FF8
0408
0208
0100
0080
0040
0040
0080
0100
0208
0408
0FF8
0000
0000
0000
ENDCHAR

STARTCHAR A5A9
ENCODING 42409
SWIDTH 960 0
DWIDTH 16 0
BBX 16 16 0 -4
BITMAP
0000
0FF8
0888
0888
0080
0080
0080
0080
0080
0080
0080
0080
01C0
0000
0000
0000
ENDCHAR

STARTCHAR A5AA
ENCODING 42410
SWIDTH 960 0
DWIDTH 16 0
BBX 16 16 0 -4
BITMAP
0000
0C38
1244
1184
0100
0100
0100
0100
0100
0100
0100
0100
0380
0000
0000
0000
ENDCHAR

STARTCHAR A5AB
ENCODING 42411
SWIDTH 960 0
DWIDTH 16 0
BBX 16 16 0 -4
BITMAP
0000
01C0
0080
03E0
0490
0888
0888
0888
0888
0490
03E0
0080
01C0
0000
0000
0000
ENDCHAR

STARTCHAR A5AC
ENCODING 42412
SWIDTH 960 0
DWIDTH 16 0
BBX 16 16 0 -4
BITMAP
0000
1C1C
0808
0410
0220
0140
0080
0080
0140
0220
0410
0808
1C1C
0000
0000
0000
ENDCHAR

STARTCHAR A5AD
ENCODING 42413
SWIDTH 960 0
DWIDTH 16 0
BBX 16 16 0 -4
BITMAP
0000
19CC
2492
0490
0490
0490
0490
0490
03E0
0080
0080
0080
03E0
0000
0000
0000
ENDCHAR

STARTCHAR A5AE
ENCODING 42414
SWIDTH 960 0
DWIDTH 16 0
BBX 16 16 0 -4
BITMAP
0000
07E0
0810
1008
1008
1008
1008
0810
0810
0420
1248
1248
1E78
0000
0000
0000
ENDCHAR

STARTCHAR A5AF
ENCODING 42415
SWIDTH 960 0
DWIDTH 16 0
BBX 16 16 0 -4
BITMAP
0000
0000
0000
0000
0000
0000
0310
04A0
0840
0840
0840
08A8
0710
0000
0000
0000
ENDCHAR

STARTCHAR A5B0
ENCODING 42416
SWIDTH 960 0
DWIDTH 16 0
BBX 16 16 0 -4
BITMAP
0000
00E0
0110
0110
0110
0220
02C0
0220
0210
0410
0410
0620
05C0
0400
0400
0000
ENDCHAR

STARTCHAR A5B1
ENCODING 42417
SWIDTH 960 0
DWIDTH 16 0
BBX 16 16 0 -4
BITMAP
0000
0000
0000
0000
0000
0000
0310
04A0
0040
0040
0080
0080
0080
0000
0000
0000
ENDCHAR

STARTCHAR A5B2
ENCODING 42418
SWIDTH 960 0
DWIDTH 16 0
BBX 16 16 0 -4
BITMAP
0000
01C0
0220
0110
0080
00C0
0120
0210
0410
0410
0410
0220
01C0
0000
0000
0000
ENDCHAR

STARTCHAR A5B3
ENCODING 42419
SWIDTH 960 0
DWIDTH 16 0
BBX 16 16 0 -4
BITMAP
0000
0000
0000
0000
0000
0000
01E0
0210
0200
03C0
0408
0410
03E0
0000
0000
0000
ENDCHAR

STARTCHAR A5B4
ENCODING 42420
SWIDTH 960 0
DWIDTH 16 0
BBX 16 16 0 -4
BITMAP
0000
0210
0420
0440
0280
0100
0200
0400
0400
0800
0800
07E0
0110
0210
01E0
0000
ENDCHAR

STARTCHAR A5B5
ENCODING 42421
SWIDTH 960 0
DWIDTH 16 0
BBX 16 16 0 -4
BITMAP
0000
0000
0000
0000
0000
0000
06E0
0910
0210
0210
0220
0420
0420
0420
0020
0000
ENDCHAR

STARTCHAR A5B6
ENCODING 42422
SWIDTH 960 0
DWIDTH 16 0
BBX 16 16 0 -4
BITMAP
0000
01C0
0220
0410
0410
0410
07F0
0410
0410
0410
0410
0220
01C0
0000
0000
0000
ENDCHAR

STARTCHAR A5B7
ENCODING 42423
SWIDTH 960 0
DWIDTH 16 0
BBX 16 16 0 -4
BITMAP
0000
0000
0000
0000
0000
0000
0080
0100
0100
0200
0220
0240
0180
0000
0000
0000
ENDCHAR

STARTCHAR A5B8
ENCODING 42424
SWIDTH 960 0
DWIDTH 16 0
BBX 16 16 0 -4
BITMAP
0000
0000
0000
0000
0000
0000
0460
0480
0500
0680
0440
0450
0420
0000
0000
0000
ENDCHAR

STARTCHAR A5B9
ENCODING 42425
SWIDTH 960 0
DWIDTH 16 0
BBX 16 16 0 -4
BITMAP
0000
0300
0080
0080
0080
0080
0140
0140
0240
0220
0420
0410
0808
0000
0000
0000
ENDCHAR

STARTCHAR A5BA
ENCODING 42426
SWIDTH 960 0
DWIDTH 16 0
BBX 16 16 0 -4
BITMAP
0000
0000
0000
0000
0000
0000
0220
0220
0440
0440
0440
0440
0BA8
0810
0800
0000
ENDCHAR

STARTCHAR A5BB
ENCODING 42427
SWIDTH 960 0
DWIDTH 16 0
BBX 16 16 0 -4
BITMAP
0000
0000
0000
0000
0000
0000
0810
0410
0210
0220
0240
0280
0300
0000
0000
0000
ENDCHAR

STARTCHAR A5BC
ENCODING 42428
SWIDTH 960 0
DWIDTH 16 0
BBX 16 16 0 -4
BITMAP
0200
0410
0660
0180
0200
0410
0460
0380
0400
0800
0800
07E0
0210
0410
03E0
0000
ENDCHAR

STARTCHAR A5BD
ENCODING 42429
SWIDTH 960 0
DWIDTH 16 0
BBX 16 16 0 -4
BITMAP
0000
0000
0000
0000
0000
0000
00E0
0110
0210
0210
0210
0220
01C0
0000
0000
0000
ENDCHAR

STARTCHAR A5BE
ENCODING 42430
SWIDTH 960 0
DWIDTH 16 0
BBX 16 16 0 -4
BITMAP
0000
0000
0000
0000
0000
0010
07E0
0A40
0240
0240
0248
0450
0820
0000
0000
0000
ENDCHAR

STARTCHAR A5BF
ENCODING 42431
SWIDTH 960 0
DWIDTH 16 0
BBX 16 16 0 -4
BITMAP
0000
0000
0000
0000
0000
0000
00E0
0110
0210
0210
0210
0620
05C0
0400
0400
0000
ENDCHAR

STARTCHAR A5C0
ENCODING 42432
SWIDTH 960 0
DWIDTH 16 0
BBX 16 16 0 -4
BITMAP
0000
0000
0000
0000
0000
0000
01F8
0220
0420
0420
0420
0440
0380
0000
0000
0000
ENDCHAR

STARTCHAR A5C1
ENCODING 42433
SWIDTH 960 0
DWIDTH 16 0
BBX 16 16 0 -4
BITMAP
0000
0000
0000
0000
0000
0000
07F0
0880
0100
0200
0400
0460
0380
0000
0000
0000
ENDCHAR

STARTCHAR A5C2
ENCODING 42434
SWIDTH 960 0
DWIDTH 16 0
BBX 16 16 0 -4
BITMAP
0000
0000
0000
0000
0000
0000
0420
0220
0210
0410
0410
0220
01C0
0000
0000
0000
ENDCHAR

STARTCHAR A5C3
ENCODING 42435
SWIDTH 960 0
DWIDTH 16 0
BBX 16 16 0 -4
BITMAP
0000
0000
0010
0020
0020
03C0
0460
0890
0890
0910
0910
0620
03C0
0400
0800
0000
ENDCHAR

STARTCHAR A5C4
ENCODING 42436
SWIDTH 960 0
DWIDTH 16 0
BBX 16 16 0 -4
BITMAP
0000
0000
0000
0000
0000
0000
0C08
1210
0120
0140
0080
0140
0240
0424
1818
0000
ENDCHAR

STARTCHAR A5C5
ENCODING 42437
SWIDTH 960 0
DWIDTH 16 0
BBX 16 16 0 -4
BITMAP
0000
0000
0000
0020
0020
0040
0448
0488
0888
0890
0910
0920
07C0
0200
0400
0000
ENDCHAR

STARTCHAR A5C6
ENCODING 42438
SWIDTH 960 0
DWIDTH 16 0
BBX 16 16 0 -4
BITMAP
0000
0000
0000
0000
0000
0000
0410
0808
1084
1084
1084
0948
0630
0000
0000
0000
ENDCHAR

STARTCHAR A5C7
ENCODING 42439
SWIDTH 960 0
DWIDTH 16 0
BBX 16 16 0 -4
BITMAP
0000
0000
0400
0400
0800
0FF8
0008
0008
0008
0010
0010
0220
0120
00C0
0000
0000
ENDCHAR

STARTCHAR A5C8
ENCODING 42440
SWIDTH 960 0
DWIDTH 16 0
BBX 16 16 0 -4
BITMAP
0000
0000
0200
0200
0400
0FF8
0008
0010
0220
0140
0080
0140
0230
0C0C
0000
0000
ENDCHAR

STARTCHAR A5C9
ENCODING 42441
SWIDTH 960 0
DWIDTH 16 0
BBX 16 16 0 -4
BITMAP
0000
0000
0000
0FF0
0810
0810
0810
0810
0810
0810
0810
0810
0810
0000
0000
0000
ENDCHAR

STARTCHAR A5CA
ENCODING 42442
SWIDTH 960 0
DWIDTH 16 0
BBX 16 16 0 -4
BITMAP
0000
0000
0000
1FF8
0800
0800
0800
0800
0800
0800
0800
0800
07F8
0000
0000
0000
ENDCHAR

STARTCHAR A5CB
ENCODING 42443
SWIDTH 960 0
DWIDTH 16 0
BBX 16 16 0 -4
BITMAP
0000
0000
0400
0400
0800
0FF8
0108
0108
0108
0108
0208
0208
0490
0060
0000
0000
ENDCHAR

STARTCHAR A5CC
ENCODING 42444
SWIDTH 960 0
DWIDTH 16 0
BBX 16 16 0 -4
BITMAP
0000
0000
0080
0080
0080
1FF8
0100
0100
0200
0220
0410
08F0
0F08
0008
0000
0000
ENDCHAR

STARTCHAR A5CD
ENCODING 42445
SWIDTH 960 0
DWIDTH 16 0
BBX 16 16 0 -4
BITMAP
0000
0000
0FE0
0040
0080
0100
07F0
0010
0010
0010
0010
0220
0120
00C0
0000
0000
ENDCHAR

STARTCHAR A5CE
ENCODING 42446
SWIDTH 960 0
DWIDTH 16 0
BBX 16 16 0 -4
BITMAP
0000
0000
0480
0480
0880
0FF0
0110
0110
0110
0210
0410
0810
10A0
0040
0000
0000
ENDCHAR

STARTCHAR A5CF
ENCODING 42447
SWIDTH 960 0
DWIDTH 16 0
BBX 16 16 0 -4
BITMAP
0000
0000
0110
0110
0220
0220
0440
0880
0880
0440
0220
0220
0110
0110
0000
0000
ENDCHAR

STARTCHAR A5D0
ENCODING 42448
SWIDTH 960 0
DWIDTH 16 0
BBX 16 16 0 -4
BITMAP
0000
0000
0000
1FF8
0200
0200
0400
0FF0
0010
0010
0020
0020
0140
0080
0000
0000
ENDCHAR

STARTCHAR A5D1
ENCODING 42449
SWIDTH 960 0
DWIDTH 16 0
BBX 16 16 0 -4
BITMAP
0000
0000
0400
07F8
0400
0400
0400
0400
0400
0400
0800
0800
1000
2000
0000
0000
ENDCHAR

STARTCHAR A5D2
ENCODING 42450
SWIDTH 960 0
DWIDTH 16 0
BBX 16 16 0 -4
BITMAP
0000
0000
0010
0410
0410
0410
0410
0410
0470
0590
0610
0010
0010
0010
0000
0000
ENDCHAR

STARTCHAR A5D3
ENCODING 42451
SWIDTH 960 0
DWIDTH 16 0
BBX 16 16 0 -4
BITMAP
0000
0000
0040
0040
0080
0080
0100
0200
0200
0100
0080
0080
0040
0040
0000
0000
ENDCHAR

STARTCHAR A5D4
ENCODING 42452
SWIDTH 960 0
DWIDTH 16 0
BBX 16 16 0 -4
BITMAP
0000
0000
0000
1FFC
0080
0080
0080
0080
0080
0080
0080
0080
0080
0080
0000
0000
ENDCHAR

STARTCHAR A5D5
ENCODING 42453
SWIDTH 960 0
DWIDTH 16 0
BBX 16 16 0 -4
BITMAP
0000
0000
0080
0080
0888
0888
0888
0888
0888
0FF8
0080
0080
0080
1FFC
0000
0000
ENDCHAR

STARTCHAR A5D6
ENCODING 42454
SWIDTH 960 0
DWIDTH 16 0
BBX 16 16 0 -4
BITMAP
0000
0000
0060
0180
0600
1818
0060
0180
0680
1880
0080
0080
0080
0080
0000
0000
ENDCHAR

STARTCHAR A5D7
ENCODING 42455
SWIDTH 960 0
DWIDTH 16 0
BBX 16 16 0 -4
BITMAP
0000
0000
0000
0FF8
0008
0008
0008
07F8
0400
0400
0400
0800
0800
1000
0000
0000
ENDCHAR

STARTCHAR A5D8
ENCODING 42456
SWIDTH 960 0
DWIDTH 16 0
BBX 16 16 0 -4
BITMAP
0000
0000
0FF0
0810
0810
0810
0A10
0910
0890
0890
0810
0810
0810
0FF0
0000
0000
ENDCHAR

STARTCHAR A5D9
ENCODING 42457
SWIDTH 960 0
DWIDTH 16 0
BBX 16 16 0 -4
BITMAP
0000
0000
0FF8
0208
0208
0208
0208
0208
0290
0260
0200
0200
0200
0200
0000
0000
ENDCHAR

STARTCHAR A5DA
ENCODING 42458
SWIDTH 960 0
DWIDTH 16 0
BBX 16 16 0 -4
BITMAP
0000
0000
0200
0200
1FFC
0200
0400
07F0
0010
0010
0020
0020
0040
0080
0000
0000
ENDCHAR

STARTCHAR A5DB
ENCODING 42459
SWIDTH 960 0
DWIDTH 16 0
BBX 16 16 0 -4
BITMAP
0000
0000
0000
0100
0100
0200
0200
0420
0410
0810
0878
1F88
0800
0000
0000
0000
ENDCHAR

STARTCHAR A5DC
ENCODING 42460
SWIDTH 960 0
DWIDTH 16 0
BBX 16 16 0 -4
BITMAP
0000
0000
0808
0410
0220
0140
0080
0080
0080
0080
0080
0080
0080
0080
0000
0000
ENDCHAR

STARTCHAR A5DD
ENCODING 42461
SWIDTH 960 0
DWIDTH 16 0
BBX 16 16 0 -4
BITMAP
0000
0000
0000
0FF8
0080
0080
0080
0380
0480
0800
0808
0810
0420
03C0
0000
0000
ENDCHAR

STARTCHAR A5DE
ENCODING 42462
SWIDTH 960 0
DWIDTH 16 0
BBX 16 16 0 -4
BITMAP
0000
0000
0080
0080
0080
0FF8
0080
0080
0380
0480
0808
0810
0420
03C0
0000
0000
ENDCHAR

STARTCHAR A5DF
ENCODING 42463
SWIDTH 960 0
DWIDTH 16 0
BBX 16 16 0 -4
BITMAP
0000
0000
0220
0220
0220
0220
1FFC
0220
0220
0220
0220
0200
0100
00F8
0000
0000
ENDCHAR

STARTCHAR A5E0
ENCODING 42464
SWIDTH 960 0
DWIDTH 16 0
BBX 16 16 0 -4
BITMAP
0000
0000
0000
0FF8
0440
0440
0880
0880
0FF0
0110
0210
0220
0420
0840
0000
0000
ENDCHAR

STARTCHAR A5E1
ENCODING 42465
SWIDTH 960 0
DWIDTH 16 0
BBX 16 16 0 -4
BITMAP
0000
0000
0100
0280
0480
0840
0040
0020
0020
0010
0010
0008
0008
0000
0000
0000
ENDCHAR

STARTCHAR A5E2
ENCODING 42466
SWIDTH 960 0
DWIDTH 16 0
BBX 16 16 0 -4
BITMAP
0000
0000
0100
0200
0410
0820
0440
0280
0100
0220
0410
0810
10F8
1F08
0000
0000
ENDCHAR

STARTCHAR A5E3
ENCODING 42467
SWIDTH 960 0
DWIDTH 16 0
BBX 16 16 0 -4
BITMAP
0000
0000
0000
0FF8
0008
0010
0410
0220
0140
0080
0140
0220
0410
180C
0000
0000
ENDCHAR

STARTCHAR A5E4
ENCODING 42468
SWIDTH 960 0
DWIDTH 16 0
BBX 16 16 0 -4
BITMAP
0000
0000
1FF0
0210
0210
0420
0420
0FF8
0008
0010
0010
0020
0020
0040
0000
0000
ENDCHAR

STARTCHAR A5E5
ENCODING 42469
SWIDTH 960 0
DWIDTH 16 0
BBX 16 16 0 -4
BITMAP
0000
0000
0200
0200
0400
0400
0800
0FF8
0008
0010
0010
0020
0020
0040
0000
0000
ENDCHAR

STARTCHAR A5E6
ENCODING 42470
SWIDTH 960 0
DWIDTH 16 0
BBX 16 16 0 -4
BITMAP
0000
0000
0100
0100
0100
1FF8
0100
0140
0240
0240
0440
0440
0840
103C
0000
0000
ENDCHAR

STARTCHAR A5E7
ENCODING 42471
SWIDTH 960 0
DWIDTH 16 0
BBX 16 16 0 -4
BITMAP
0000
0000
0080
0080
0100
0100
0200
0200
0400
0400
0800
0800
1FF8
0000
0000
0000
ENDCHAR

STARTCHAR A5E8
ENCODING 42472
SWIDTH 960 0
DWIDTH 16 0
BBX 16 16 0 -4
BITMAP
0000
0000
0240
0240
0240
0240
0240
0240
0240
0240
0440
0440
0840
103C
0000
0000
ENDCHAR

STARTCHAR A5E9
ENCODING 42473
SWIDTH 960 0
DWIDTH 16 0
BBX 16 16 0 -4
BITMAP
0000
0000
0000
0000
0000
0000
0000
1FFC
0000
0000
0000
0000
0000
0000
0000
0000
ENDCHAR

STARTCHAR A5EA
ENCODING 42474
SWIDTH 960 0
DWIDTH 16 0
BBX 16 16 0 -4
BITMAP
0000
0000
0000
0808
0410
0220
0140
0080
0140
0220
0410
0808
0000
0000
0000
0000
ENDCHAR

STARTCHAR A5EB
ENCODING 42475
SWIDTH 960 0
DWIDTH 16 0
BBX 16 16 0 -4
BITMAP
0000
0000
0000
0810
0810
0810
0810
0810
0810
0810
0810
0810
07E0
0000
0000
0000
ENDCHAR

STARTCHAR A5EC
ENCODING 42476
SWIDTH 960 0
DWIDTH 16 0
BBX 16 16 0 -4
BITMAP
0000
0000
0000
0000
0000
0000
0000
0180
0180
0000
0000
0000
0000
0000
0000
0000
ENDCHAR

STARTCHAR A5ED
ENCODING 42477
SWIDTH 960 0
DWIDTH 16 0
BBX 16 16 0 -4
BITMAP
0000
0000
0000
0000
0000
0000
0000
0000
0000
0000
0000
0000
0000
0000
0000
0000
ENDCHAR

STARTCHAR A5EE
ENCODING 42478
SWIDTH 960 0
DWIDTH 16 0
BBX 16 16 0 -4
BITMAP
0000
0000
0000
0000
0010
0020
0040
0080
0100
0200
0400
0000
0000
0000
0000
0000
ENDCHAR

STARTCHAR A5EF
ENCODING 42479
SWIDTH 960 0
DWIDTH 16 0
BBX 16 16 0 -4
BITMAP
0000
0000
0000
0000
0000
0008
0010
0020
1040
0880
0500
0200
0000
0000
0000
0000
ENDCHAR

STARTCHAR A5F0
ENCODING 42480
SWIDTH 960 0
DWIDTH 16 0
BBX 16 16 0 -4
BITMAP
0000
0000
0000
0000
0400
0200
0100
0080
0040
0020
0010
0008
0000
0000
0000
0000
ENDCHAR

STARTCHAR A621
ENCODING 42529
SWIDTH 960 0
DWIDTH 16 0
BBX 16 16 0 -4
BITMAP
1020
1010
13FF
1201
7E42
1040
1040
1044
1058
1060
1040
1E40
7040
0041
0041
003F
ENDCHAR

STARTCHAR A622
ENCODING 42530
SWIDTH 960 0
DWIDTH 16 0
BBX 16 16 0 -4
BITMAP
1020
1050
1088
1104
7E02
15FD
1000
1000
11FE
1002
1002
1C84
7048
0030
0010
0008
ENDCHAR

STARTCHAR A623
ENCODING 42531
SWIDTH 960 0
DWIDTH 16 0
BBX 16 16 0 -4
BITMAP
0080
1FFC
0080
0080
7FFF
0410
0410
090F
7A00
07F8
0A10
1120
00C0
0120
0618
3807
ENDCHAR

STARTCHAR A624
ENCODING 42532
SWIDTH 960 0
DWIDTH 16 0
BBX 16 16 0 -4
BITMAP
0080
0080
7FFF
0220
0410
180C
6703
1800
107E
1122
1122
1322
1D22
012C
0220
1C20
ENDCHAR

STARTCHAR A625
ENCODING 42533
SWIDTH 960 0
DWIDTH 16 0
BBX 16 16 0 -4
BITMAP
1020
1010
1010
12FF
7F10
1210
1210
2210
22FE
2410
6410
1410
0810
1410
21FF
4000
ENDCHAR

STARTCHAR A626
ENCODING 42534
SWIDTH 960 0
DWIDTH 16 0
BBX 16 16 0 -4
BITMAP
1010
1010
1010
13FF
7E10
1210
1210
22FE
2210
2410
6438
1454
0892
1511
2210
4010
ENDCHAR

STARTCHAR A627
ENCODING 42535
SWIDTH 960 0
DWIDTH 16 0
BBX 16 16 0 -4
BITMAP
1044
1044
1044
1244
7FFF
1244
1244
2244
2244
247C
6444
1444
0844
1444
227C
4044
ENDCHAR

STARTCHAR A628
ENCODING 42536
SWIDTH 960 0
DWIDTH 16 0
BBX 16 16 0 -4
BITMAP
1010
1010
1010
12FE
7E92
1292
1292
2292
25FF
2410
6420
1424
0844
1442
1282
2101
ENDCHAR

STARTCHAR A629
ENCODING 42537
SWIDTH 960 0
DWIDTH 16 0
BBX 16 16 0 -4
BITMAP
1000
107E
1042
1242
7F42
127E
1242
2242
2242
2442
647E
1442
0800
1400
22FF
4000
ENDCHAR

STARTCHAR A62A
ENCODING 42538
SWIDTH 960 0
DWIDTH 16 0
BBX 16 16 0 -4
BITMAP
1010
1010
1010
12FE
7E92
1292
12FE
2292
2292
2492
65FF
1482
0882
1482
2282
4086
ENDCHAR

STARTCHAR A62B
ENCODING 42539
SWIDTH 960 0
DWIDTH 16 0
BBX 16 16 0 -4
BITMAP
1020
1040
1040
12FF
7E81
1301
1279
2249
2249
2449
6449
1479
0841
1401
2201
4006
ENDCHAR

STARTCHAR A62C
ENCODING 42540
SWIDTH 960 0
DWIDTH 16 0
BBX 16 16 0 -4
BITMAP
1010
1008
1008
12FF
7F08
1210
1222
22C2
2224
2418
6408
1412
0822
144F
11F9
2001
ENDCHAR

STARTCHAR A62D
ENCODING 42541
SWIDTH 960 0
DWIDTH 16 0
BBX 16 16 0 -4
BITMAP
1030
1008
1000
1222
7F22
1222
1224
22A4
22A8
24AA
64B1
1521
0821
1460
20A2
433E
ENDCHAR

STARTCHAR A62E
ENCODING 42542
SWIDTH 960 0
DWIDTH 16 0
BBX 16 16 0 -4
BITMAP
1000
11FF
1010
1210
7F10
1210
1290
2290
229E
2490
6490
1490
0890
1490
23FF
4000
ENDCHAR

STARTCHAR A62F
ENCODING 42543
SWIDTH 960 0
DWIDTH 16 0
BBX 16 16 0 -4
BITMAP
1000
11FF
1080
1280
7E80
12FE
1282
2282
2282
2482
64FE
1480
0880
1480
23FF
4000
ENDCHAR

STARTCHAR A630
ENCODING 42544
SWIDTH 960 0
DWIDTH 16 0
BBX 16 16 0 -4
BITMAP
1000
11FF
1011
1211
7F11
1221
1221
2246
2280
24FF
6481
1481
0881
1481
12FF
2081
ENDCHAR

STARTCHAR A631
ENCODING 42545
SWIDTH 960 0
DWIDTH 16 0
BBX 16 16 0 -4
BITMAP
1008
1008
107F
1249
7F49
1249
127F
2249
2249
2449
647F
1408
0808
1408
2208
4008
ENDCHAR

STARTCHAR A632
ENCODING 42546
SWIDTH 960 0
DWIDTH 16 0
BBX 16 16 0 -4
BITMAP
100E
10F8
1010
1210
7F10
12FF
1210
2230
2238
2454
6454
1492
0911
1410
2210
4010
ENDCHAR

STARTCHAR A633
ENCODING 42547
SWIDTH 960 0
DWIDTH 16 0
BBX 16 16 0 -4
BITMAP
1010
1010
1028
1244
7F44
1282
137D
2200
2200
24FF
6402
1402
0844
1428
2210
4008
ENDCHAR

STARTCHAR A634
ENCODING 42548
SWIDTH 960 0
DWIDTH 16 0
BBX 16 16 0 -4
BITMAP
087E
1F42
3142
4A4E
0440
0841
103F
6100
0208
7FFF
0408
0C10
1B20
00E0
0318
3C06
ENDCHAR

STARTCHAR A635
ENCODING 42549
SWIDTH 960 0
DWIDTH 16 0
BBX 16 16 0 -4
BITMAP
0804
0804
13FF
3004
50C4
1024
1004
111C
0208
7FFF
0408
0C10
1320
00C0
0338
3C06
ENDCHAR

STARTCHAR A636
ENCODING 42550
SWIDTH 960 0
DWIDTH 16 0
BBX 16 16 0 -4
BITMAP
0040
7E40
0240
04FE
0882
0902
08F2
0E92
7892
08F2
0882
088C
0880
0881
0881
387F
ENDCHAR

STARTCHAR A637
ENCODING 42551
SWIDTH 960 0
DWIDTH 16 0
BBX 16 16 0 -4
BITMAP
1000
127E
7F02
2222
6214
1408
0C14
1263
6000
0FF8
0020
0040
7FFF
0040
0040
03C0
ENDCHAR

STARTCHAR A638
ENCODING 42552
SWIDTH 960 0
DWIDTH 16 0
BBX 16 16 0 -4
BITMAP
0100
0080
7FFF
4001
4081
0044
0448
0410
2420
2442
2481
2501
4609
0408
1BF8
6000
ENDCHAR

STARTCHAR A639
ENCODING 42553
SWIDTH 960 0
DWIDTH 16 0
BBX 16 16 0 -4
BITMAP
0100
0080
7FFF
4001
4002
3FFE
0100
0200
0400
0FFC
1404
6404
0404
0404
07FC
0404
ENDCHAR

STARTCHAR A63A
ENCODING 42554
SWIDTH 960 0
DWIDTH 16 0
BBX 16 16 0 -4
BITMAP
0000
3FFF
2001
2001
3FFF
2080
2040
2FFE
2802
2804
20C0
2020
2110
4208
4404
1803
ENDCHAR

STARTCHAR A63B
ENCODING 42555
SWIDTH 960 0
DWIDTH 16 0
BBX 16 16 0 -4
BITMAP
0000
3FFF
2001
2001
3FFF
2000
2000
27FF
2421
2421
27FF
2421
2421
47FF
4401
0000
ENDCHAR

STARTCHAR A63C
ENCODING 42556
SWIDTH 960 0
DWIDTH 16 0
BBX 16 16 0 -4
BITMAP
0010
1008
11FF
5501
5522
5420
5420
5422
542C
5430
5420
7C20
4420
0021
0021
001F
ENDCHAR

STARTCHAR A63D
ENCODING 42557
SWIDTH 960 0
DWIDTH 16 0
BBX 16 16 0 -4
BITMAP
0020
1010
11FF
5501
5502
5400
5430
5408
5448
5448
5444
7C44
4484
0082
0102
0201
ENDCHAR

STARTCHAR A63E
ENCODING 42558
SWIDTH 960 0
DWIDTH 16 0
BBX 16 16 0 -4
BITMAP
0000
11FF
1080
5480
5480
54FE
5482
5482
5482
5482
54FE
7C80
4480
0080
03FF
0000
ENDCHAR

STARTCHAR A63F
ENCODING 42559
SWIDTH 960 0
DWIDTH 16 0
BBX 16 16 0 -4
BITMAP
0010
1010
1010
5410
55FF
5410
5410
5410
5410
54FE
5482
7C82
4482
0082
00FE
0082
ENDCHAR

STARTCHAR A640
ENCODING 42560
SWIDTH 960 0
DWIDTH 16 0
BBX 16 16 0 -4
BITMAP
0000
13FF
1008
5410
5420
5468
54A4
5522
5621
5420
5420
7C20
4420
0000
07FF
0000
ENDCHAR

STARTCHAR A641
ENCODING 42561
SWIDTH 960 0
DWIDTH 16 0
BBX 16 16 0 -4
BITMAP
0000
10FC
1084
5484
5484
54FC
5484
5484
5484
54FC
5484
7C84
4484
0084
03FF
0000
ENDCHAR

STARTCHAR A642
ENCODING 42562
SWIDTH 960 0
DWIDTH 16 0
BBX 16 16 0 -4
BITMAP
0000
10FE
1092
5492
5492
54FE
5492
5492
5492
54FE
5492
7C10
4410
0010
0010
0010
ENDCHAR

STARTCHAR A643
ENCODING 42563
SWIDTH 960 0
DWIDTH 16 0
BBX 16 16 0 -4
BITMAP
0010
1010
1010
54FE
5492
5492
5492
5492
55FF
5410
5410
7C20
4424
0042
0081
0301
ENDCHAR

STARTCHAR A644
ENCODING 42564
SWIDTH 960 0
DWIDTH 16 0
BBX 16 16 0 -4
BITMAP
0040
1040
1080
54FF
5501
5601
5401
54F9
5489
5489
5489
7CF9
4489
0001
0001
0006
ENDCHAR

STARTCHAR A645
ENCODING 42565
SWIDTH 960 0
DWIDTH 16 0
BBX 16 16 0 -4
BITMAP
0010
1010
1028
5444
5444
5482
557D
5400
5400
54FF
5402
7C02
4444
0028
0010
0008
ENDCHAR

STARTCHAR A646
ENCODING 42566
SWIDTH 960 0
DWIDTH 16 0
BBX 16 16 0 -4
BITMAP
0080
2082
2082
2082
3FFE
0000
7FFF
0008
0008
1F88
1088
1088
1F88
0008
0008
0078
ENDCHAR

STARTCHAR A647
ENCODING 42567
SWIDTH 960 0
DWIDTH 16 0
BBX 16 16 0 -4
BITMAP
0080
2082
2082
2082
3FFE
0220
0220
7FFE
0222
3FFE
2220
7FFF
0421
0421
0826
3020
ENDCHAR

STARTCHAR A648
ENCODING 42568
SWIDTH 960 0
DWIDTH 16 0
BBX 16 16 0 -4
BITMAP
0080
2082
2082
3FFE
0000
7FFE
0202
0402
081C
1000
3FFC
5004
1004
1004
1FFC
1004
ENDCHAR

STARTCHAR A649
ENCODING 42569
SWIDTH 960 0
DWIDTH 16 0
BBX 16 16 0 -4
BITMAP
0080
2082
2082
3FFE
0200
0400
0FFE
1100
6100
01FC
0100
0100
01FC
0100
0100
0100
ENDCHAR

STARTCHAR A64A
ENCODING 42570
SWIDTH 960 0
DWIDTH 16 0
BBX 16 16 0 -4
BITMAP
0010
1010
10FF
5491
5492
5490
5490
54FF
5481
54A2
54A2
7C94
4488
0114
0022
00C1
ENDCHAR

STARTCHAR A64B
ENCODING 42571
SWIDTH 960 0
DWIDTH 16 0
BBX 16 16 0 -4
BITMAP
0010
1010
1020
54FF
5481
5481
5481
5481
54FF
5481
5481
7C81
4481
00FF
0081
0000
ENDCHAR

STARTCHAR A64C
ENCODING 42572
SWIDTH 960 0
DWIDTH 16 0
BBX 16 16 0 -4
BITMAP
0088
1088
1088
5508
553F
5629
5549
54C9
5489
5509
5509
7E89
4451
03D1
0021
0046
ENDCHAR

STARTCHAR A64D
ENCODING 42573
SWIDTH 960 0
DWIDTH 16 0
BBX 16 16 0 -4
BITMAP
0080
2082
2082
3FFE
0000
0100
0080
3FFE
0010
0410
0410
0210
0220
0220
7FFF
0000
ENDCHAR

STARTCHAR A64E
ENCODING 42574
SWIDTH 960 0
DWIDTH 16 0
BBX 16 16 0 -4
BITMAP
1040
1044
1042
7C40
55FF
5440
5442
54A2
54A4
5494
5508
5D08
1014
1022
1042
1181
ENDCHAR

STARTCHAR A64F
ENCODING 42575
SWIDTH 960 0
DWIDTH 16 0
BBX 16 16 0 -4
BITMAP
1010
1010
10FF
7C91
5492
5490
5490
54FF
5481
54A2
54A2
5D14
1108
1214
1022
10C1
ENDCHAR

STARTCHAR A650
ENCODING 42576
SWIDTH 960 0
DWIDTH 16 0
BBX 16 16 0 -4
BITMAP
1010
1090
1090
7DFE
5510
5410
5410
55FF
5410
5428
5428
5C44
1044
1082
1102
1601
ENDCHAR

STARTCHAR A651
ENCODING 42577
SWIDTH 960 0
DWIDTH 16 0
BBX 16 16 0 -4
BITMAP
0000
7DFF
0421
0421
0421
3C41
2041
2086
4100
7CFF
4481
0481
0481
0481
04FF
3881
ENDCHAR

STARTCHAR A652
ENCODING 42578
SWIDTH 960 0
DWIDTH 16 0
BBX 16 16 0 -4
BITMAP
0010
7C92
0492
0492
0492
3CFE
2010
2010
41FF
7C81
4442
0424
0418
0418
0464
3983
ENDCHAR

STARTCHAR A653
ENCODING 42579
SWIDTH 960 0
DWIDTH 16 0
BBX 16 16 0 -4
BITMAP
0042
7C42
0482
0482
0502
3DBF
2282
2082
40A2
7C92
4492
0482
0482
0482
0482
3886
ENDCHAR

STARTCHAR A654
ENCODING 42580
SWIDTH 960 0
DWIDTH 16 0
BBX 16 16 0 -4
BITMAP
0006
7CF8
0488
0488
0488
3CFF
2088
4088
4088
7C88
0488
0488
04A5
04C5
0403
38F9
ENDCHAR

STARTCHAR A655
ENCODING 42581
SWIDTH 960 0
DWIDTH 16 0
BBX 16 16 0 -4
BITMAP
0800
0FF8
0808
1010
1FF0
1020
0040
7FFF
0080
3086
0CD8
00A0
0690
188C
6083
0380
ENDCHAR

STARTCHAR A656
ENCODING 42582
SWIDTH 960 0
DWIDTH 16 0
BBX 16 16 0 -4
BITMAP
0800
11FC
2104
4504
0504
09FC
0904
1104
3104
51FC
1104
1104
1104
1104
17FF
1000
ENDCHAR

STARTCHAR A657
ENCODING 42583
SWIDTH 960 0
DWIDTH 16 0
BBX 16 16 0 -4
BITMAP
0820
1020
2050
4488
0488
0904
0AFB
1400
3000
51FE
1004
1004
1088
1050
1020
1010
ENDCHAR

STARTCHAR A658
ENCODING 42584
SWIDTH 960 0
DWIDTH 16 0
BBX 16 16 0 -4
BITMAP
080E
11F0
2110
4510
0510
09FF
0910
1110
3110
5108
1108
1108
1145
1185
1003
11F1
ENDCHAR

STARTCHAR A659
ENCODING 42585
SWIDTH 960 0
DWIDTH 16 0
BBX 16 16 0 -4
BITMAP
0100
0080
3FFE
0410
0220
0140
01C0
0630
780F
0240
1244
1222
1202
2208
2208
01F8
ENDCHAR

STARTCHAR A65A
ENCODING 42586
SWIDTH 960 0
DWIDTH 16 0
BBX 16 16 0 -4
BITMAP
0400
0FFE
0800
1FF8
2000
5FFC
0004
0204
0A04
2904
2824
2814
4815
4845
07C2
0002
ENDCHAR

STARTCHAR A65B
ENCODING 42587
SWIDTH 960 0
DWIDTH 16 0
BBX 16 16 0 -4
BITMAP
1030
1008
1000
5822
5422
5422
5424
5524
5128
112A
1131
1221
1061
10A0
1122
163E
ENDCHAR

STARTCHAR A65C
ENCODING 42588
SWIDTH 960 0
DWIDTH 16 0
BBX 16 16 0 -4
BITMAP
1000
11FF
1010
5810
5512
5492
5494
5414
5010
13FF
1010
1010
1010
1010
1010
1010
ENDCHAR

STARTCHAR A65D
ENCODING 42589
SWIDTH 960 0
DWIDTH 16 0
BBX 16 16 0 -4
BITMAP
1010
1010
1010
5810
55FF
5410
5410
5410
5010
10FE
1082
1082
1082
1082
10FE
1082
ENDCHAR

STARTCHAR A65E
ENCODING 42590
SWIDTH 960 0
DWIDTH 16 0
BBX 16 16 0 -4
BITMAP
1000
13FF
1010
5810
55FF
5511
5511
5529
5125
1143
1181
1101
1101
1101
1101
1107
ENDCHAR

STARTCHAR A65F
ENCODING 42591
SWIDTH 960 0
DWIDTH 16 0
BBX 16 16 0 -4
BITMAP
1000
11FE
1102
5902
55FE
5512
5510
5510
51FF
1110
1110
1110
1108
1129
1145
1183
ENDCHAR

STARTCHAR A660
ENCODING 42592
SWIDTH 960 0
DWIDTH 16 0
BBX 16 16 0 -4
BITMAP
1014
1012
1010
59FF
5510
5511
5511
5511
5112
110A
110C
1124
114D
1195
1023
10C1
ENDCHAR

STARTCHAR A661
ENCODING 42593
SWIDTH 960 0
DWIDTH 16 0
BBX 16 16 0 -4
BITMAP
1000
11FF
1021
5821
5421
5441
5441
5486
5100
10FF
1081
1081
1081
1081
10FF
1081
ENDCHAR

STARTCHAR A662
ENCODING 42594
SWIDTH 960 0
DWIDTH 16 0
BBX 16 16 0 -4
BITMAP
1020
1020
1020
583F
5420
5420
5420
5420
51FE
1102
1102
1102
1102
1102
11FE
1102
ENDCHAR

STARTCHAR A663
ENCODING 42595
SWIDTH 960 0
DWIDTH 16 0
BBX 16 16 0 -4
BITMAP
1000
11FE
1102
5902
5502
5502
55FE
514A
5048
1048
1048
1048
1088
1089
1109
160F
ENDCHAR

STARTCHAR A664
ENCODING 42596
SWIDTH 960 0
DWIDTH 16 0
BBX 16 16 0 -4
BITMAP
1000
11FC
1104
5904
5504
55FC
5504
5504
5104
11FC
1104
1104
1104
1104
17FF
1000
ENDCHAR

STARTCHAR A665
ENCODING 42597
SWIDTH 960 0
DWIDTH 16 0
BBX 16 16 0 -4
BITMAP
1010
1010
1010
5810
55FF
5511
5511
5511
5111
11FF
1111
1111
1111
1111
11FF
1101
ENDCHAR

STARTCHAR A666
ENCODING 42598
SWIDTH 960 0
DWIDTH 16 0
BBX 16 16 0 -4
BITMAP
1000
11FF
1129
5929
5529
5529
5529
5529
5129
1149
114F
1181
1101
1101
11FF
1101
ENDCHAR

STARTCHAR A667
ENCODING 42599
SWIDTH 960 0
DWIDTH 16 0
BBX 16 16 0 -4
BITMAP
1010
1050
1050
58FE
5490
5510
5410
55FF
5010
1028
1028
1024
1044
1042
1082
1101
ENDCHAR

STARTCHAR A668
ENCODING 42600
SWIDTH 960 0
DWIDTH 16 0
BBX 16 16 0 -4
BITMAP
1040
1040
1080
58FF
5520
5520
5620
543E
5020
1020
1020
103E
1020
1020
1020
1020
ENDCHAR

STARTCHAR A669
ENCODING 42601
SWIDTH 960 0
DWIDTH 16 0
BBX 16 16 0 -4
BITMAP
1040
1040
1080
58FF
5501
5601
5401
54F9
5089
1089
1089
10F9
1089
1001
1001
1006
ENDCHAR

STARTCHAR A66A
ENCODING 42602
SWIDTH 960 0
DWIDTH 16 0
BBX 16 16 0 -4
BITMAP
1088
1088
1088
5908
553F
5629
5549
54C9
5089
1109
1109
1289
14C9
1329
1011
1026
ENDCHAR

STARTCHAR A66B
ENCODING 42603
SWIDTH 960 0
DWIDTH 16 0
BBX 16 16 0 -4
BITMAP
1080
1080
10AF
5BE1
54A9
54A9
54A9
50A9
1125
1125
1122
10A2
1042
10A5
1109
1231
ENDCHAR

STARTCHAR A66C
ENCODING 42604
SWIDTH 960 0
DWIDTH 16 0
BBX 16 16 0 -4
BITMAP
1020
1020
1122
5924
54A8
5420
55FE
5420
5020
1020
17FF
1020
1020
1020
1020
1020
ENDCHAR

STARTCHAR A66D
ENCODING 42605
SWIDTH 960 0
DWIDTH 16 0
BBX 16 16 0 -4
BITMAP
1000
13FF
1008
5810
5420
5468
54A4
5522
5221
1020
1020
1020
1020
1000
13FF
1000
ENDCHAR

STARTCHAR A66E
ENCODING 42606
SWIDTH 960 0
DWIDTH 16 0
BBX 16 16 0 -4
BITMAP
1040
1040
1040
58FE
5482
5502
54F2
5492
5092
10F2
1082
108C
1080
1081
1081
107F
ENDCHAR

STARTCHAR A66F
ENCODING 42607
SWIDTH 960 0
DWIDTH 16 0
BBX 16 16 0 -4
BITMAP
1020
1050
1088
5904
5602
55FD
5400
5400
51FE
1002
1002
1084
1048
1030
1010
1008
ENDCHAR

STARTCHAR A670
ENCODING 42608
SWIDTH 960 0
DWIDTH 16 0
BBX 16 16 0 -4
BITMAP
0410
0408
3FFE
0410
0220
01C2
0662
781E
0420
0410
3FFF
0210
0120
00C2
0732
780E
ENDCHAR

STARTCHAR A671
ENCODING 42609
SWIDTH 960 0
DWIDTH 16 0
BBX 16 16 0 -4
BITMAP
000E
3FF0
2000
3FFE
2002
2002
3FFE
2000
2108
2088
2408
2208
2008
2FFF
4008
4008
ENDCHAR

STARTCHAR A672
ENCODING 42610
SWIDTH 960 0
DWIDTH 16 0
BBX 16 16 0 -4
BITMAP
1020
1010
1010
7DFF
1101
1102
1048
1048
1C48
7048
1048
1048
1088
1089
1109
3207
ENDCHAR

STARTCHAR A673
ENCODING 42611
SWIDTH 960 0
DWIDTH 16 0
BBX 16 16 0 -4
BITMAP
1024
1124
1124
7D24
1124
17FF
1124
1124
1D24
7124
113C
1100
1100
1100
11FF
3000
ENDCHAR

STARTCHAR A674
ENCODING 42612
SWIDTH 960 0
DWIDTH 16 0
BBX 16 16 0 -4
BITMAP
1084
1084
1084
7C84
13FF
1084
1084
1084
1C84
70FC
1084
1084
1084
1084
10FC
3084
ENDCHAR

STARTCHAR A675
ENCODING 42613
SWIDTH 960 0
DWIDTH 16 0
BBX 16 16 0 -4
BITMAP
1010
1010
1010
7CFE
1010
1010
1010
1010
1DFF
7010
1020
1044
1082
1107
11F9
3001
ENDCHAR

STARTCHAR A676
ENCODING 42614
SWIDTH 960 0
DWIDTH 16 0
BBX 16 16 0 -4
BITMAP
1010
1010
11FF
7C10
1020
1028
1048
10FF
1D49
7249
1049
1049
1049
104B
1008
3008
ENDCHAR

STARTCHAR A677
ENCODING 42615
SWIDTH 960 0
DWIDTH 16 0
BBX 16 16 0 -4
BITMAP
1010
1090
1090
7DFE
1110
1210
1010
13FF
1C10
7028
1028
1044
1044
1082
1102
3201
ENDCHAR

STARTCHAR A678
ENCODING 42616
SWIDTH 960 0
DWIDTH 16 0
BBX 16 16 0 -4
BITMAP
1042
1042
1082
7C82
1102
11BF
1282
1082
1CA2
7092
1092
1082
1082
1082
1082
3086
ENDCHAR

STARTCHAR A679
ENCODING 42617
SWIDTH 960 0
DWIDTH 16 0
BBX 16 16 0 -4
BITMAP
1020
1050
1088
7D04
1212
1421
1040
1184
1C08
7010
1061
1182
1004
1008
1030
31C0
ENDCHAR

STARTCHAR A67A
ENCODING 42618
SWIDTH 960 0
DWIDTH 16 0
BBX 16 16 0 -4
BITMAP
1000
11FF
1101
7D01
11FF
1100
1120
1120
1D20
713F
1120
1120
1220
1221
1421
301F
ENDCHAR

STARTCHAR A67B
ENCODING 42619
SWIDTH 960 0
DWIDTH 16 0
BBX 16 16 0 -4
BITMAP
1000
10FC
1084
7C84
1084
1084
10FC
1084
1C84
7084
10FC
1084
1084
1084
1084
33FF
ENDCHAR

STARTCHAR A67C
ENCODING 42620
SWIDTH 960 0
DWIDTH 16 0
BBX 16 16 0 -4
BITMAP
1010
1010
1010
7DFF
1111
1111
1111
11FF
1D11
7111
1111
11FF
1111
1010
1010
3010
ENDCHAR

STARTCHAR A67D
ENCODING 42621
SWIDTH 960 0
DWIDTH 16 0
BBX 16 16 0 -4
BITMAP
1020
1020
11FC
7D24
1124
1124
11FC
1124
1D24
7124
13FE
1104
1104
1104
1104
311C
ENDCHAR

STARTCHAR A67E
ENCODING 42622
SWIDTH 960 0
DWIDTH 16 0
BBX 16 16 0 -4
BITMAP
1020
1020
1020
7DFC
1124
1124
1124
1124
1D24
77FF
1020
1040
1048
1084
1102
3601
ENDCHAR

STARTCHAR A6A1
ENCODING 42657
SWIDTH 960 0
DWIDTH 16 0
BBX 16 16 0 -4
BITMAP
0000
03C0
0C30
1008
2084
2184
4082
4082
4082
4082
2084
21C4
1008
0C30
03C0
0000
ENDCHAR

STARTCHAR A6A2
ENCODING 42658
SWIDTH 960 0
DWIDTH 16 0
BBX 16 16 0 -4
BITMAP
0000
03C0
0C30
1008
23C4
2424
4022
4042
4182
4202
27E4
2004
1008
0C30
03C0
0000
ENDCHAR

STARTCHAR A6A3
ENCODING 42659
SWIDTH 960 0
DWIDTH 16 0
BBX 16 16 0 -4
BITMAP
0000
03C0
0C30
1008
23C4
2424
4022
41C2
4022
4022
2424
23C4
1008
0C30
03C0
0000
ENDCHAR

STARTCHAR A6A4
ENCODING 42660
SWIDTH 960 0
DWIDTH 16 0
BBX 16 16 0 -4
BITMAP
0000
03C0
0C30
1008
2044
20C4
4142
4242
4442
4FF2
2044
2044
1008
0C30
03C0
0000
ENDCHAR

STARTCHAR A6A5
ENCODING 42661
SWIDTH 960 0
DWIDTH 16 0
BBX 16 16 0 -4
BITMAP
0000
03C0
0C30
1008
27E4
2404
4402
47C2
4422
4022
2424
23C4
1008
0C30
03C0
0000
ENDCHAR

STARTCHAR A6A6
ENCODING 42662
SWIDTH 960 0
DWIDTH 16 0
BBX 16 16 0 -4
BITMAP
0000
03C0
0C30
1008
23C4
2424
4402
47C2
4422
4422
2424
23C4
1008
0C30
03C0
0000
ENDCHAR

STARTCHAR A6A7
ENCODING 42663
SWIDTH 960 0
DWIDTH 16 0
BBX 16 16 0 -4
BITMAP
0000
03C0
0C30
1008
27E4
2424
4022
4042
4042
4042
2084
2084
1088
0C30
03C0
0000
ENDCHAR

STARTCHAR A6A8
ENCODING 42664
SWIDTH 960 0
DWIDTH 16 0
BBX 16 16 0 -4
BITMAP
0000
03C0
0C30
1008
23C4
2424
4422
43C2
4422
4422
2424
23C4
1008
0C30
03C0
0000
ENDCHAR

STARTCHAR A6A9
ENCODING 42665
SWIDTH 960 0
DWIDTH 16 0
BBX 16 16 0 -4
BITMAP
0000
03C0
0C30
1008
23C4
2424
4422
4422
43E2
4022
2424
23C4
1008
0C30
03C0
0000
ENDCHAR

STARTCHAR A6AA
ENCODING 42666
SWIDTH 960 0
DWIDTH 16 0
BBX 16 16 0 -4
BITMAP
0000
03C0
0C30
1008
24E4
2514
4512
4512
4512
4512
2514
24E4
1008
0C30
03C0
0000
ENDCHAR

STARTCHAR A6AB
ENCODING 42667
SWIDTH 960 0
DWIDTH 16 0
BBX 16 16 0 -4
BITMAP
0000
0000
1008
2084
2184
4282
4082
4082
4082
4082
4082
2084
23E4
1008
0000
0000
ENDCHAR

STARTCHAR A6AC
ENCODING 42668
SWIDTH 960 0
DWIDTH 16 0
BBX 16 16 0 -4
BITMAP
0000
0000
1008
23C4
2424
4422
4022
4042
4082
4102
4202
2404
27E4
1008
0000
0000
ENDCHAR

STARTCHAR A6AD
ENCODING 42669
SWIDTH 960 0
DWIDTH 16 0
BBX 16 16 0 -4
BITMAP
0000
0000
1008
23C4
2424
4422
4022
43C2
4022
4022
4422
2424
23C4
1008
0000
0000
ENDCHAR

STARTCHAR A6AE
ENCODING 42670
SWIDTH 960 0
DWIDTH 16 0
BBX 16 16 0 -4
BITMAP
0000
0000
1008
2044
20C4
4142
4242
4442
4842
4FFA
4042
2044
2044
1008
0000
0000
ENDCHAR

STARTCHAR A6AF
ENCODING 42671
SWIDTH 960 0
DWIDTH 16 0
BBX 16 16 0 -4
BITMAP
0000
0000
1008
27E4
2404
4402
4402
47C2
4422
4022
4022
2424
23C4
1008
0000
0000
ENDCHAR

STARTCHAR A6B0
ENCODING 42672
SWIDTH 960 0
DWIDTH 16 0
BBX 16 16 0 -4
BITMAP
0000
0000
1008
23C4
2424
4402
4402
47C2
4422
4422
4422
2424
23C4
1008
0000
0000
ENDCHAR

STARTCHAR A6B1
ENCODING 42673
SWIDTH 960 0
DWIDTH 16 0
BBX 16 16 0 -4
BITMAP
0000
0000
1008
27E4
2424
4022
4042
4042
4082
4082
4102
2104
2104
1008
0000
0000
ENDCHAR

STARTCHAR A6B2
ENCODING 42674
SWIDTH 960 0
DWIDTH 16 0
BBX 16 16 0 -4
BITMAP
0000
0000
1008
23C4
2424
4422
4422
43C2
4422
4422
4422
2424
23C4
1008
0000
0000
ENDCHAR

STARTCHAR A6B3
ENCODING 42675
SWIDTH 960 0
DWIDTH 16 0
BBX 16 16 0 -4
BITMAP
0000
0000
1008
23C4
2424
4422
4422
4422
43E2
4022
4022
2424
23C4
1008
0000
0000
ENDCHAR

STARTCHAR A6B4
ENCODING 42676
SWIDTH 960 0
DWIDTH 16 0
BBX 16 16 0 -4
BITMAP
0000
0000
1008
24E4
2514
4512
4512
4512
4512
4512
4512
2514
24E4
1008
0000
0000
ENDCHAR

STARTCHAR A6B5
ENCODING 42677
SWIDTH 960 0
DWIDTH 16 0
BBX 16 16 0 -4
BITMAP
0000
0080
0080
0000
0000
0000
0380
0080
0080
0080
0080
0080
03E0
0000
0000
0000
ENDCHAR

STARTCHAR A6B6
ENCODING 42678
SWIDTH 960 0
DWIDTH 16 0
BBX 16 16 0 -4
BITMAP
0000
0410
0410
0000
0000
0000
1C70
0410
0410
0410
0410
0410
1F7C
0000
0000
0000
ENDCHAR

STARTCHAR A6B7
ENCODING 42679
SWIDTH 960 0
DWIDTH 16 0
BBX 16 16 0 -4
BITMAP
0000
0888
0888
0000
0000
0000
1998
0888
0888
0888
0888
0888
1DDC
0000
0000
0000
ENDCHAR

STARTCHAR A6B8
ENCODING 42680
SWIDTH 960 0
DWIDTH 16 0
BBX 16 16 0 -4
BITMAP
0000
0800
0800
0000
0000
0000
3B8E
0904
0888
0888
0850
0820
3E20
0000
0000
0000
ENDCHAR

STARTCHAR A6B9
ENCODING 42681
SWIDTH 960 0
DWIDTH 16 0
BBX 16 16 0 -4
BITMAP
0000
0000
0000
0000
0000
0000
0E38
0410
0220
0220
0140
0080
0080
0000
0000
0000
ENDCHAR

STARTCHAR A6BA
ENCODING 42682
SWIDTH 960 0
DWIDTH 16 0
BBX 16 16 0 -4
BITMAP
0000
0008
0008
0000
0000
0000
71D8
2088
1108
1108
0A08
0408
043E
0000
0000
0000
ENDCHAR

STARTCHAR A6BB
ENCODING 42683
SWIDTH 960 0
DWIDTH 16 0
BBX 16 16 0 -4
BITMAP
0000
0024
0024
0000
0000
0000
636C
4124
2224
2224
1424
0824
087E
0000
0000
0000
ENDCHAR

STARTCHAR A6BC
ENCODING 42684
SWIDTH 960 0
DWIDTH 16 0
BBX 16 16 0 -4
BITMAP
0000
002A
002A
0000
0000
0000
637E
412A
222A
222A
142A
082A
087F
0000
0000
0000
ENDCHAR

STARTCHAR A6BD
ENCODING 42685
SWIDTH 960 0
DWIDTH 16 0
BBX 16 16 0 -4
BITMAP
0000
0800
0800
0000
0000
0000
38EE
0844
0828
0810
0828
0844
3EEE
0000
0000
0000
ENDCHAR

STARTCHAR A6BE
ENCODING 42686
SWIDTH 960 0
DWIDTH 16 0
BBX 16 16 0 -4
BITMAP
0000
0000
0000
0000
0000
0000
0738
0210
0120
00C0
0120
0210
0738
0000
0000
0000
ENDCHAR

STARTCHAR A721
ENCODING 42785
SWIDTH 960 0
DWIDTH 16 0
BBX 16 16 0 -4
BITMAP
101E
11E0
1040
7C20
1020
11FC
1004
1008
1C08
7010
1020
1040
1080
1300
10C0
303F
ENDCHAR

STARTCHAR A722
ENCODING 42786
SWIDTH 960 0
DWIDTH 16 0
BBX 16 16 0 -4
BITMAP
0010
0C10
0210
123F
2142
2112
4092
3F12
090A
090C
0904
110C
1112
2112
4221
0C41
ENDCHAR

STARTCHAR A723
ENCODING 42787
SWIDTH 960 0
DWIDTH 16 0
BBX 16 16 0 -4
BITMAP
0400
040E
2470
2440
2440
2440
3C7F
0444
0444
3C44
2444
2444
2444
2484
4484
4484
ENDCHAR

STARTCHAR A724
ENCODING 42788
SWIDTH 960 0
DWIDTH 16 0
BBX 16 16 0 -4
BITMAP
1020
0820
0820
7F7F
1040
1080
103C
1E24
1224
1224
1224
1224
2224
2245
4245
0C87
ENDCHAR

STARTCHAR A725
ENCODING 42789
SWIDTH 960 0
DWIDTH 16 0
BBX 16 16 0 -4
BITMAP
0040
0020
7C20
47FF
4440
4440
4440
7C7E
4442
4442
4442
4442
7C82
4482
0102
021C
ENDCHAR

STARTCHAR A726
ENCODING 42790
SWIDTH 960 0
DWIDTH 16 0
BBX 16 16 0 -4
BITMAP
0020
0010
7C10
47FF
4482
4482
4482
7C44
4444
4428
4428
4410
7C28
4444
0082
0301
ENDCHAR

STARTCHAR A727
ENCODING 42791
SWIDTH 960 0
DWIDTH 16 0
BBX 16 16 0 -4
BITMAP
0000
00FF
7C80
4480
4480
44FE
44A2
7CA2
44A2
44A2
4494
4494
7D08
0114
0222
00C1
ENDCHAR

STARTCHAR A728
ENCODING 42792
SWIDTH 960 0
DWIDTH 16 0
BBX 16 16 0 -4
BITMAP
0080
0080
7C80
44FF
4529
4529
4629
7C49
4449
4491
4491
4521
7C21
4441
0082
000C
ENDCHAR

STARTCHAR A729
ENCODING 42793
SWIDTH 960 0
DWIDTH 16 0
BBX 16 16 0 -4
BITMAP
000F
00F0
7C80
4480
44FF
4481
4481
7C81
44FF
4481
4480
4480
7C80
4100
0100
0200
ENDCHAR

STARTCHAR A72A
ENCODING 42794
SWIDTH 960 0
DWIDTH 16 0
BBX 16 16 0 -4
BITMAP
0000
1FFC
1004
1FFC
1004
1FFC
1104
0080
3FFE
0410
0220
0140
0080
0360
0C18
3007
ENDCHAR

STARTCHAR A72B
ENCODING 42795
SWIDTH 960 0
DWIDTH 16 0
BBX 16 16 0 -4
BITMAP
0000
1FFE
1002
1FFE
1002
1FFE
0000
3FFF
2040
2040
2040
2040
20A0
4110
460C
1803
ENDCHAR

STARTCHAR A72C
ENCODING 42796
SWIDTH 960 0
DWIDTH 16 0
BBX 16 16 0 -4
BITMAP
003C
1FC0
0080
0080
7FFF
0140
0220
0410
180C
6003
1FFC
1004
1FFC
1004
1FFC
100C
ENDCHAR

STARTCHAR A72D
ENCODING 42797
SWIDTH 960 0
DWIDTH 16 0
BBX 16 16 0 -4
BITMAP
0000
7E7E
4242
4242
4242
4242
4242
7E7E
4242
4242
4242
4242
4242
7E7E
4242
0000
ENDCHAR

STARTCHAR A72E
ENCODING 42798
SWIDTH 960 0
DWIDTH 16 0
BBX 16 16 0 -4
BITMAP
0000
7DFE
4482
4482
4484
4488
7CFF
44A1
44A1
44A2
4512
7D14
4208
0214
0422
00C1
ENDCHAR

STARTCHAR A72F
ENCODING 42799
SWIDTH 960 0
DWIDTH 16 0
BBX 16 16 0 -4
BITMAP
0010
0010
7DFF
4410
4410
4492
4492
7C92
4492
4492
44FE
4492
7C10
4411
0011
000F
ENDCHAR

STARTCHAR A730
ENCODING 42800
SWIDTH 960 0
DWIDTH 16 0
BBX 16 16 0 -4
BITMAP
0020
7850
4888
4904
4A02
4DFD
7800
4800
49FC
4804
4804
7808
4808
0010
0020
0040
ENDCHAR

STARTCHAR A731
ENCODING 42801
SWIDTH 960 0
DWIDTH 16 0
BBX 16 16 0 -4
BITMAP
0020
0010
7888
4888
4904
4904
4A02
7DFD
4844
4844
4844
4844
7884
0084
0108
0630
ENDCHAR

STARTCHAR A732
ENCODING 42802
SWIDTH 960 0
DWIDTH 16 0
BBX 16 16 0 -4
BITMAP
0800
1000
1FFE
2222
4222
0422
1842
0084
0738
0000
1FFC
1004
1FFC
1004
1FFC
1004
ENDCHAR

STARTCHAR A733
ENCODING 42803
SWIDTH 960 0
DWIDTH 16 0
BBX 16 16 0 -4
BITMAP
0000
3CFE
2400
2400
2400
3C00
27FF
2448
2448
3C48
2448
2448
2448
4489
4489
0D0F
ENDCHAR

STARTCHAR A734
ENCODING 42804
SWIDTH 960 0
DWIDTH 16 0
BBX 16 16 0 -4
BITMAP
0800
09FF
0844
7E44
0844
0844
19FF
1C44
2A44
2844
4844
4844
0844
0884
0884
0904
ENDCHAR

STARTCHAR A735
ENCODING 42805
SWIDTH 960 0
DWIDTH 16 0
BBX 16 16 0 -4
BITMAP
0800
09FE
0800
7E00
0800
0800
1BFF
1C48
2A48
2848
4848
4848
0848
0889
0889
090F
ENDCHAR

STARTCHAR A736
ENCODING 42806
SWIDTH 960 0
DWIDTH 16 0
BBX 16 16 0 -4
BITMAP
0810
0810
0810
7EFE
0810
0810
1810
1DFF
2A10
2818
4828
4824
0844
0842
0882
0901
ENDCHAR

STARTCHAR A737
ENCODING 42807
SWIDTH 960 0
DWIDTH 16 0
BBX 16 16 0 -4
BITMAP
0800
087F
0844
7E44
0844
0884
1884
1CFF
2A14
2814
4824
4844
0884
0904
0804
081C
ENDCHAR

STARTCHAR A738
ENCODING 42808
SWIDTH 960 0
DWIDTH 16 0
BBX 16 16 0 -4
BITMAP
1020
1020
11FE
7C20
1020
1124
3124
3924
5524
5124
11FC
1124
1020
1021
1021
101F
ENDCHAR

STARTCHAR A739
ENCODING 42809
SWIDTH 960 0
DWIDTH 16 0
BBX 16 16 0 -4
BITMAP
1000
10FC
1024
7C24
1024
1024
3024
39FF
5444
5044
1044
1044
1044
1044
13FF
1000
ENDCHAR

STARTCHAR A73A
ENCODING 42810
SWIDTH 960 0
DWIDTH 16 0
BBX 16 16 0 -4
BITMAP
1020
1010
1010
7C10
11FF
1111
3111
3929
5529
5145
1183
1101
1101
1101
1101
1103
ENDCHAR

STARTCHAR A73B
ENCODING 42811
SWIDTH 960 0
DWIDTH 16 0
BBX 16 16 0 -4
BITMAP
1000
101E
10F0
7C20
1020
1020
31FE
3820
5420
5020
13FF
1020
1020
1021
1021
101F
ENDCHAR

STARTCHAR A73C
ENCODING 42812
SWIDTH 960 0
DWIDTH 16 0
BBX 16 16 0 -4
BITMAP
1080
1080
1080
7DFF
1101
1201
3021
3821
5441
5051
1089
1139
13C5
1001
1002
100C
ENDCHAR

STARTCHAR A73D
ENCODING 42813
SWIDTH 960 0
DWIDTH 16 0
BBX 16 16 0 -4
BITMAP
1040
1040
107F
7C91
1091
1111
3012
3812
5410
5010
1028
1028
1044
1044
1082
1301
ENDCHAR

STARTCHAR A73E
ENCODING 42814
SWIDTH 960 0
DWIDTH 16 0
BBX 16 16 0 -4
BITMAP
1030
1008
1044
7C82
1101
12FC
3020
3820
5440
507C
1004
1004
1004
1004
1008
1070
ENDCHAR

STARTCHAR A73F
ENCODING 42815
SWIDTH 960 0
DWIDTH 16 0
BBX 16 16 0 -4
BITMAP
1000
1030
1008
7C88
1084
1104
3202
39FD
5444
5044
1044
1044
1084
1084
1108
1230
ENDCHAR

STARTCHAR A740
ENCODING 42816
SWIDTH 960 0
DWIDTH 16 0
BBX 16 16 0 -4
BITMAP
1020
1010
1008
7C48
1040
1040
3140
3942
5542
5141
1141
1241
1245
1444
1044
103C
ENDCHAR

STARTCHAR A741
ENCODING 42817
SWIDTH 960 0
DWIDTH 16 0
BBX 16 16 0 -4
BITMAP
1000
11FE
1000
7C00
1000
1000
33FF
3820
5420
5040
1044
1082
1082
111F
13E1
1001
ENDCHAR

STARTCHAR A742
ENCODING 42818
SWIDTH 960 0
DWIDTH 16 0
BBX 16 16 0 -4
BITMAP
1000
13FF
1080
7C80
1080
10FC
3084
3884
5508
5108
11F8
1108
1008
1008
17FF
1000
ENDCHAR

STARTCHAR A743
ENCODING 42819
SWIDTH 960 0
DWIDTH 16 0
BBX 16 16 0 -4
BITMAP
1000
11FF
1100
7D00
1100
117E
3142
3942
5542
5142
114E
1240
1241
1241
143F
1000
ENDCHAR

STARTCHAR A744
ENCODING 42820
SWIDTH 960 0
DWIDTH 16 0
BBX 16 16 0 -4
BITMAP
1080
1080
1080
7DFF
1101
1201
3001
39F9
5401
5001
1001
11F9
1001
1001
1002
101C
ENDCHAR

STARTCHAR A745
ENCODING 42821
SWIDTH 960 0
DWIDTH 16 0
BBX 16 16 0 -4
BITMAP
101E
11F0
1010
7C10
1010
11FE
3010
3810
5410
53FF
1010
1010
1010
1010
1010
1070
ENDCHAR

STARTCHAR A746
ENCODING 42822
SWIDTH 960 0
DWIDTH 16 0
BBX 16 16 0 -4
BITMAP
1000
11FC
1084
7C84
1088
1090
30FF
38A1
54A1
50A2
1112
1114
1208
1214
1422
14C1
ENDCHAR

STARTCHAR A747
ENCODING 42823
SWIDTH 960 0
DWIDTH 16 0
BBX 16 16 0 -4
BITMAP
1000
10F8
1088
7C88
1088
110F
3200
39FC
5404
5088
1048
1050
1020
1050
108C
1303
ENDCHAR

STARTCHAR A748
ENCODING 42824
SWIDTH 960 0
DWIDTH 16 0
BBX 16 16 0 -4
BITMAP
1090
1090
1090
7D10
1110
1110
331E
3B10
5510
5110
1110
1110
1110
1110
1111
110F
ENDCHAR

STARTCHAR A749
ENCODING 42825
SWIDTH 960 0
DWIDTH 16 0
BBX 16 16 0 -4
BITMAP
1010
1020
1050
7C88
1104
1202
30F8
3800
5400
51FE
1002
1004
1004
1008
1010
1020
ENDCHAR

STARTCHAR A74A
ENCODING 42826
SWIDTH 960 0
DWIDTH 16 0
BBX 16 16 0 -4
BITMAP
0080
0080
78FE
4922
4922
4A24
4828
7820
4820
4850
4850
7888
4888
0104
0202
0C01
ENDCHAR

STARTCHAR A74B
ENCODING 42827
SWIDTH 960 0
DWIDTH 16 0
BBX 16 16 0 -4
BITMAP
0000
7E1E
11F0
1010
1E10
2210
2210
33FF
2C10
4428
4828
0844
1044
1082
2102
2601
ENDCHAR

STARTCHAR A74C
ENCODING 42828
SWIDTH 960 0
DWIDTH 16 0
BBX 16 16 0 -4
BITMAP
0040
7E40
1080
10FF
1D29
2529
2649
3449
2C91
4491
4911
0A21
1042
1082
2302
400C
ENDCHAR

STARTCHAR A74D
ENCODING 42829
SWIDTH 960 0
DWIDTH 16 0
BBX 16 16 0 -4
BITMAP
2040
2040
3F7E
2040
2041
273F
3800
00F8
1F00
0100
3FF8
0100
7FFF
0102
0102
00FE
ENDCHAR

STARTCHAR A74E
ENCODING 42830
SWIDTH 960 0
DWIDTH 16 0
BBX 16 16 0 -4
BITMAP
0400
0FFE
0800
1FF8
2000
5FFC
0404
0204
3FE4
2224
2524
28A4
3065
2025
2022
2062
ENDCHAR

STARTCHAR A74F
ENCODING 42831
SWIDTH 960 0
DWIDTH 16 0
BBX 16 16 0 -4
BITMAP
0080
0086
7EB8
02C0
04A0
0890
108C
6083
0380
0000
1FFC
1004
1FFC
1004
1FFC
1004
ENDCHAR

STARTCHAR A750
ENCODING 42832
SWIDTH 960 0
DWIDTH 16 0
BBX 16 16 0 -4
BITMAP
0040
2020
17FF
0401
0402
0010
4008
2088
0088
1088
1084
2084
2104
4102
4202
0401
ENDCHAR

STARTCHAR A751
ENCODING 42833
SWIDTH 960 0
DWIDTH 16 0
BBX 16 16 0 -4
BITMAP
0040
2020
1020
07FF
0020
0040
4084
2304
0088
1050
1020
2044
2084
411E
47E1
0001
ENDCHAR

STARTCHAR A752
ENCODING 42834
SWIDTH 960 0
DWIDTH 16 0
BBX 16 16 0 -4
BITMAP
0020
2020
1222
0122
0124
0020
43FE
2020
0020
0020
17FF
1020
2020
2020
4020
4020
ENDCHAR

STARTCHAR A753
ENCODING 42835
SWIDTH 960 0
DWIDTH 16 0
BBX 16 16 0 -4
BITMAP
0000
23FE
1020
0020
0224
0124
4128
2028
0020
07FF
1020
1020
2020
2020
4020
4020
ENDCHAR

STARTCHAR A754
ENCODING 42836
SWIDTH 960 0
DWIDTH 16 0
BBX 16 16 0 -4
BITMAP
0000
23FC
1000
0000
0000
0FFF
4020
2020
0124
0124
1222
1222
2421
2821
4020
4020
ENDCHAR

STARTCHAR A755
ENCODING 42837
SWIDTH 960 0
DWIDTH 16 0
BBX 16 16 0 -4
BITMAP
0104
2104
1104
0104
07FF
0104
4104
2104
0104
01FC
1104
1104
2104
2104
41FC
4104
ENDCHAR

STARTCHAR A756
ENCODING 42838
SWIDTH 960 0
DWIDTH 16 0
BBX 16 16 0 -4
BITMAP
0024
2022
1020
07FF
0020
0020
4124
2124
0124
0124
1124
1124
2224
2223
4420
4020
ENDCHAR

STARTCHAR A757
ENCODING 42839
SWIDTH 960 0
DWIDTH 16 0
BBX 16 16 0 -4
BITMAP
0024
2022
1020
03FF
0220
0220
4220
2211
0211
1212
1214
2208
2249
4295
4323
0041
ENDCHAR

STARTCHAR A758
ENCODING 42840
SWIDTH 960 0
DWIDTH 16 0
BBX 16 16 0 -4
BITMAP
0080
2088
1084
0080
07FF
0080
4084
20C4
0144
1128
1128
2210
2210
4428
40C4
0303
ENDCHAR

STARTCHAR A759
ENCODING 42841
SWIDTH 960 0
DWIDTH 16 0
BBX 16 16 0 -4
BITMAP
0010
2790
1490
0490
057E
0512
4612
2512
0492
0492
1492
1492
2722
2422
4442
448C
ENDCHAR

STARTCHAR A75A
ENCODING 42842
SWIDTH 960 0
DWIDTH 16 0
BBX 16 16 0 -4
BITMAP
0000
27FE
1402
0402
0402
04F2
4492
2492
0492
0492
1492
14F2
2402
2402
4402
440E
ENDCHAR

STARTCHAR A75B
ENCODING 42843
SWIDTH 960 0
DWIDTH 16 0
BBX 16 16 0 -4
BITMAP
0000
23FE
1222
0222
0222
4222
2222
03FE
1222
1222
1222
2222
2222
23FE
4202
4000
ENDCHAR

STARTCHAR A75C
ENCODING 42844
SWIDTH 960 0
DWIDTH 16 0
BBX 16 16 0 -4
BITMAP
0100
2100
11FE
0202
0202
45F2
2912
0112
1112
1112
11F2
2112
2002
2002
4004
4038
ENDCHAR

STARTCHAR A75D
ENCODING 42845
SWIDTH 960 0
DWIDTH 16 0
BBX 16 16 0 -4
BITMAP
0020
2120
1120
03FE
0220
0420
4020
27FF
0020
1050
1050
2088
2088
4104
4202
0401
ENDCHAR

STARTCHAR A75E
ENCODING 42846
SWIDTH 960 0
DWIDTH 16 0
BBX 16 16 0 -4
BITMAP
0084
2084
1104
0104
0204
037F
4504
2904
0124
0114
1114
1104
2104
2104
4104
410C
ENDCHAR

STARTCHAR A75F
ENCODING 42847
SWIDTH 960 0
DWIDTH 16 0
BBX 16 16 0 -4
BITMAP
0020
2020
103E
03E0
0220
4420
2420
07FF
1021
1061
10A1
2122
222C
2C20
4020
4020
ENDCHAR

STARTCHAR A760
ENCODING 42848
SWIDTH 960 0
DWIDTH 16 0
BBX 16 16 0 -4
BITMAP
001E
21E4
1124
0124
0124
0124
4124
2124
0124
1124
1124
2242
224A
4499
48E5
0001
ENDCHAR

STARTCHAR A761
ENCODING 42849
SWIDTH 960 0
DWIDTH 16 0
BBX 16 16 0 -4
BITMAP
000E
21F0
1100
0100
0100
41FF
2108
0108
0108
110C
110A
2109
2108
4208
4208
0408
ENDCHAR

STARTCHAR A762
ENCODING 42850
SWIDTH 960 0
DWIDTH 16 0
BBX 16 16 0 -4
BITMAP
0010
2030
1048
0084
0102
0211
4020
2044
0188
0010
1061
1182
2004
2018
4060
4380
ENDCHAR

STARTCHAR A763
ENCODING 42851
SWIDTH 960 0
DWIDTH 16 0
BBX 16 16 0 -4
BITMAP
0808
0808
0808
7F09
496A
491C
082C
082A
144A
1449
1489
1408
2408
2439
4401
03FF
ENDCHAR

STARTCHAR A764
ENCODING 42852
SWIDTH 960 0
DWIDTH 16 0
BBX 16 16 0 -4
BITMAP
0808
0808
0908
0A09
7CF9
1A1A
2A2C
2A2A
292A
494A
4849
4889
0889
0908
0808
1818
ENDCHAR

STARTCHAR A765
ENCODING 42853
SWIDTH 960 0
DWIDTH 16 0
BBX 16 16 0 -4
BITMAP
0800
087F
0902
0A64
7C18
1A08
2AFF
2A09
290A
4908
4888
4888
0808
0808
0808
1838
ENDCHAR

STARTCHAR A766
ENCODING 42854
SWIDTH 960 0
DWIDTH 16 0
BBX 16 16 0 -4
BITMAP
0040
2020
17FF
0401
0401
0000
43FE
2020
0020
0020
1020
1020
2020
2020
4020
40E0
ENDCHAR

STARTCHAR A767
ENCODING 42855
SWIDTH 960 0
DWIDTH 16 0
BBX 16 16 0 -4
BITMAP
0000
27FF
1001
0001
03F9
4001
2001
01F1
0111
1111
1111
21F1
2111
4001
4001
000E
ENDCHAR

STARTCHAR A768
ENCODING 42856
SWIDTH 960 0
DWIDTH 16 0
BBX 16 16 0 -4
BITMAP
0000
27FE
1200
0200
0200
03FC
4204
2204
0204
0204
13FC
1204
2200
2200
4FFF
4000
ENDCHAR

STARTCHAR A769
ENCODING 42857
SWIDTH 960 0
DWIDTH 16 0
BBX 16 16 0 -4
BITMAP
0020
2020
1020
07FF
00A8
40A8
20A8
0124
0124
1222
1222
2421
29FC
4020
4020
0020
ENDCHAR

STARTCHAR A76A
ENCODING 42858
SWIDTH 960 0
DWIDTH 16 0
BBX 16 16 0 -4
BITMAP
0100
2100
1100
07EF
0129
0129
4129
2129
0129
0129
1129
1229
2229
222F
4449
4980
ENDCHAR

STARTCHAR A76B
ENCODING 42859
SWIDTH 960 0
DWIDTH 16 0
BBX 16 16 0 -4
BITMAP
0000
23FF
1020
0020
0040
0040
4080
20FF
0181
1281
1481
2081
2081
4081
40FF
0081
ENDCHAR

STARTCHAR A76C
ENCODING 42860
SWIDTH 960 0
DWIDTH 16 0
BBX 16 16 0 -4
BITMAP
0000
21FC
1104
0104
0104
01FC
4104
2104
0104
0104
11FC
1104
2000
2000
47FF
4000
ENDCHAR

STARTCHAR A76D
ENCODING 42861
SWIDTH 960 0
DWIDTH 16 0
BBX 16 16 0 -4
BITMAP
0020
2020
1222
0222
0222
0222
43FE
2222
0020
0020
1222
1222
2222
2222
43FE
4202
ENDCHAR

STARTCHAR A76E
ENCODING 42862
SWIDTH 960 0
DWIDTH 16 0
BBX 16 16 0 -4
BITMAP
0020
2220
1220
0220
03FF
0420
4420
2020
0020
03FE
1020
1020
2020
2020
4FFF
4000
ENDCHAR

STARTCHAR A76F
ENCODING 42863
SWIDTH 960 0
DWIDTH 16 0
BBX 16 16 0 -4
BITMAP
0008
2108
1108
023F
0409
0489
4289
2109
0109
0209
1489
1449
24D1
2751
4022
404C
ENDCHAR

STARTCHAR A770
ENCODING 42864
SWIDTH 960 0
DWIDTH 16 0
BBX 16 16 0 -4
BITMAP
1020
1020
1020
11FE
1422
5822
5022
5022
13FF
1020
1020
2848
2444
2082
4101
0601
ENDCHAR

STARTCHAR A771
ENCODING 42865
SWIDTH 960 0
DWIDTH 16 0
BBX 16 16 0 -4
BITMAP
100E
10F0
1080
1080
1480
58FF
5088
5088
1088
1088
1088
2908
2508
2108
4208
0008
ENDCHAR

STARTCHAR A772
ENCODING 42866
SWIDTH 960 0
DWIDTH 16 0
BBX 16 16 0 -4
BITMAP
0000
1FFC
1004
1FFC
1004
1FFC
1004
0080
0080
1082
0884
0548
0220
0410
180C
2003
ENDCHAR

STARTCHAR A773
ENCODING 42867
SWIDTH 960 0
DWIDTH 16 0
BBX 16 16 0 -4
BITMAP
1008
1008
1088
1048
1448
5808
5108
5088
1088
1008
13FF
2808
2408
2008
4008
0008
ENDCHAR

STARTCHAR A774
ENCODING 42868
SWIDTH 960 0
DWIDTH 16 0
BBX 16 16 0 -4
BITMAP
1020
1010
1010
11FF
1402
5842
5042
5044
1024
1028
1018
2810
2428
2044
4082
0301
ENDCHAR

STARTCHAR A775
ENCODING 42869
SWIDTH 960 0
DWIDTH 16 0
BBX 16 16 0 -4
BITMAP
1000
10FC
1024
1024
1424
5824
5024
51FF
1044
1044
1044
2844
2444
2044
43FF
0000
ENDCHAR

STARTCHAR A776
ENCODING 42870
SWIDTH 960 0
DWIDTH 16 0
BBX 16 16 0 -4
BITMAP
1010
1010
1010
1410
19FF
5054
5054
5054
1054
1092
1092
2892
2511
2111
4211
0010
ENDCHAR

STARTCHAR A777
ENCODING 42871
SWIDTH 960 0
DWIDTH 16 0
BBX 16 16 0 -4
BITMAP
1020
1020
13FE
1020
1420
5924
5124
5124
1124
1124
11FC
2924
2420
2021
4021
001F
ENDCHAR

STARTCHAR A778
ENCODING 42872
SWIDTH 960 0
DWIDTH 16 0
BBX 16 16 0 -4
BITMAP
1000
1010
1008
1044
1444
5882
5101
5010
1010
1020
1020
2844
2442
208F
41F1
0000
ENDCHAR

STARTCHAR A779
ENCODING 42873
SWIDTH 960 0
DWIDTH 16 0
BBX 16 16 0 -4
BITMAP
0010
7C10
4411
4511
4512
4492
7C94
4410
4428
4428
4424
7C44
4442
0082
0101
0201
ENDCHAR

STARTCHAR A77A
ENCODING 42874
SWIDTH 960 0
DWIDTH 16 0
BBX 16 16 0 -4
BITMAP
0060
0210
0408
1804
6FFB
0108
0208
0408
18B0
0082
3084
0948
0220
0410
080C
3003
ENDCHAR

STARTCHAR A77B
ENCODING 42875
SWIDTH 960 0
DWIDTH 16 0
BBX 16 16 0 -4
BITMAP
0808
2848
2848
3E7F
4848
4888
0808
0808
0E08
78FF
0808
0808
0808
0808
0808
0808
ENDCHAR

STARTCHAR A77C
ENCODING 42876
SWIDTH 960 0
DWIDTH 16 0
BBX 16 16 0 -4
BITMAP
0020
4410
29FF
1101
2902
4800
0810
1408
1448
2448
4444
0444
0484
0482
0502
1A01
ENDCHAR

STARTCHAR A77D
ENCODING 42877
SWIDTH 960 0
DWIDTH 16 0
BBX 16 16 0 -4
BITMAP
0000
45FE
2800
1000
2800
4BFF
0810
1410
1492
2492
4511
0511
0611
0410
0410
1810
ENDCHAR

STARTCHAR A77E
ENCODING 42878
SWIDTH 960 0
DWIDTH 16 0
BBX 16 16 0 -4
BITMAP
0014
4412
2810
11FF
2910
4910
0910
1911
1911
2912
490A
090C
0949
0995
0923
3041
ENDCHAR

STARTCHAR A7A1
ENCODING 42913
SWIDTH 960 0
DWIDTH 16 0
BBX 16 16 0 -4
BITMAP
0000
0000
0000
0000
0000
0000
0000
7FFF
0000
0000
0000
0000
0000
0000
0000
0000
ENDCHAR

STARTCHAR A7A2
ENCODING 42914
SWIDTH 960 0
DWIDTH 16 0
BBX 16 16 0 -4
BITMAP
0080
0080
0080
0080
0080
0080
0080
0080
0080
0080
0080
0080
0080
0080
0080
0080
ENDCHAR

STARTCHAR A7A3
ENCODING 42915
SWIDTH 960 0
DWIDTH 16 0
BBX 16 16 0 -4
BITMAP
0000
0000
0000
0000
0200
0100
0080
0080
0040
0040
0000
0000
0000
0000
0000
0000
ENDCHAR

STARTCHAR A7A4
ENCODING 42916
SWIDTH 960 0
DWIDTH 16 0
BBX 16 16 0 -4
BITMAP
0080
0080
0080
0080
0080
0080
0080
0080
0080
0080
0100
0100
0100
0200
0200
0400
ENDCHAR

STARTCHAR A7A5
ENCODING 42917
SWIDTH 960 0
DWIDTH 16 0
BBX 16 16 0 -4
BITMAP
0000
3FF8
0008
0010
0020
00C0
0100
0600
0800
1000
2002
4002
4002
4002
3FFE
0000
ENDCHAR

STARTCHAR A7A6
ENCODING 42918
SWIDTH 960 0
DWIDTH 16 0
BBX 16 16 0 -4
BITMAP
0080
0080
0080
0080
0080
0080
0080
0080
0080
0080
0080
0080
0080
0480
0280
0100
ENDCHAR

STARTCHAR A7A7
ENCODING 42919
SWIDTH 960 0
DWIDTH 16 0
BBX 16 16 0 -4
BITMAP
0000
0000
0000
1FFC
0000
0000
0000
0000
0000
0000
0000
0000
0000
7FFF
0000
0000
ENDCHAR

STARTCHAR A7A8
ENCODING 42920
SWIDTH 960 0
DWIDTH 16 0
BBX 16 16 0 -4
BITMAP
0000
0000
0000
0000
0100
0080
0080
7FFF
0000
0000
0000
0000
0000
0000
0000
0000
ENDCHAR

STARTCHAR A7A9
ENCODING 42921
SWIDTH 960 0
DWIDTH 16 0
BBX 16 16 0 -4
BITMAP
0040
0040
0040
0040
0080
0080
0080
0140
0140
0220
0220
0410
0808
0804
1003
2000
ENDCHAR

STARTCHAR A7AA
ENCODING 42922
SWIDTH 960 0
DWIDTH 16 0
BBX 16 16 0 -4
BITMAP
0420
0420
0420
0420
0420
0420
0420
0420
0420
0420
0820
0820
0820
1021
1021
201E
ENDCHAR

STARTCHAR A7AB
ENCODING 42923
SWIDTH 960 0
DWIDTH 16 0
BBX 16 16 0 -4
BITMAP
0200
0100
0100
0100
0080
0080
0080
0140
0140
0220
0220
0410
0408
0804
1003
2000
ENDCHAR

STARTCHAR A7AC
ENCODING 42924
SWIDTH 960 0
DWIDTH 16 0
BBX 16 16 0 -4
BITMAP
0180
0040
0040
0040
0220
0220
0220
0410
0410
0410
0808
0808
0804
1002
1001
2000
ENDCHAR

STARTCHAR A7AD
ENCODING 42925
SWIDTH 960 0
DWIDTH 16 0
BBX 16 16 0 -4
BITMAP
0000
3FFE
2002
2002
2002
2002
2002
2002
2002
2002
2002
2002
2002
2002
2002
200E
ENDCHAR

STARTCHAR A7AE
ENCODING 42926
SWIDTH 960 0
DWIDTH 16 0
BBX 16 16 0 -4
BITMAP
0000
0000
0000
0000
0000
0000
3FFF
2001
2001
2002
2004
0000
0000
0000
0000
0000
ENDCHAR

STARTCHAR A7AF
ENCODING 42927
SWIDTH 960 0
DWIDTH 16 0
BBX 16 16 0 -4
BITMAP
0000
0400
0200
0110
0120
0020
0040
0040
0080
0080
0100
0100
0200
0200
0200
0000
ENDCHAR

STARTCHAR A7B0
ENCODING 42928
SWIDTH 960 0
DWIDTH 16 0
BBX 16 16 0 -4
BITMAP
0000
07E0
0420
0420
0420
0420
0420
0420
0420
0820
0820
0820
0821
1021
1021
201E
ENDCHAR

STARTCHAR A7B1
ENCODING 42929
SWIDTH 960 0
DWIDTH 16 0
BBX 16 16 0 -4
BITMAP
0000
4002
4002
4002
4002
4002
4002
4002
4002
4002
4002
4002
4002
4002
7FFE
4002
ENDCHAR

STARTCHAR A7B2
ENCODING 42930
SWIDTH 960 0
DWIDTH 16 0
BBX 16 16 0 -4
BITMAP
0000
3FFE
0102
0102
0102
0102
0102
0102
0202
0202
0202
0402
0402
0802
1004
6038
ENDCHAR

STARTCHAR A7B3
ENCODING 42931
SWIDTH 960 0
DWIDTH 16 0
BBX 16 16 0 -4
BITMAP
0100
0100
0100
0100
7FFE
0102
0102
0102
0102
0202
0202
0402
0402
0802
1004
6018
ENDCHAR

STARTCHAR A7B4
ENCODING 42932
SWIDTH 960 0
DWIDTH 16 0
BBX 16 16 0 -4
BITMAP
0400
0800
0800
1FFE
1002
2002
2002
4002
0002
0002
0002
0002
0002
0004
0004
0038
ENDCHAR

STARTCHAR A7B5
ENCODING 42933
SWIDTH 960 0
DWIDTH 16 0
BBX 16 16 0 -4
BITMAP
0000
0800
0800
0804
0808
0810
0860
0980
0E00
0800
0800
0800
0800
0802
0802
07FE
ENDCHAR

STARTCHAR A7B6
ENCODING 42934
SWIDTH 960 0
DWIDTH 16 0
BBX 16 16 0 -4
BITMAP
0000
7FFF
4000
4000
4000
4000
4000
4000
4000
4000
4000
4000
4000
4000
7FFF
4000
ENDCHAR

STARTCHAR A7B7
ENCODING 42935
SWIDTH 960 0
DWIDTH 16 0
BBX 16 16 0 -4
BITMAP
0000
0000
7FFF
2000
2000
2000
2000
2000
2000
2000
2000
2000
2000
2000
1FFF
0000
ENDCHAR

STARTCHAR A7B8
ENCODING 42936
SWIDTH 960 0
DWIDTH 16 0
BBX 16 16 0 -4
BITMAP
0080
0080
0080
0080
0080
0080
0080
7FFF
0080
0080
0080
0080
0080
0080
0080
0080
ENDCHAR

STARTCHAR A7B9
ENCODING 42937
SWIDTH 960 0
DWIDTH 16 0
BBX 16 16 0 -4
BITMAP
0200
0200
0200
0200
0200
0300
02C0
0230
0208
0204
0200
0200
0200
0200
0200
0200
ENDCHAR

STARTCHAR A7BA
ENCODING 42938
SWIDTH 960 0
DWIDTH 16 0
BBX 16 16 0 -4
BITMAP
0000
1FF8
0408
0408
0408
0408
0408
0408
0408
0408
0410
04E0
0400
0400
0400
0400
ENDCHAR

STARTCHAR A7BB
ENCODING 42939
SWIDTH 960 0
DWIDTH 16 0
BBX 16 16 0 -4
BITMAP
0000
1FFF
1000
1000
1000
1000
1000
1000
1000
1000
1000
1000
2000
2000
4000
0000
ENDCHAR

STARTCHAR A7BC
ENCODING 42940
SWIDTH 960 0
DWIDTH 16 0
BBX 16 16 0 -4
BITMAP
0000
0000
0100
0100
0200
0200
0420
0410
0808
0808
1004
20FE
3F02
0002
0000
0000
ENDCHAR

STARTCHAR A7BD
ENCODING 42941
SWIDTH 960 0
DWIDTH 16 0
BBX 16 16 0 -4
BITMAP
0000
3FF8
0008
0808
0808
0410
0410
0220
0220
0140
0080
0140
0220
0418
1807
6000
ENDCHAR

STARTCHAR A7BE
ENCODING 42942
SWIDTH 960 0
DWIDTH 16 0
BBX 16 16 0 -4
BITMAP
0000
0000
1FFC
1004
1004
1004
1004
1004
1004
1004
1004
1004
1FFC
1004
0000
0000
ENDCHAR

STARTCHAR A7BF
ENCODING 42943
SWIDTH 960 0
DWIDTH 16 0
BBX 16 16 0 -4
BITMAP
0000
3FFE
2002
2002
2002
2002
2002
2002
2002
2002
2002
2002
2002
2002
3FFE
2002
ENDCHAR

STARTCHAR A7C0
ENCODING 42944
SWIDTH 960 0
DWIDTH 16 0
BBX 16 16 0 -4
BITMAP
0080
0080
0080
0080
0080
1FFC
0080
0080
0080
0080
0080
0080
0080
7FFF
0000
0000
ENDCHAR

STARTCHAR A7C1
ENCODING 42945
SWIDTH 960 0
DWIDTH 16 0
BBX 16 16 0 -4
BITMAP
0080
0080
0080
0080
0080
0080
7FFF
0080
0080
0080
0080
0080
0080
1FFC
0000
0000
ENDCHAR

STARTCHAR A7C2
ENCODING 42946
SWIDTH 960 0
DWIDTH 16 0
BBX 16 16 0 -4
BITMAP
0200
0200
03F8
6408
1408
0810
1410
2420
4220
0140
0080
0140
0220
0418
1807
6000
ENDCHAR

STARTCHAR A7C3
ENCODING 42947
SWIDTH 960 0
DWIDTH 16 0
BBX 16 16 0 -4
BITMAP
0200
0200
03FC
0404
0404
0804
1808
2608
0110
0090
0060
0040
0080
0300
0C00
7000
ENDCHAR

STARTCHAR A7C4
ENCODING 42948
SWIDTH 960 0
DWIDTH 16 0
BBX 16 16 0 -4
BITMAP
0080
0080
0080
0080
7FFF
0080
0080
0140
0140
0120
0220
0210
0410
0808
1004
2003
ENDCHAR

STARTCHAR A7C5
ENCODING 42949
SWIDTH 960 0
DWIDTH 16 0
BBX 16 16 0 -4
BITMAP
0100
0100
0100
0208
0208
7FFF
0208
0408
0408
0810
1610
01A0
00E0
0110
0608
3804
ENDCHAR

STARTCHAR A7C6
ENCODING 42950
SWIDTH 960 0
DWIDTH 16 0
BBX 16 16 0 -4
BITMAP
0000
1FF8
0010
0020
0040
0080
0080
0080
7FFF
0080
0080
0080
0080
0080
0080
0300
ENDCHAR

STARTCHAR A7C7
ENCODING 42951
SWIDTH 960 0
DWIDTH 16 0
BBX 16 16 0 -4
BITMAP
0000
0000
0100
0080
2080
3FFF
2001
4001
4002
0000
0000
0000
0000
0000
0000
0000
ENDCHAR

STARTCHAR A7C8
ENCODING 42952
SWIDTH 960 0
DWIDTH 16 0
BBX 16 16 0 -4
BITMAP
0010
0010
0010
0010
7FFF
0010
0010
0410
0210
0110
0110
0010
0010
0010
0010
00E0
ENDCHAR

STARTCHAR A7C9
ENCODING 42953
SWIDTH 960 0
DWIDTH 16 0
BBX 16 16 0 -4
BITMAP
0080
0080
0080
0080
0080
0888
0884
1082
1082
2081
4081
0080
0080
0080
0080
0700
ENDCHAR

STARTCHAR A7CA
ENCODING 42954
SWIDTH 960 0
DWIDTH 16 0
BBX 16 16 0 -4
BITMAP
0080
0080
0080
0080
7FFF
0080
0080
0140
0140
0240
0240
0440
0440
0841
1041
203F
ENDCHAR

STARTCHAR A7CB
ENCODING 42955
SWIDTH 960 0
DWIDTH 16 0
BBX 16 16 0 -4
BITMAP
0000
1FFC
1004
1004
1004
1004
1FFC
1004
1000
1000
1000
1000
2000
2000
2000
4000
ENDCHAR

STARTCHAR A7CC
ENCODING 42956
SWIDTH 960 0
DWIDTH 16 0
BBX 16 16 0 -4
BITMAP
0080
0080
2082
2082
2082
2082
2082
2082
3FFE
2082
0080
0080
0080
0080
0080
0080
ENDCHAR

STARTCHAR A7CD
ENCODING 42957
SWIDTH 960 0
DWIDTH 16 0
BBX 16 16 0 -4
BITMAP
0080
0080
0080
0080
2082
2082
2082
2082
2082
2082
2082
2082
2082
2082
3FFE
2002
ENDCHAR

STARTCHAR A7CE
ENCODING 42958
SWIDTH 960 0
DWIDTH 16 0
BBX 16 16 0 -4
BITMAP
0222
0222
0444
0444
0888
0888
1110
2220
1110
0888
0888
0444
0444
0222
0222
0000
ENDCHAR

STARTCHAR A7CF
ENCODING 42959
SWIDTH 960 0
DWIDTH 16 0
BBX 16 16 0 -4
BITMAP
0000
0000
3FFE
0080
0080
0080
0080
0080
0080
0080
0080
0080
0080
0080
7FFF
0000
ENDCHAR

STARTCHAR A7D0
ENCODING 42960
SWIDTH 960 0
DWIDTH 16 0
BBX 16 16 0 -4
BITMAP
0000
7FFC
0004
0004
0004
0004
3FFC
2004
2000
2000
2000
2001
2001
2001
1FFE
0000
ENDCHAR

STARTCHAR A7D1
ENCODING 42961
SWIDTH 960 0
DWIDTH 16 0
BBX 16 16 0 -4
BITMAP
0080
0080
0080
3FFE
2082
2082
2082
2082
2082
2082
2082
2082
2082
209C
0080
0080
ENDCHAR

STARTCHAR A7D2
ENCODING 42962
SWIDTH 960 0
DWIDTH 16 0
BBX 16 16 0 -4
BITMAP
0000
3FFE
0080
0080
0080
0080
0080
7FFF
0080
0080
0080
0080
0080
0080
0080
0080
ENDCHAR

STARTCHAR A7D3
ENCODING 42963
SWIDTH 960 0
DWIDTH 16 0
BBX 16 16 0 -4
BITMAP
0100
0200
0400
0810
1020
2040
1080
0900
0600
0410
0808
1004
20FE
7F02
0002
0000
ENDCHAR

STARTCHAR A7D4
ENCODING 42964
SWIDTH 960 0
DWIDTH 16 0
BBX 16 16 0 -4
BITMAP
0080
0040
1FFF
1000
1000
1000
1000
1000
1000
1000
1000
2000
2000
2000
4000
4000
ENDCHAR

STARTCHAR A7D5
ENCODING 42965
SWIDTH 960 0
DWIDTH 16 0
BBX 16 16 0 -4
BITMAP
0000
3E00
0200
0400
0400
0800
1E00
0200
2200
2200
1400
1400
0C00
0A00
1180
207F
ENDCHAR

STARTCHAR A7D6
ENCODING 42966
SWIDTH 960 0
DWIDTH 16 0
BBX 16 16 0 -4
BITMAP
0410
0410
0410
0410
0410
0410
7FFF
0410
0410
0410
0410
0810
0810
1010
2010
4010
ENDCHAR

STARTCHAR A7D7
ENCODING 42967
SWIDTH 960 0
DWIDTH 16 0
BBX 16 16 0 -4
BITMAP
0400
0430
0408
0400
0400
7FFE
0200
0200
0200
0100
0100
0082
0042
0022
0012
000E
ENDCHAR

STARTCHAR A7D8
ENCODING 42968
SWIDTH 960 0
DWIDTH 16 0
BBX 16 16 0 -4
BITMAP
0000
3FF8
0008
0008
0008
1FF8
1000
2000
2000
3FFC
0004
0004
0004
0004
0008
01F0
ENDCHAR

STARTCHAR A7D9
ENCODING 42969
SWIDTH 960 0
DWIDTH 16 0
BBX 16 16 0 -4
BITMAP
0000
0000
0000
1FF8
0008
0008
0008
0008
1FF8
0008
0008
0008
0008
7FFF
0000
0000
ENDCHAR

STARTCHAR A7DA
ENCODING 42970
SWIDTH 960 0
DWIDTH 16 0
BBX 16 16 0 -4
BITMAP
0010
0010
0020
0040
0088
0308
0C10
0020
00C0
0304
0C04
0008
0010
0060
0380
3C00
ENDCHAR

STARTCHAR A7DB
ENCODING 42971
SWIDTH 960 0
DWIDTH 16 0
BBX 16 16 0 -4
BITMAP
0088
0088
0110
0210
0420
1840
00C0
0140
0640
1840
0040
0040
0040
0040
0040
0040
ENDCHAR

STARTCHAR A7DC
ENCODING 42972
SWIDTH 960 0
DWIDTH 16 0
BBX 16 16 0 -4
BITMAP
0000
0180
0040
0420
0400
0400
1404
1402
1401
2401
2401
4408
0408
0408
03F0
0000
ENDCHAR

STARTCHAR A7DD
ENCODING 42973
SWIDTH 960 0
DWIDTH 16 0
BBX 16 16 0 -4
BITMAP
0100
0110
0108
0108
7FFE
0100
0108
0110
0120
00C0
0080
0140
0621
1811
600D
0003
ENDCHAR

STARTCHAR A7DE
ENCODING 42974
SWIDTH 960 0
DWIDTH 16 0
BBX 16 16 0 -4
BITMAP
001C
01E0
1E00
1000
1FFE
1002
1002
1002
1002
1FFE
1002
1000
1000
2000
2000
4000
ENDCHAR

STARTCHAR A7DF
ENCODING 42975
SWIDTH 960 0
DWIDTH 16 0
BBX 16 16 0 -4
BITMAP
0038
1FC0
0080
0080
0080
1FFC
0080
0080
0080
7FFF
0080
0080
0080
0080
0080
0700
ENDCHAR

STARTCHAR A7E0
ENCODING 42976
SWIDTH 960 0
DWIDTH 16 0
BBX 16 16 0 -4
BITMAP
0080
0080
7FFF
0080
0080
0080
1FF8
0008
0408
0410
0220
0140
00C0
0320
0C18
3007
ENDCHAR

STARTCHAR A7E1
ENCODING 42977
SWIDTH 960 0
DWIDTH 16 0
BBX 16 16 0 -4
BITMAP
0080
0080
0080
00FE
0080
0080
1FFC
0004
0408
0410
0220
0140
00C0
0320
0C18
3007
ENDCHAR

STARTCHAR A7E2
ENCODING 42978
SWIDTH 960 0
DWIDTH 16 0
BBX 16 16 0 -4
BITMAP
0100
0080
0080
7FFF
0008
0808
0808
0410
0410
0220
0140
0080
0140
0220
0C18
3007
ENDCHAR

STARTCHAR A7E3
ENCODING 42979
SWIDTH 960 0
DWIDTH 16 0
BBX 16 16 0 -4
BITMAP
0010
0010
0210
0110
0090
0890
0410
0210
0210
0010
7FFF
0010
0010
0010
0010
0010
ENDCHAR

STARTCHAR A7E4
ENCODING 42980
SWIDTH 960 0
DWIDTH 16 0
BBX 16 16 0 -4
BITMAP
003C
1FC0
1000
1000
1000
1FFF
1020
1020
1020
1020
1020
1020
2020
2020
4020
0020
ENDCHAR

STARTCHAR A7E5
ENCODING 42981
SWIDTH 960 0
DWIDTH 16 0
BBX 16 16 0 -4
BITMAP
0100
0080
0080
7FFF
0200
0200
0200
03FC
0204
0204
0204
0404
0404
0804
1008
2070
ENDCHAR

STARTCHAR A7E6
ENCODING 42982
SWIDTH 960 0
DWIDTH 16 0
BBX 16 16 0 -4
BITMAP
0000
1FFC
0080
0080
0080
0080
7FFF
0080
0140
0140
0240
0240
0440
0841
1041
203E
ENDCHAR

STARTCHAR A7E7
ENCODING 42983
SWIDTH 960 0
DWIDTH 16 0
BBX 16 16 0 -4
BITMAP
0000
0FF8
0808
0808
0808
0808
0808
0FF8
0808
0808
0808
0808
0808
0FF8
0808
0000
ENDCHAR

STARTCHAR A7E8
ENCODING 42984
SWIDTH 960 0
DWIDTH 16 0
BBX 16 16 0 -4
BITMAP
0000
0000
3FFC
2004
2004
2004
2004
3FFC
2004
2004
2004
2004
3FFC
2004
0000
0000
ENDCHAR

STARTCHAR A7E9
ENCODING 42985
SWIDTH 960 0
DWIDTH 16 0
BBX 16 16 0 -4
BITMAP
0000
07FC
0404
0404
0404
07FC
0404
0404
0404
07FC
0404
0404
0804
0804
1004
201C
ENDCHAR

STARTCHAR A7EA
ENCODING 42986
SWIDTH 960 0
DWIDTH 16 0
BBX 16 16 0 -4
BITMAP
0080
0080
0080
0080
7FFF
0080
01C0
02A0
0490
0888
1084
2082
4081
0080
0080
0080
ENDCHAR

STARTCHAR A7EB
ENCODING 42987
SWIDTH 960 0
DWIDTH 16 0
BBX 16 16 0 -4
BITMAP
0400
0400
0400
0FFE
0882
0884
1088
2080
0140
0140
0220
0220
0410
0808
1004
2003
ENDCHAR

STARTCHAR A7EC
ENCODING 42988
SWIDTH 960 0
DWIDTH 16 0
BBX 16 16 0 -4
BITMAP
0040
0040
0040
0040
0840
0840
0840
087E
0840
0840
0840
0840
0840
0840
7FFF
0000
ENDCHAR

STARTCHAR A7ED
ENCODING 42989
SWIDTH 960 0
DWIDTH 16 0
BBX 16 16 0 -4
BITMAP
0000
7FFF
0100
0100
0200
03FC
0404
0C08
1208
2110
00A0
0040
0080
0300
0C00
3000
ENDCHAR

STARTCHAR A7EE
ENCODING 42990
SWIDTH 960 0
DWIDTH 16 0
BBX 16 16 0 -4
BITMAP
07F0
0410
0410
0410
0410
0810
100F
2000
0FF8
0408
0210
0120
00C0
0120
0618
3807
ENDCHAR

STARTCHAR A7EF
ENCODING 42991
SWIDTH 960 0
DWIDTH 16 0
BBX 16 16 0 -4
BITMAP
0000
0FFC
0884
0884
0884
0884
7FFF
1108
1108
1108
1108
1FFE
0208
0408
0810
0060
ENDCHAR

STARTCHAR A7F0
ENCODING 42992
SWIDTH 960 0
DWIDTH 16 0
BBX 16 16 0 -4
BITMAP
0000
2040
2040
2040
2040
2040
3F7E
2040
2040
2040
2040
2040
2041
2341
2C41
303F
ENDCHAR

STARTCHAR A7F1
ENCODING 42993
SWIDTH 960 0
DWIDTH 16 0
BBX 16 16 0 -4
BITMAP
001C
01E0
3F00
0100
0100
3FFC
0100
0100
0100
7FFF
0100
0100
0100
0101
0101
00FF
ENDCHAR

STARTCHAR A7F2
ENCODING 42994
SWIDTH 960 0
DWIDTH 16 0
BBX 16 16 0 -4
BITMAP
0000
007C
3F80
2080
2080
2080
2080
3FFE
2080
2040
2040
2020
2010
2189
2E05
3003
ENDCHAR

STARTCHAR A7F3
ENCODING 42995
SWIDTH 960 0
DWIDTH 16 0
BBX 16 16 0 -4
BITMAP
1000
1FFE
1000
2000
2FF8
4000
0000
3FF8
0008
0008
0008
0008
0005
0005
0003
0001
ENDCHAR

STARTCHAR A7F4
ENCODING 42996
SWIDTH 960 0
DWIDTH 16 0
BBX 16 16 0 -4
BITMAP
0080
0080
0082
0084
0088
7EB0
02C0
02A0
04A0
0490
0890
1088
2084
4083
0080
0380
ENDCHAR

STARTCHAR A7F5
ENCODING 42997
SWIDTH 960 0
DWIDTH 16 0
BBX 16 16 0 -4
BITMAP
0080
0080
0084
2084
1088
0890
08A0
0080
0140
0140
0220
0220
0410
0808
1004
2003
ENDCHAR

STARTCHAR A7F6
ENCODING 42998
SWIDTH 960 0
DWIDTH 16 0
BBX 16 16 0 -4
BITMAP
003C
1FC8
1088
1088
1088
1088
1088
1088
1088
1084
1084
2084
2082
2082
4081
0000
ENDCHAR

STARTCHAR A7F7
ENCODING 42999
SWIDTH 960 0
DWIDTH 16 0
BBX 16 16 0 -4
BITMAP
0000
0418
0804
1002
2001
0408
0408
0210
0210
0120
0140
00C0
0120
0210
0C0C
3003
ENDCHAR

STARTCHAR A7F8
ENCODING 43000
SWIDTH 960 0
DWIDTH 16 0
BBX 16 16 0 -4
BITMAP
0008
0410
0360
0080
0160
0618
1804
0210
0210
0120
0140
0080
0140
0630
180C
2003
ENDCHAR

STARTCHAR A7F9
ENCODING 43001
SWIDTH 960 0
DWIDTH 16 0
BBX 16 16 0 -4
BITMAP
0004
1004
1004
1004
1004
1FFC
1004
0004
1FFC
1004
1004
1004
1004
2004
2004
4004
ENDCHAR

STARTCHAR A7FA
ENCODING 43002
SWIDTH 960 0
DWIDTH 16 0
BBX 16 16 0 -4
BITMAP
1008
1008
1008
1008
1FF8
1000
1000
1000
1FF8
1008
1008
1008
1008
2008
2008
4008
ENDCHAR

STARTCHAR A7FB
ENCODING 43003
SWIDTH 960 0
DWIDTH 16 0
BBX 16 16 0 -4
BITMAP
0000
1FFE
1020
1020
2020
2020
3FFF
0060
00A0
0120
0220
0420
1820
6020
0020
00E0
ENDCHAR

STARTCHAR A7FC
ENCODING 43004
SWIDTH 960 0
DWIDTH 16 0
BBX 16 16 0 -4
BITMAP
0080
1080
1080
1FFE
1080
2080
4080
0080
0080
7FFF
0080
0080
0080
0080
0080
0080
ENDCHAR

STARTCHAR A7FD
ENCODING 43005
SWIDTH 960 0
DWIDTH 16 0
BBX 16 16 0 -4
BITMAP
0080
0090
0088
0084
0080
7FFF
0080
0180
0140
0220
0220
0410
0410
0808
1004
2003
ENDCHAR

STARTCHAR A7FE
ENCODING 43006
SWIDTH 960 0
DWIDTH 16 0
BBX 16 16 0 -4
BITMAP
0100
0080
0080
7FFF
0080
0080
0100
0210
0C20
0440
0280
0104
0202
041E
3FE1
0001
ENDCHAR

STARTCHAR A821
ENCODING 43041
SWIDTH 960 0
DWIDTH 16 0
BBX 16 16 0 -4
BITMAP
0000
45FF
2810
1020
2820
4854
0852
1492
1491
2511
4510
0410
0410
0410
05FF
1800
ENDCHAR

STARTCHAR A822
ENCODING 43042
SWIDTH 960 0
DWIDTH 16 0
BBX 16 16 0 -4
BITMAP
0010
4410
2810
1010
29FF
4810
0810
1410
14FE
2482
4482
0482
0482
0482
08FE
3082
ENDCHAR

STARTCHAR A823
ENCODING 43043
SWIDTH 960 0
DWIDTH 16 0
BBX 16 16 0 -4
BITMAP
0048
4448
2848
13FE
284A
484A
09FE
0948
1A48
2BFF
4849
0849
0889
088E
0908
3208
ENDCHAR

STARTCHAR A824
ENCODING 43044
SWIDTH 960 0
DWIDTH 16 0
BBX 16 16 0 -4
BITMAP
0000
45FE
2902
1102
29FE
4900
0920
0920
1920
293F
4920
0920
0920
0A21
0C21
301F
ENDCHAR

STARTCHAR A825
ENCODING 43045
SWIDTH 960 0
DWIDTH 16 0
BBX 16 16 0 -4
BITMAP
0000
44FE
2882
1082
2882
48FE
0882
1482
1482
2482
44FE
0482
0400
0400
05FF
1800
ENDCHAR

STARTCHAR A826
ENCODING 43046
SWIDTH 960 0
DWIDTH 16 0
BBX 16 16 0 -4
BITMAP
0010
4490
2890
1090
29FF
4910
0A10
1410
1410
24FE
4410
0410
0410
0410
05FF
1800
ENDCHAR

STARTCHAR A827
ENCODING 43047
SWIDTH 960 0
DWIDTH 16 0
BBX 16 16 0 -4
BITMAP
0020
4450
2888
1104
2A02
4CF9
0800
0800
1BFE
2802
4804
0804
0888
0850
0820
3010
ENDCHAR

STARTCHAR A828
ENCODING 43048
SWIDTH 960 0
DWIDTH 16 0
BBX 16 16 0 -4
BITMAP
0010
0010
7C1F
11F0
1010
1010
1010
7CFE
1010
1010
1010
11FF
1C10
7010
0010
0010
ENDCHAR

STARTCHAR A829
ENCODING 43049
SWIDTH 960 0
DWIDTH 16 0
BBX 16 16 0 -4
BITMAP
0000
00FE
7C88
1088
1108
1108
7D08
11FF
1008
1018
1E28
7048
0088
0308
1C08
0038
ENDCHAR

STARTCHAR A82A
ENCODING 43050
SWIDTH 960 0
DWIDTH 16 0
BBX 16 16 0 -4
BITMAP
0010
0110
7D10
1110
1110
111F
11F0
7D10
1110
1110
1110
1110
1D11
7171
018F
0000
ENDCHAR

ENDFONT
